<?xml version="1.0" encoding="UTF-8"?>
<svg id="_レイヤー_2" data-name="レイヤー 2" xmlns="http://www.w3.org/2000/svg" viewBox="0 0 50 30">
  <defs>
    <style>
      .cls-1 {
        fill: none;
      }

      .cls-2 {
        fill: #fff;
      }
    </style>
  </defs>
  <g id="_レイヤー_1-2" data-name="レイヤー 1">
    <g>
      <g>
        <rect y=".9" width="43.29" height="28.25"/>
        <path d="m44.59,26.8c0,1.49,1.21,2.71,2.7,2.71s2.71-1.22,2.71-2.71-1.22-2.7-2.71-2.7-2.7,1.21-2.7,2.7m.31,0c0-1.32,1.07-2.39,2.39-2.39s2.39,1.07,2.39,2.39-1.07,2.39-2.39,2.39-2.39-1.07-2.39-2.39Z"/>
        <path d="m48.61,28.55h-.52l-1.05-1.62h-.46v1.62h-.42v-3.57h1.01c.34,0,.61.08.8.25.2.16.3.39.3.69,0,.22-.07.41-.21.58-.14.17-.34.28-.59.35l1.14,1.71m-2.03-1.99h.52c.22,0,.4-.06.54-.18.14-.12.2-.27.2-.45,0-.4-.24-.6-.73-.6h-.54v1.23Z"/>
      </g>
      <path class="cls-2" d="m10.88,22.81c-2.37,0-5.32-1.81-5.32-5.56,0-2.91,2.88-5.23,5.32-6.62,2.44,1.39,5.32,3.71,5.32,6.62,0,3.75-2.95,5.56-5.32,5.56m16.31-5.62c0-2.91,2.88-5.23,5.32-6.62,2.44,1.39,5.32,3.71,5.32,6.62,0,3.74-2.95,5.56-5.32,5.56s-5.32-1.82-5.32-5.56m16.1-11.9c-4.4,0-8.3,1.1-10.94,2.47-2.65-1.38-6.3-2.47-10.7-2.47s-8.05,1.1-10.7,2.47C8.29,6.39,4.4,5.29,0,5.29v2.47c2.6,0,5.75.49,8.23,1.56-2.67,1.79-5.32,4.5-5.32,7.92,0,4.52,3.85,7.98,8.03,7.98s7.84-3.45,7.84-7.98c0-3.42-2.46-6.13-5.13-7.92,2.48-1.08,5.4-1.56,8-1.56s5.52.49,8,1.56c-2.67,1.79-5.13,4.5-5.13,7.92,0,4.52,3.66,7.98,7.84,7.98s7.97-3.45,7.97-7.98c0-3.42-2.59-6.13-5.26-7.92,2.48-1.08,5.64-1.56,8.24-1.56v-2.47Z"/>
    </g>
    <rect class="cls-1" width="50" height="30"/>
  </g>
</svg>