<svg id="merit04" xmlns="http://www.w3.org/2000/svg" xmlns:xlink="http://www.w3.org/1999/xlink" width="80.127" height="60" viewBox="0 0 80.127 60">
  <defs>
    <clipPath id="clip-path">
      <rect id="長方形_4364" data-name="長方形 4364" width="80.127" height="60" fill="#a69258"/>
    </clipPath>
  </defs>
  <g id="グループ_3234" data-name="グループ 3234" transform="translate(0 0)" clip-path="url(#clip-path)">
    <path id="パス_5556" data-name="パス 5556" d="M4804.646,858.017a9.581,9.581,0,0,0-3.394-5.146,11.081,11.081,0,0,0-5.638-2.255v-4.3a.634.634,0,0,0-.634-.634h-3.066v-7.011a.635.635,0,0,0-.634-.634h-3a.634.634,0,0,0-.634.634v7.011h-3.067a.634.634,0,0,0-.634.634v4.3a11.769,11.769,0,0,0-5.564,2.256,10.133,10.133,0,0,0-3.45,4.691.6.6,0,0,0-.037.211v31.279a.634.634,0,0,0,.634.634h28.509a.634.634,0,0,0,.633-.634V858.172a.611.611,0,0,0-.019-.155" transform="translate(-4724.538 -835.378)" fill="#a69258"/>
    <path id="パス_5557" data-name="パス 5557" d="M4789.6,830.551H4779a.634.634,0,0,0-.633.634v1.246h-5.179a.634.634,0,0,0-.56.338l-5.7,2.993a.634.634,0,0,0-.266.856l1.112,2.119a.633.633,0,0,0,.855.267l5.546-2.911h4.265a.632.632,0,0,0,.562.342h10.6a.634.634,0,0,0,.634-.634v-4.616a.635.635,0,0,0-.634-.634" transform="translate(-4719.181 -830.551)" fill="#a69258"/>
    <path id="パス_5558" data-name="パス 5558" d="M4746.511,851.934a.634.634,0,0,0-.613-.26,29.7,29.7,0,0,0-3.857.858c-2.428.711-3.892,1.141-4.515,2.509a3.28,3.28,0,0,0,2.967,4.644,2.777,2.777,0,0,0,.367-.023c.885-.116,1.769-.749,3.664-3.637.73-1.112,1.413-2.265,2.03-3.426a.633.633,0,0,0-.043-.664" transform="translate(-4700.25 -844.174)" fill="#a69258"/>
    <path id="パス_5559" data-name="パス 5559" d="M4751.036,870.617a.634.634,0,0,0-.66.086,29.787,29.787,0,0,0-2.893,2.693c-1.732,1.842-2.778,2.954-2.623,4.449a3.375,3.375,0,0,0,2.024,2.7,3.259,3.259,0,0,0,1.23.236,3.214,3.214,0,0,0,1.96-.643h0c.705-.549,1.146-1.541,1.318-4.992.066-1.331.071-2.671.016-3.982a.633.633,0,0,0-.373-.551" transform="translate(-4705.155 -856.363)" fill="#a69258"/>
    <path id="パス_5560" data-name="パス 5560" d="M4644.53,883.489a27.736,27.736,0,0,1,3.488-1.528,37.393,37.393,0,0,1,6.619-1.507c.036-.006,3.551-.626,9.138-1.228,2.186-.236,4.251-.458,5.081.83.039.061.072.123.1.187,2.044-.5,3.3-.882,3.872-2.094a2.549,2.549,0,0,0-.041-2.378c-.829-1.289-2.894-1.066-5.08-.83-5.586.6-9.1,1.221-9.137,1.228a37.381,37.381,0,0,0-6.619,1.507,27.808,27.808,0,0,0-3.488,1.528l-6.514-2.606a.634.634,0,0,0-.87.588v4.923Z" transform="translate(-4638.215 -859.072)" fill="#a69258"/>
    <path id="パス_5561" data-name="パス 5561" d="M4723.656,910.358a4.57,4.57,0,0,0-2.817-2.311l.119-.044a2.74,2.74,0,0,0,1.6-1.418,2.775,2.775,0,0,0-.193-2.228,4.582,4.582,0,0,0-2.9-2.334l-13.757-4.98-.486-.181c-.654,1.162-2.032,1.5-4.25,2.039l-.155.037c-1.063.259-2.161.531-3.282.813l4.237,1.577,13.757,4.98a4.58,4.58,0,0,1,2.9,2.334,2.774,2.774,0,0,1,.194,2.228,2.743,2.743,0,0,1-1.6,1.418l-.12.044a4.678,4.678,0,0,1,2.485,1.752,4.473,4.473,0,0,0,2.863-.079,2.739,2.739,0,0,0,1.6-1.418,2.768,2.768,0,0,0-.193-2.228" transform="translate(-4674.636 -873.331)" fill="#a69258"/>
    <path id="パス_5562" data-name="パス 5562" d="M4662.952,839.468c-2.951-.667-3.365-1.081-4.032-4.031a.633.633,0,0,0-1.235,0c-.666,2.95-1.081,3.364-4.031,4.031a.634.634,0,0,0,0,1.237c2.95.667,3.365,1.081,4.031,4.031a.633.633,0,0,0,1.235,0c.667-2.95,1.081-3.365,4.032-4.031a.634.634,0,0,0,0-1.237" transform="translate(-4646.005 -833.384)" fill="#a69258"/>
    <path id="パス_5563" data-name="パス 5563" d="M4694.411,852.351c-1.681-.38-1.847-.546-2.227-2.227a.634.634,0,0,0-1.237,0c-.38,1.681-.545,1.848-2.227,2.227a.634.634,0,0,0,0,1.237c1.682.38,1.847.546,2.227,2.227a.634.634,0,0,0,1.237,0c.38-1.681.546-1.847,2.227-2.227a.634.634,0,0,0,0-1.237" transform="translate(-4668.628 -842.86)" fill="#a69258"/>
    <path id="パス_5564" data-name="パス 5564" d="M4730.953,983.529c-1.681-.38-1.848-.546-2.228-2.227a.634.634,0,0,0-1.236,0c-.38,1.681-.547,1.848-2.228,2.227a.634.634,0,0,0,0,1.237c1.681.38,1.848.546,2.228,2.227a.634.634,0,0,0,1.236,0c.379-1.681.546-1.847,2.228-2.227a.634.634,0,0,0,0-1.237" transform="translate(-4692.202 -927.486)" fill="#a69258"/>
    <path id="パス_5565" data-name="パス 5565" d="M4753.194,969.474c-2.5-.566-2.821-.882-3.387-3.386a.634.634,0,0,0-1.236,0c-.566,2.5-.883,2.821-3.386,3.386a.634.634,0,0,0,0,1.237c2.5.566,2.82.882,3.386,3.387a.634.634,0,0,0,1.236,0c.566-2.5.882-2.821,3.387-3.387a.634.634,0,0,0,0-1.237" transform="translate(-4705.054 -917.671)" fill="#a69258"/>
    <path id="パス_5566" data-name="パス 5566" d="M4676.021,912.769a1.522,1.522,0,0,0,.883-.715,1.585,1.585,0,0,0-.158-1.192,3.322,3.322,0,0,0-2.123-1.676l-.044-.015-16.848-6.1a.634.634,0,0,1-.38-.812l.107-.3a.635.635,0,0,1,.813-.381l13.784,4.99a.558.558,0,0,1,.057.024,3.337,3.337,0,0,0,2.617.171,1.522,1.522,0,0,0,.883-.715,1.578,1.578,0,0,0-.159-1.192,3.317,3.317,0,0,0-2.122-1.676l-.044-.014-13.784-4.99-6.146-2.287a.634.634,0,0,1,.064-1.208c1.81-.464,3.58-.907,5.264-1.317l.155-.038c2.176-.529,3.152-.793,3.493-1.517a1.317,1.317,0,0,0,.041-1.152c-.4-.63-2.25-.431-3.878-.255-5.54.6-9.018,1.209-9.052,1.215a35.432,35.432,0,0,0-6.412,1.452,26.574,26.574,0,0,0-3.58,1.59.632.632,0,0,1-.535.03L4633,892.328v11.714l2.246,1.194a.633.633,0,0,1,.241.226c.348.562.717,1.126,1.1,1.675.01.014,1,1.433,1.918,2.538,1.012,1.213,6.158,4.055,14.424,6.574l.032.01,9.814,3.553c1.9.6,3.318.071,3.574-.525h0a1.915,1.915,0,0,0-.31-1.445,3.373,3.373,0,0,0-1.975-1.413l-.044-.014-9.828-3.557a.634.634,0,0,1-.38-.812l.107-.3a.636.636,0,0,1,.813-.381l13.785,4.99a.578.578,0,0,1,.056.024,3.339,3.339,0,0,0,2.618.171,1.519,1.519,0,0,0,.882-.715,1.577,1.577,0,0,0-.159-1.192,3.322,3.322,0,0,0-2.122-1.676c-.015,0-.03-.009-.044-.014l-13.784-4.989a.634.634,0,0,1-.381-.812l.108-.3a.634.634,0,0,1,.812-.381l16.847,6.1c.02.007.039.015.057.024a3.335,3.335,0,0,0,2.617.171" transform="translate(-4633 -869.053)" fill="#a69258"/>
  </g>
</svg>
