<svg id="merit03" xmlns="http://www.w3.org/2000/svg" width="82.169" height="60" viewBox="0 0 82.169 60">
  <path id="パス_5539" data-name="パス 5539" d="M3738.157,480.726l10.573,40.257h50.055l10.573-40.257-23.51,16.175-12.091-24.712L3761.667,496.9Zm30.679,16.482a15.171,15.171,0,0,0,2.684.152h2.841a22.99,22.99,0,0,0,2.774-.086,32.524,32.524,0,0,0-.157,3.486v11.347a24.322,24.322,0,0,0,.179,3.271h-4.876a24.14,24.14,0,0,0,.179-3.271V501.063h-.895a24.18,24.18,0,0,0-2.729.152Z" transform="translate(-3732.831 -460.984)" fill="#a69258"/>
  <circle id="楕円形_37" data-name="楕円形 37" cx="3.386" cy="3.386" r="3.386" transform="translate(37.233)" fill="#a69258"/>
  <circle id="楕円形_38" data-name="楕円形 38" cx="3.386" cy="3.386" r="3.386" transform="translate(75.398 10.483)" fill="#a69258"/>
  <circle id="楕円形_39" data-name="楕円形 39" cx="3.386" cy="3.386" r="3.386" transform="translate(0 10.483)" fill="#a69258"/>
</svg>
