<svg xmlns="http://www.w3.org/2000/svg" width="54.598" height="70" viewBox="0 0 54.598 70">
  <g id="merit05" transform="translate(-1676.277 -8970)">
    <g id="グループ_3232" data-name="グループ 3232" transform="translate(1676.277 8970)">
      <path id="パス_5545" data-name="パス 5545" d="M4823.122,546.5a8.283,8.283,0,0,0,5.875-2.434,1.022,1.022,0,0,0-1.446-1.445,6.262,6.262,0,0,1-8.856,0,1.023,1.023,0,1,0-1.447,1.445A8.285,8.285,0,0,0,4823.122,546.5Z" transform="translate(-4795.824 -510.583)" fill="#a69258"/>
      <path id="パス_5546" data-name="パス 5546" d="M4804.861,517.142a2.489,2.489,0,1,0-2.488-2.491A2.491,2.491,0,0,0,4804.861,517.142Z" transform="translate(-4786.818 -491.704)" fill="#a69258"/>
      <path id="パス_5547" data-name="パス 5547" d="M4854.277,517.142a2.489,2.489,0,1,0-2.489-2.491A2.49,2.49,0,0,0,4854.277,517.142Z" transform="translate(-4817.724 -491.704)" fill="#a69258"/>
      <path id="パス_5548" data-name="パス 5548" d="M4797.035,575.855,4791.6,596.2h-6.913l-5.433-20.347a26.641,26.641,0,0,0-18.41,25.116h54.6A26.639,26.639,0,0,0,4797.035,575.855Z" transform="translate(-4760.845 -530.971)" fill="#a69258"/>
      <path id="パス_5549" data-name="パス 5549" d="M4779.334,497.757a22.523,22.523,0,0,0,21.672-.164c6.759,9.387,15.634-.354,15.634-.354s-7.067,4.686-5.514-7.407c.967-7.526,1.094-16.3-.769-19.23a22.281,22.281,0,0,0-41.451,2.18c-1.479,3.1-1.653,10.661-.89,16.6,1.554,12.093-4.195,7.86-4.195,7.86S4772.592,506.862,4779.334,497.757Zm1.245-23.686a15.674,15.674,0,0,1,26.382-.619,16.975,16.975,0,0,1-4.3,17.821,18.218,18.218,0,0,1-25.267,0,17.084,17.084,0,0,1-5.232-12.292,16.9,16.9,0,0,1,1.2-6.234A20.238,20.238,0,0,0,4780.579,474.071Z" transform="translate(-4762.738 -457.507)" fill="#a69258"/>
      <path id="パス_5550" data-name="パス 5550" d="M4820.964,580.39l-7.011-1.735,3.227,6.24Z" transform="translate(-4794.035 -533.28)" fill="#a69258"/>
      <path id="パス_5551" data-name="パス 5551" d="M4837.359,584.895l3.443-6.24-7.01,1.735Z" transform="translate(-4806.434 -533.28)" fill="#a69258"/>
    </g>
  </g>
</svg>
