<svg xmlns="http://www.w3.org/2000/svg" width="60" height="60" viewBox="0 0 60 60">
  <g id="merit02" transform="translate(-628.938 -1351)">
    <path id="パス_5567" data-name="パス 5567" d="M3956.539,897.477a22.347,22.347,0,0,0,3.824-2.789,24.419,24.419,0,0,0,5.859-8.171,44.415,44.415,0,0,1,5.923,1.823,28.129,28.129,0,0,1-15.606,9.137m-26.8-9.078c2.046-.655,4.043-1.2,5.982-1.65a24.492,24.492,0,0,0,5.748,7.939,22.369,22.369,0,0,0,3.825,2.789,28.131,28.131,0,0,1-15.555-9.078m14.587-45.81a22.028,22.028,0,0,0-3.024,2.464,25.408,25.408,0,0,0-5.324,7.65,46.555,46.555,0,0,1-5.817-1.727,28.132,28.132,0,0,1,14.165-8.388m27.271,8.305q-3,.937-5.848,1.575a25.3,25.3,0,0,0-5.216-7.416,22.059,22.059,0,0,0-3.024-2.464,28.138,28.138,0,0,1,14.089,8.305m-2.317,18.088a43.557,43.557,0,0,0-2.771-14.759c2.078-.481,4.219-1.069,6.415-1.78a27.977,27.977,0,0,1,6.094,16.539Zm.018,1.882h9.72a27.968,27.968,0,0,1-5.633,15.946,41.8,41.8,0,0,0-6.433-2.059,40.84,40.84,0,0,0,2.346-13.887m-8.463,12.731a66.376,66.376,0,0,0-8.979-.6V870.865h15.567a38.114,38.114,0,0,1-2.32,13.468c-1.293-.271-2.717-.524-4.269-.737m-8.979,1.281a64.38,64.38,0,0,1,8.64.574c1.387.188,2.672.411,3.85.652a22.53,22.53,0,0,1-5.159,7.121,19.768,19.768,0,0,1-7.331,4.28Zm-1.876.025v12.6a19.647,19.647,0,0,1-7.252-4.21,22.424,22.424,0,0,1-5.127-6.957,71.338,71.338,0,0,1,12.379-1.438m-15.568-14.036h15.568v12.153a73.307,73.307,0,0,0-13.152,1.558,37.858,37.858,0,0,1-2.416-13.711m-1.874,0a39.588,39.588,0,0,0,2.438,14.125c-2.108.5-4.281,1.106-6.51,1.841a27.96,27.96,0,0,1-5.648-15.967Zm.018-1.882h-9.738a27.973,27.973,0,0,1,6.05-16.486,44.605,44.605,0,0,0,6.363,1.968,43.778,43.778,0,0,0-2.675,14.517M3941,855.538a66.425,66.425,0,0,0,8.98.6v12.843h-15.549a40.928,40.928,0,0,1,2.654-14.11c1.2.244,2.5.471,3.915.665m8.98-1.28a64.366,64.366,0,0,1-8.641-.574c-1.241-.169-2.4-.366-3.475-.576a23.475,23.475,0,0,1,4.66-6.626,18.441,18.441,0,0,1,7.456-4.572Zm1.876-.025V841.908a18.274,18.274,0,0,1,7.37,4.491,23.308,23.308,0,0,1,4.63,6.471,71.234,71.234,0,0,1-12,1.362m0,1.88a73.224,73.224,0,0,0,12.795-1.485,40.643,40.643,0,0,1,2.754,14.354h-15.548Zm-.938-16.189a30,30,0,1,0,30,30,30.034,30.034,0,0,0-30-30" transform="translate(-3291.977 511.076)" fill="#a69258"/>
  </g>
</svg>
