<svg id="merit01" xmlns="http://www.w3.org/2000/svg" xmlns:xlink="http://www.w3.org/1999/xlink" width="71.16" height="60" viewBox="0 0 71.16 60">
  <defs>
    <clipPath id="clip-path">
      <rect id="長方形_4358" data-name="長方形 4358" width="71.16" height="60" transform="translate(0 0)" fill="#a69258"/>
    </clipPath>
  </defs>
  <g id="グループ_3223" data-name="グループ 3223" transform="translate(0 0)" clip-path="url(#clip-path)">
    <path id="パス_5525" data-name="パス 5525" d="M3405.846,506.857v33.394h62.942V506.937a6.43,6.43,0,0,0,4.188-5.9l-2.586-20.788H3404.4l-2.586,20.788a6.4,6.4,0,0,0,4.03,5.818m50.159-19.184v13.366a4.041,4.041,0,0,1-4.178,3.877h-.4a4.041,4.041,0,0,1-4.177-3.877V487.673Zm-28.464,0v13.366a4.041,4.041,0,0,1-4.177,3.877h-.4a4.041,4.041,0,0,1-4.177-3.877V487.673ZM3409.5,536.859V507.425a6.742,6.742,0,0,1,13.467.035h.4a6.936,6.936,0,0,1,13.834,0h.4a6.936,6.936,0,0,1,13.834,0h.4a6.659,6.659,0,0,1,13.308-.05v29.448h-3.349V513.114h-17.96v23.745Zm37.98-20.353h10.654v20.353h-10.654Z" transform="translate(-3401.816 -480.251)" fill="#a69258"/>
    <path id="パス_5526" data-name="パス 5526" d="M3441.175,602.581h24.353V586.468h-24.353Zm3.653-12.721h17.046v9.328h-17.046Z" transform="translate(-3428.997 -553.605)" fill="#a69258"/>
  </g>
</svg>
