<?xml version="1.0" encoding="UTF-8"?>
<svg xmlns="http://www.w3.org/2000/svg" version="1.1" viewBox="0 0 102 52">
  <!-- Generator: Adobe Illustrator 28.7.1, SVG Export Plug-In . SVG Version: 1.2.0 Build 142)  -->
  <g>
    <g id="_レイヤー_1" data-name="レイヤー_1">
      <g id="_レイヤー_1-2" data-name="_レイヤー_1">
        <g>
          <path d="M82.33,35.51h-.21s-.86-2.94-1.12-4c1.16,0,1.55,1.31,2.43,2.36.6.72,1.47,1.32,2.26,1.32,1.99,0,2.57-1.69,2.53-2.96-.04-1.37-1.12-2.1-3.26-3.75-1.74-1.34-3.63-2.7-3.63-4.88s2-3.8,4.58-3.8c1.49,0,1.65.3,2.41.3.51,0,.73-.22.73-.22,0,.05.16,0,.16,0,0,0,.3,1.76.53,2.14-.36.05-.92.32-1.64-.66-.63-.84-1.06-1.21-2.06-1.21-1.69,0-2.6,1.87-2.33,3.16.26,1.28,1.17,2.13,2.5,3.24,1.68,1.4,4.31,2.48,4.31,4.9s-1.91,4.14-4.79,4.14c-1.24,0-1.99-.63-2.71-.63-.76,0-.69.54-.69.54"/>
          <path d="M58.63,21.7c0-1.33.39-1.58.75-1.58v-.13h-3.95v.13c.36,0,.75.25.75,1.58v11.91c0,1.48-.32,1.86-.75,1.86v.14h8.7c1.34,0,1.71-1.74,1.71-1.74h-.15s-.34.67-2.26.67h-4.8s0-12.84,0-12.84Z"/>
          <path d="M52.23,33.87s-.34.67-2.27.67h-4.79v-6.62h2.22c.86,0,2.22.36,2.22.88h.14v-2.9h-.14c0,.52-1.36.89-2.22.89h-2.22v-5.25c0-.84.37-.98.77-.98h3.33c1.71,0,1.76-.59,1.76-.59h-9.06v.13c.36,0,.75.25.75,1.58v11.91c0,1.47-.32,1.87-.75,1.87v.13h8.7c1.34,0,1.71-1.74,1.71-1.74h-.14v.02Z"/>
          <path d="M93.79,35.51h-.2s-.87-2.94-1.12-4c1.16,0,1.55,1.31,2.42,2.36.6.72,1.47,1.32,2.27,1.32,1.99,0,2.57-1.69,2.53-2.96-.05-1.37-1.13-2.1-3.26-3.75-1.74-1.34-3.63-2.7-3.63-4.88s2-3.8,4.58-3.8c1.49,0,1.65.3,2.42.3.5,0,.72-.22.72-.22,0,.05.16,0,.16,0,0,0,.3,1.76.53,2.14-.36.05-.91.32-1.64-.66-.62-.84-1.06-1.21-2.06-1.21-1.69,0-2.6,1.87-2.33,3.16.26,1.28,1.17,2.13,2.5,3.24,1.68,1.4,4.32,2.48,4.32,4.9s-1.92,4.14-4.79,4.14c-1.24,0-1.99-.63-2.71-.63-.76,0-.7.54-.7.54"/>
          <path d="M38.14,20.12v-.13c-2.07,0-2.88.32-3.82,1.64-1.01,1.41-3,3.88-3.62,4.72,0,.04-.02.04-.02,0-.61-.84-2.61-3.3-3.61-4.72-.94-1.32-1.76-1.64-3.82-1.64v.13c.65,0,.77.8.77,1.6v12.17c0,1.17-.19,1.59-.75,1.59v.13h3.56v-.13c-.44,0-.81-.28-.81-1.59v-11.13l4.59,5.79h.18l4.6-5.79v11.13c0,1.31-.53,1.59-.82,1.59v.13h3.62v-.13c-.46,0-.81-.52-.81-1.59v-12.17c0-.8.12-1.6.78-1.6"/>
          <path d="M78.7,33.87s-.34.67-2.27.67h-4.79v-6.62h2.23c.85,0,2.21.36,2.21.88h.15v-2.9h-.15c0,.52-1.36.89-2.21.89h-2.23v-5.25c0-.84.37-.98.78-.98h3.33c1.71,0,1.76-.59,1.76-.59h-9.07v.13c.37,0,.76.25.76,1.58v11.91c0,1.47-.32,1.87-.76,1.87v.13h8.7c1.33,0,1.71-1.74,1.71-1.74h-.14v.02Z"/>
          <path d="M18.4,21.7c0-1.33.39-1.58.76-1.58v-.13h-3.8v.13c.36,0,.75.25.75,1.58v12.19c0,1.33-.39,1.58-.75,1.58v.14h3.8v-.14c-.37,0-.76-.25-.76-1.58v-12.19Z"/>
          <path d="M0,19.99v2.91h.13c.52-2.06,4.19-2.25,4.8-2.25v13.24c0,1.34-.38,1.59-.75,1.59v.13h3.8v-.13c-.37,0-.76-.25-.76-1.59v-13.24c.78,0,4.29.19,4.8,2.25h.14v-2.91H0Z"/>
          <path d="M36.5,46.87c-.31.62-.66,1.22-1.06,1.77.31.27.51.55.65.86.04.07.04.14.04.2,0,.23-.16.41-.34.41-.14,0-.27-.1-.34-.32-.08-.21-.18-.4-.38-.67-.95,1.17-2.24,2.06-4.22,2.69-.04,0-.07,0-.11,0-.09,0-.07-.07.08-.14,1.7-.81,2.97-1.83,3.88-3-.34-.34-.72-.7-1.13-.93-.09-.05-.14-.1-.14-.13,0-.02.02-.02.05-.02.04,0,.08,0,.15.02.45.15.93.4,1.36.68.42-.6.76-1.24.99-1.9,0-.04.03-.07.03-.11,0-.03-.02-.04-.08-.04h-.08c-.37.06-.84.1-1.14.1h-.16c-.21-.03-.31-.16-.35-.28-.57,1.06-1.27,2.14-2.72,3.01-.07.03-.11.05-.14.05-.01,0-.02,0-.02-.02,0-.03.04-.07.11-.15,1.14-1.02,2.03-2.5,2.26-3.31.05-.15.08-.26.08-.36,0-.19-.09-.32-.3-.49-.05-.04-.08-.07-.08-.09,0-.03.04-.05.13-.06h.05c.5,0,1.08.37,1.08.63v.04c-.05.18-.1.1-.24.35-.03.06-.11.23-.18.32.06,0,.13,0,.2,0,.36,0,.9-.08,1.3-.14.32-.04.33-.15.49-.15.28,0,.77.45.77.66s-.33.18-.48.47"/>
          <path d="M43.86,46.04c-.34.38-.73.71-1.41,1.29.33.1.61.28.63.47v.03c0,.13-.09.21-.11.42-.03.44-.04.84-.04,1.17,0,.99.11,1.54.11,2v.15c-.02.28-.18.49-.36.49s-.35-.2-.4-.75v-.06c0-.32.17-.54.17-2.04,0-.3,0-.66-.02-1.07,0-.32-.04-.44-.18-.61-.88.76-2.07,1.59-3.29,2.15,0,.02-.02.02-.05.02s-.06.02-.08.02c0,0-.04,0-.04-.02s.04-.05.11-.11c1.74-1.22,3.69-2.86,4.32-3.81.15-.22.21-.38.21-.55,0-.13-.03-.24-.1-.4-.02-.04-.02-.09-.02-.11,0-.04,0-.05.06-.05.03,0,.05,0,.09,0,.49.15.87.76.87.98v.03c-.06.2-.25.09-.5.39"/>
          <path d="M53.04,50.62c0,.31-.19.47-.39.47-.16,0-.32-.11-.39-.34-.05-.2-.13-.57-.29-.89-1.46.43-3.11.84-4.55,1.2-.23.06-.29.22-.46.22h0c-.28,0-.62-.62-.65-1.14v-.02c0-.08.03-.11.06-.11.04,0,.1.04.14.1.16.25.3.35.61.35.16,0,.35-.03.61-.07.62-1.47,1.21-3.12,1.51-4.24.03-.14.05-.26.05-.39,0-.21-.06-.41-.25-.59-.04-.04-.07-.09-.07-.11s.02-.04.08-.04h.06c.39.04,1.17.51,1.17.83v.04c-.03.2-.24.15-.36.44-.57,1.34-1.12,2.51-1.94,4.02,1.01-.14,2.61-.35,3.93-.6-.27-.51-.63-.99-1.17-1.48-.06-.06-.09-.1-.09-.14,0-.02.02-.04.04-.04.04,0,.07.02.13.04,1.16.63,1.91,1.57,2.13,2.16.05.12.06.22.06.31"/>
          <path d="M56.81,50.72c-.22.11-.25.44-.48.46h0c-.29,0-.62-.59-.61-.77,0-.23.14-.16.16-.63.02-.46.04-1.08.04-1.83,0-.37,0-.78,0-1.21,0-.47-.24-.67-.47-.81-.08-.04-.11-.08-.11-.11s.06-.05.17-.06h.03c.56,0,1.21.44,1.2.67,0,.28-.18.16-.21.52-.08,1.26-.12,1.98-.15,2.94v.06c0,.08.04.13.1.13.03,0,.06,0,.1,0,1.7-.51,3.75-1.87,4.8-3.38.07-.09.12-.14.15-.14.02,0,.04.02.04.05,0,.05,0,.09-.06.17-1.03,1.86-2.69,3.06-4.66,3.96"/>
          <path d="M68.99,50.75c0,.22-.15.34-.33.34-.15,0-.33-.09-.45-.31-.41-.75-1.24-1.54-2.25-2.1-.88,1.03-2.07,1.96-3.6,2.53-.05,0-.09.02-.12.02-.04,0-.06,0-.06-.03,0-.02.04-.07.14-.12,2.12-1.04,3.9-3.24,4.45-4.91.02-.04.03-.07.03-.1s-.03-.05-.07-.05h-.1c-.39.04-1.1.18-1.76.32-.27.07-.53.23-.7.23h-.02c-.2,0-.64-.42-.67-.91v-.05s0-.08.03-.08c.02,0,.05.02.08.04.28.21.61.29.96.29h.24c.52-.05,1.19-.1,1.88-.24.32-.05.31-.16.48-.16.21,0,.71.31.71.57,0,.02-.01.04-.01.05-.04.19-.33.1-.42.3-.33.69-.78,1.44-1.39,2.17,1.25.41,2.6,1.29,2.87,1.87.05.12.08.22.08.31"/>
        </g>
        <g>
          <path d="M8.49,6.34c-.41.12-.5.14-.91.24-.04.28-.12.42-.22.42-.12,0-.19-.27-.42-1.61.28.01.42.03.54.03.06,0,.15,0,.28-.01h.42c.5-.7.79-1.16,1.01-1.56.67-1.22,1.05-1.98,1.16-2.27,1.49.65,1.57.69,1.57.81s-.15.18-.54.18c-1.03,1.27-1.76,2.03-2.7,2.82.65-.01.86-.03,1.85-.12-.13-.45-.2-.63-.45-1.09l.09-.05c1.12.77,1.52,1.2,1.52,1.67s-.37.95-.7.95c-.14,0-.19-.09-.23-.35-.05-.33-.08-.5-.13-.73-.06.02-.15.05-.27.08-.18.05-.15.05-.35.12v2.81c0,1.36.02,2.31.04,2.86v.04c0,.24-.17.29-.91.29-.31,0-.37-.04-.37-.28.05-1.71.05-1.76.05-2.75v-.97c-.09.01-.13.03-.23.04-.59,1.88-.83,2.42-1.61,3.46l-.14-.08c.4-1.34.64-2.9.66-4.15.78.2,1.01.27,1.32.37v-1.29l-.36.12h.03ZM7.11,1.8c.54.24.72.33.95.46.4-.79.63-1.46.79-2.22,1.78.54,1.83.56,1.83.7s-.18.2-.55.2c-.73.75-1.01,1.01-1.7,1.53.51.35.65.54.65.86,0,.51-.37,1-.74,1-.14,0-.22-.08-.28-.28-.32-1.06-.5-1.46-1.01-2.15,0,0,.06-.1.06-.1ZM10.22,6.74c.87.61,1.29,1.14,1.29,1.62s-.35.98-.68.98c-.17,0-.23-.14-.24-.5-.03-.89-.14-1.41-.43-2.03l.06-.08h0ZM12.23,7.91c.13.56.17.8.17,1.24,0,1.05-.52,1.93-1.12,1.93-.33,0-.56-.36-.56-.87,0-.23.06-.37.23-.5.03-.03.14-.1.33-.23.47-.29.68-.72.79-1.59h.17v.02ZM11.1,4.43c.97-1.44,1.55-2.75,1.83-4.17.36.13.66.23.84.29.65.22.87.32.87.43,0,.13-.14.18-.51.22-.96,1.61-1.48,2.21-2.91,3.35l-.12-.13h0ZM15.63,3.72c1.79.96,2.24,1.35,2.24,1.97,0,.54-.38,1.07-.77,1.07-.17,0-.24-.09-.31-.31-.1-.42-.19-.68-.31-.98-.63.22-2.12.58-3.8.92-.12.33-.19.43-.29.43-.09,0-.26-.55-.51-1.66.49.05.68.06.98.06h.24c.43-.89.83-2.12,1-3.08,1.7.41,1.76.43,1.76.59,0,.13-.15.19-.55.22-.6,1.01-1.11,1.69-1.67,2.25.47,0,2.01-.06,2.66-.12-.24-.49-.37-.7-.78-1.28l.1-.09h0ZM12.89,8.56c0-.41-.01-.66-.06-1.21.37.05.66.09.86.12.69.08.87.13.87.26,0,.12-.14.2-.46.27v2.15c0,.15.01.2.05.23.06.05.09.05.91.05.63,0,.69-.01.83-.2.14-.2.37-.73.68-1.64h.14l-.04,1.29v.09c0,.19.03.23.19.31.28.12.4.27.4.51,0,.33-.19.56-.55.65-.33.09-.86.12-2.02.12-1.01,0-1.25-.03-1.46-.13-.24-.12-.33-.31-.34-.73,0-.55.01-1,.01-1.33v-.81ZM13.81,6.48c1.7.47,2.2.78,2.2,1.35,0,.46-.35.96-.66.96-.13,0-.22-.09-.32-.32-.37-.87-.6-1.2-1.29-1.88l.08-.12h-.01ZM15.79.14c-.03.09-.03.13-.03.15,0,.36.37.96.88,1.44.63.59,1.33.93,2.38,1.19v.15c-.28.17-.38.27-.52.55-.1.19-.19.45-.23.6-.03.12-.05.17-.12.17-.14,0-.45-.23-.88-.64-.7-.69-1.14-1.47-1.69-2.95-.12-.31-.15-.38-.27-.52l.47-.14h.01ZM16.85,7.68c1.42.83,2.04,1.47,2.04,2.08s-.45,1.23-.84,1.23c-.1,0-.18-.05-.23-.14-.04-.06-.05-.09-.09-.4-.18-1.07-.45-1.76-1-2.67l.12-.1Z"/>
          <path d="M19.98,6.19c1.35-1.02,2.27-1.92,3.26-3.21.82-1.07,1.37-2.03,1.64-2.9,2.12.45,2.2.47,2.2.64,0,.13-.18.2-.58.26.65.97,1.47,1.67,2.61,2.29,1.01.54,2.11.92,3.18,1.09v.17c-.55.18-.84.52-1.14,1.39-.03.09-.09.13-.15.13-.12,0-.52-.22-1.05-.55-1.67-1.1-2.58-2.19-3.63-4.34-.96,1.52-1.71,2.36-3,3.35-1.05.81-1.85,1.27-3.26,1.84l-.08-.14v-.02ZM23.5,11.4c0,.19-.05.28-.2.35-.1.04-.52.09-.84.09-.36,0-.47-.08-.47-.31v-.09c.04-.96.06-1.94.06-3.11s-.01-1.66-.05-2.21c.75.32.97.43,1.69.82h4.59l.77-.84c.5.35.65.46,1.12.83.12.1.17.17.17.22,0,.12-.1.19-.47.36,0,1.66.01,2.25.06,3.85v.08c0,.14-.05.22-.18.27-.13.05-.63.12-.92.12-.32,0-.42-.08-.42-.28v-.54h-4.89v.41l-.02-.02ZM23.12,4.77c.35.06.63.1.86.1h2.47l.88-1.02c.63.46.81.6,1.41,1.09.05.06.08.09.08.13,0,.05-.05.08-.17.08h-4.7c-.24,0-.41.01-.72.08l-.1-.45h-.01ZM23.5,10.72h4.89v-3.51h-4.89v3.51Z"/>
          <path d="M33.2,11.85c1.15-.45,1.87-.82,2.72-1.41.59-.41.83-.61,1.1-.95,1.56.54,1.84.66,1.84.81s-.12.17-.64.19c-1.76.92-2.68,1.2-4.97,1.48l-.05-.13h0ZM35.58,3.76c.41.17.61.26,1.18.55h4.95c.28-.28.37-.37.64-.63.51.31.66.4,1.12.72.1.08.15.14.15.2,0,.1-.1.19-.42.35v.82c0,1.28.03,2.56.06,3.53,0,.12,0,.15-.04.2-.08.1-.38.15-.91.15-.45,0-.51-.03-.51-.2v-.23h-5.19v.27c0,.12-.04.17-.12.2-.14.06-.43.1-.82.1-.45,0-.51-.04-.52-.29.05-1.38.06-2.24.06-3.54,0-1.01,0-1.55-.05-2.04-.23.03-.36.03-.54.03-.37,0-.45-.04-.45-.26.04-.89.05-1.23.05-2.15,0-.46,0-.79-.05-1.38.66.27.88.37,1.57.7h6.91c.32-.33.42-.42.74-.73.46.31.61.41,1.06.75.12.1.17.17.17.22,0,.12-.12.22-.45.37v.58c0,.4,0,.87.05,1.51,0,.13-.03.19-.1.24-.1.06-.45.12-.88.12s-.46-.03-.46-.24v-.31h-7.21v.4h0ZM35.59,1.12v1.97h1.47v-1.97s-1.47,0-1.47,0ZM41.8,5.79v-1.21h-5.19v1.21h5.19ZM36.62,6.06v1.25h5.19v-1.25h-5.19ZM36.62,7.58v1.37h5.19v-1.37h-5.19ZM38.39,3.09h1.52v-1.97h-1.52v1.97ZM40.03,9.66c2.31.22,3,.32,3.68.6.49.19.7.51.7,1.02,0,.42-.2.74-.46.74-.17,0-.28-.06-.55-.28-1.05-.87-2.06-1.44-3.41-1.94,0,0,.04-.14.04-.14ZM41.24,3.09h1.56v-1.97h-1.56v1.97Z"/>
          <path d="M52.22,7.87c0,.15,0,1.37.04,3.67-.03.27-.2.33-1,.33-.35,0-.43-.05-.45-.26.03-1.61.05-2.63.05-3.07v-.06c-1.1.57-2.1,1.03-3.32,1.52-.06.49-.09.56-.22.56-.14,0-.2-.18-.69-1.87.51-.04.65-.05,1.15-.12V1.24h-.24c-.37,0-.54,0-.82.06l-.06-.46c.32.09.59.13.92.13h4.22C52.2.54,52.31.41,52.71,0c.59.42.77.56,1.33,1.04.06.06.09.1.09.13,0,.05-.05.08-.13.08h-1.78v6.63h0ZM49.16,1.24v2.13h1.71V1.24h-1.71ZM49.16,3.64v2.08h1.71v-2.08s-1.71,0-1.71,0ZM49.16,5.99v2.38c.48-.08,1.05-.19,1.71-.33v-2.04h-1.71ZM58.86,10.1c-.56.22-.73.4-1.1,1.24-.04.08-.08.12-.15.12s-.27-.1-.5-.28c-.73-.54-1.3-1.14-1.85-1.94-.72.93-1.57,1.67-2.75,2.4l-.09-.13c.91-.96,1.58-1.94,2.25-3.27-.5-.97-.84-1.95-1.09-3.11-.19-.89-.23-1.2-.36-2.67h-.22c-.19,0-.29,0-.51.04l-.08-.4c.28.08.4.09.59.09h3.19c.33-.4.43-.52.78-.92.52.42.68.55,1.18.96.13.12.19.18.19.24,0,.11-.15.22-.55.37-.41,2.27-.96,3.87-1.84,5.37.88.86,1.61,1.28,2.93,1.74l-.03.15h.01ZM53.48,2.45c.13,1.05.24,1.57.52,2.45.31.92.66,1.66,1.11,2.31.36-.91.5-1.35.7-2.24.23-.98.34-1.65.45-2.53h-2.79,0Z"/>
          <path d="M63.77,11.51c1.11-.68,1.96-1.61,2.43-2.7.46-1.05.64-2.22.66-4.17-.75.03-1.53.13-2.58.33v.69c0,.41.01,1.38.03,1.8v.08c0,.66-.17.97-.52.97-.22,0-.43-.17-.65-.47-.17-.26-.28-.55-.28-.75,0-.1.03-.18.09-.36.14-.36.2-.83.22-1.7-.58.12-.91.24-1.35.49-.18.09-.37.15-.51.15-.32,0-.81-.42-1.15-1.01-.14-.24-.23-.51-.23-.66,0-.04,0-.09.03-.15.37.46.73.65,1.24.65.32,0,1.07-.1,1.97-.28,0-.75-.06-1.51-.15-1.8-.13-.4-.37-.64-.89-.88.15-.1.26-.13.42-.13.42,0,1.1.24,1.56.55.33.22.45.38.45.6,0,.13-.01.17-.09.4-.08.22-.14.68-.15,1.1.45-.08.77-.13,1.32-.19.1,0,.4-.04.91-.1.12,0,.24-.02.36-.04.01-.19.01-.52.01-1.01,0-.91-.06-1.29-.26-1.52-.2-.24-.45-.38-.93-.5.19-.14.33-.18.61-.18.51,0,1.11.14,1.61.38.38.18.55.37.55.63,0,.1-.01.15-.08.31-.18.4-.23.74-.28,1.74.72-.05,1.02-.1,1.42-.28.18-.08.23-.09.35-.09.23,0,.58.13.89.33.32.2.47.4.47.6,0,.22-.17.38-.41.38-.05,0-.12,0-.2-.01-.63-.06-1.34-.09-2.13-.09h-.41c-.04,1.48-.08,2.01-.18,2.63-.26,1.57-.89,2.58-2.21,3.49-.6.42-1.1.66-1.83.89l-.09-.12h-.04Z"/>
          <path d="M73.42,2.4c.38,0,1.1.26,1.8.65.27,0,2.22-.24,4.08-.46,1.06-.13,1.15-.15,1.46-.32.13-.08.19-.1.29-.1.22,0,.58.2.95.54.41.36.61.66.61.88,0,.13-.03.17-.27.52-.14.19-.17.29-.47,1.43-.56,2.13-.61,2.33-.69,2.66.49.26.73.54.73.84,0,.23-.15.37-.41.37-.14,0-.23-.01-.59-.05-.5-.06-1.16-.1-1.88-.1-1.11,0-2.19.08-3.25.23v.2c0,.6-.12.82-.45.82-.27,0-.56-.27-.81-.74-.17-.29-.24-.55-.24-.78,0-.05,0-.08.06-.33.06-.31.09-.59.09-.98,0-1.43-.22-3.55-.42-4.1-.18-.49-.51-.84-1.02-1.1.17-.06.2-.08.42-.08h0ZM75.73,8.59c.55-.03,3.54-.28,4.23-.35.4-2.33.55-3.37.7-4.88-.92,0-3.85.27-5.24.49.12,2.03.27,4.35.31,4.74Z"/>
          <path d="M85.42,2.02c1.43.23,2.2.45,2.8.83.42.26.63.61.63,1.1,0,.6-.29,1.06-.69,1.06-.22,0-.35-.1-.54-.43-.61-1.11-1.27-1.8-2.26-2.42,0,0,.06-.14.06-.14ZM95.13,2.76c-.7,1.47-1.58,2.68-2.88,3.96-1.14,1.12-2.08,1.87-3.71,2.91-.33.22-.56.4-.69.56-.18.22-.35.32-.54.32-.33,0-.81-.36-1.25-.93-.41-.52-.61-1.01-.61-1.42,0-.12.01-.18.06-.35.35.59.77.95,1.11.95.54,0,2.21-.88,3.73-1.97,1.9-1.37,3.53-2.8,4.61-4.12l.15.08h.02Z"/>
        </g>
      </g>
    </g>
  </g>
</svg>