<?xml version="1.0" encoding="utf-8"?>
<!-- Generator: Adobe Illustrator 25.2.1, SVG Export Plug-In . SVG Version: 6.00 Build 0)  -->
<svg version="1.1" id="レイヤー_1" xmlns="http://www.w3.org/2000/svg" xmlns:xlink="http://www.w3.org/1999/xlink" x="0px"
	 y="0px" viewBox="0 0 279 283.82" style="enable-background:new 0 0 279 283.82;" xml:space="preserve">
<style type="text/css">
	.st0{fill:#FFFFFF;}
</style>
<g>
	<path class="st0" d="M104.4,60.2L104.4,60.2v0.2c0,0-2.92,0.87-3.97,1.13c0-1.17,1.3-1.56,2.34-2.45c0.71-0.61,1.31-1.5,1.31-2.29
		c0-2.02-1.68-2.61-2.95-2.55c-1.36,0.03-2.08,1.12-3.72,3.28c-1.32,1.77-2.68,3.69-4.84,3.69c-2.11,0-3.76-2.03-3.76-4.64
		c0-1.51,0.3-1.66,0.3-2.45c0-0.51-0.22-0.72-0.22-0.72c0.06,0,0-0.18,0-0.18s1.75-0.3,2.12-0.53c0.06,0.36,0.31,0.93-0.65,1.67
		c-0.84,0.62-1.2,1.08-1.2,2.08c0,1.71,1.85,2.62,3.14,2.34c1.27-0.27,2.12-1.17,3.22-2.52c1.38-1.7,2.45-4.37,4.88-4.37
		c2.51,0,4.1,1.93,4.1,4.85c0,1.26-0.63,2.03-0.63,2.75C103.87,60.26,104.4,60.2,104.4,60.2"/>
	<path class="st0" d="M138.24,104.57c0,1.25-0.36,1.49-0.71,1.49v0.14h3.71v-0.14c-0.33,0-0.71-0.24-0.71-1.49V93.38
		c0-1.39,0.31-1.75,0.71-1.75V91.5h-8.17c-1.27,0-1.61,1.63-1.61,1.63h0.14c0,0,0.33-0.64,2.13-0.64h4.51V104.57z"/>
	<path class="st0" d="M158.73,84.11c0,0-0.22-0.68,1.07-1.98c1.01-1.01,2.59-2.61,3.19-3.21c0,0,2.19,2.21,4.36,4.41
		c-0.29,0.29-0.53,0.55-1.48,1.47c-0.57,0.58-1.71,1.27-2.05,0.9c-0.08,0.09-0.1,0.1-0.1,0.1l1.9,1.94c0,0,0.02-0.03,0.1-0.1
		c-0.34-0.36,0.32-1.51,0.88-2.08c0.95-0.95,1.19-1.2,1.49-1.49c1.67,1.69,3.19,3.21,3.43,3.49c0.56,0.55,0.4,0.91,0.14,1.17
		c-0.75,0.75-1.47,1.49-2.22,2.24c-1.12,1.15-0.79,1.57-0.79,1.57l6.03-6.09l-0.1-0.07c-0.23,0.22-0.66,0.33-1.53-0.56l-7.83-7.91
		c-0.97-0.99-1.01-1.45-0.73-1.73l-0.09-0.1c0,0-5.03,5.1-5.78,5.84c-0.9,0.9,0,2.3,0,2.3L158.73,84.11z"/>
	<path class="st0" d="M111.13,35.77L111.13,35.77l-0.15,0.13c0,0-2.54-1.69-3.41-2.35c0.89-0.75,2.02,0,3.36,0.25
		c0.92,0.16,1.98,0.05,2.59-0.45c1.53-1.29,0.9-2.97,0.05-3.92c-0.9-1.04-2.19-0.89-4.88-0.77c-2.19,0.1-4.51,0.28-5.91-1.41
		c-1.36-1.62-0.86-4.21,1.11-5.89c1.15-0.96,1.46-0.82,2.06-1.33c0.38-0.34,0.42-0.63,0.42-0.63c0.03,0.02,0.13-0.12,0.13-0.12
		s1.33,1.17,1.77,1.32c-0.25,0.27-0.51,0.82-1.69,0.55c-1.01-0.24-1.6-0.24-2.35,0.39c-1.31,1.12-0.82,3.14,0.21,3.97
		c1.01,0.8,2.26,0.88,3.99,0.86c2.17,0,4.9-0.88,6.44,1c1.61,1.95,1.15,4.43-1.06,6.3c-0.95,0.8-1.93,0.8-2.49,1.26
		C110.75,35.42,111.13,35.77,111.13,35.77"/>
	<path class="st0" d="M182.89,63.76h0.12c0-1.97-0.31-2.73-1.53-3.62c-1.32-0.97-3.62-2.86-4.4-3.43c-0.03-0.01-0.03-0.01,0-0.01
		c0.78-0.59,3.08-2.48,4.4-3.44c1.23-0.9,1.53-1.68,1.53-3.63h-0.12c0,0.62-0.75,0.74-1.49,0.74h-11.32c-1.1,0-1.48-0.19-1.48-0.71
		l-0.12-0.02v0.02v3.37h0.12c0-0.42,0.25-0.77,1.48-0.77h10.36l-5.4,4.35v0.16l5.4,4.38h-10.36c-1.23,0-1.48-0.52-1.48-0.79h-0.12
		v3.43h0.12c0-0.42,0.49-0.78,1.48-0.78h11.32C182.15,63.02,182.89,63.14,182.89,63.76"/>
	<path class="st0" d="M108.34,76.7c0,0,0.69-0.17,1.86,1.23c0.92,1.09,2.37,2.81,2.92,3.46c0,0-2.36,2.03-4.69,4.03
		c-0.26-0.31-0.49-0.59-1.35-1.6c-0.53-0.62-1.1-1.82-0.74-2.14c-0.06-0.07-0.08-0.1-0.08-0.1l-2.05,1.75
		c0,0.01,0.03,0.03,0.08,0.12c0.38-0.33,1.46,0.43,1.99,1.05c0.86,1.02,1.1,1.29,1.36,1.6c-1.81,1.56-3.44,2.97-3.71,3.21
		c-0.6,0.52-0.92,0.33-1.18,0.04c-0.67-0.82-1.35-1.6-2.03-2.4c-1.05-1.25-1.49-0.92-1.49-0.92l5.53,6.55l0.1-0.09
		c-0.22-0.25-0.29-0.69,0.66-1.51l8.42-7.25c1.05-0.9,1.51-0.9,1.79-0.6l0.1-0.07c0,0-4.64-5.47-5.31-6.28
		c-0.82-0.97-2.27-0.18-2.27-0.18L108.34,76.7z"/>
	<path class="st0" d="M169.88,25.19c0.88-0.9,1.29-0.81,1.54-0.56l0.08-0.1l-2.51-2.56l-0.1,0.11c0.25,0.25,0.34,0.65-0.53,1.55
		l-8.03,8.1c-0.87,0.89-1.3,0.8-1.53,0.55l-0.1,0.08l2.53,2.56l0.08-0.08c-0.23-0.25-0.34-0.68,0.55-1.57L169.88,25.19z"/>
	<path class="st0" d="M130.65,9.17v2.74h0.12c0.49-1.94,3.95-2.12,4.53-2.12v12.45c0,1.25-0.36,1.48-0.71,1.48v0.13h3.58v-0.13
		c-0.34,0-0.71-0.23-0.71-1.48V9.79c0.72,0,4.04,0.17,4.52,2.12h0.12V9.17H130.65z"/>
	<path class="st0" d="M136.37,113.44c-30.96,0-56.14-25.46-56.14-56.73S105.4,0,136.37,0c30.95,0,56.13,25.43,56.13,56.71
		S167.32,113.44,136.37,113.44 M136.37,2.23c-29.75,0-53.94,24.43-53.94,54.48s24.19,54.49,53.94,54.49
		c29.74,0,53.93-24.44,53.93-54.49S166.1,2.23,136.37,2.23"/>
	<path class="st0" d="M225.2,242.16L225.2,242.16h-0.57c0,0-2.36-8.05-3.06-10.95c3.18,0,4.25,3.57,6.65,6.45
		c1.63,1.97,4.03,3.6,6.19,3.6c5.45,0,7.03-4.62,6.92-8.1c-0.11-3.76-3.06-5.73-8.91-10.25c-4.75-3.67-9.94-7.39-9.94-13.34
		c0-5.83,5.48-10.38,12.52-10.38c4.07,0,4.51,0.82,6.6,0.82c1.4,0,1.99-0.6,1.99-0.6c0,0.12,0.45,0,0.45,0s0.81,4.81,1.44,5.85
		c-0.98,0.15-2.51,0.88-4.49-1.81c-1.71-2.3-2.91-3.3-5.64-3.3c-4.64,0-7.12,5.11-6.37,8.65c0.72,3.49,3.2,5.84,6.83,8.87
		c4.58,3.82,11.78,6.77,11.78,13.41c0,6.93-5.23,11.33-13.1,11.33c-3.39,0-5.45-1.73-7.41-1.73
		C225.02,240.7,225.2,242.16,225.2,242.16"/>
	<path class="st0" d="M160.37,204.39c0-3.64,1.07-4.32,2.07-4.32v-0.36h-10.81v0.36c0.99,0,2.07,0.68,2.07,4.32v32.57
		c0,4.04-0.88,5.1-2.07,5.1v0.37h23.79c3.66,0,4.68-4.75,4.68-4.75h-0.4c0,0-0.93,1.84-6.19,1.84h-13.13L160.37,204.39
		L160.37,204.39z"/>
	<path class="st0" d="M142.88,237.68c0,0-0.93,1.84-6.2,1.84h-13.11v-18.1h6.08c2.34,0,6.07,0.99,6.07,2.42h0.4v-7.92h-0.4
		c0,1.42-3.73,2.42-6.07,2.42h-6.08v-14.35c0-2.31,1.01-2.68,2.12-2.68h9.1c4.67,0,4.82-1.6,4.82-1.6h-24.8v0.36
		c0.99,0,2.06,0.68,2.06,4.32v32.57c0,4.03-0.87,5.11-2.06,5.11v0.36h23.79c3.66,0,4.67-4.75,4.67-4.75H142.88L142.88,237.68z"/>
	<path class="st0" d="M256.56,242.16L256.56,242.16h-0.55c0,0-2.38-8.05-3.06-10.95c3.16,0,4.23,3.57,6.63,6.45
		c1.64,1.97,4.03,3.6,6.21,3.6c5.44,0,7.02-4.62,6.93-8.1c-0.12-3.76-3.08-5.73-8.93-10.25c-4.75-3.67-9.93-7.39-9.93-13.34
		c0-5.83,5.48-10.38,12.52-10.38c4.08,0,4.51,0.82,6.62,0.82c1.38,0,1.97-0.6,1.97-0.6c0,0.12,0.44,0,0.44,0s0.82,4.81,1.45,5.85
		c-0.98,0.15-2.5,0.88-4.49-1.81c-1.71-2.3-2.91-3.3-5.64-3.3c-4.62,0-7.11,5.11-6.37,8.65c0.72,3.49,3.21,5.84,6.84,8.87
		c4.58,3.82,11.8,6.77,11.8,13.41c0,6.93-5.25,11.33-13.12,11.33c-3.4,0-5.45-1.73-7.41-1.73
		C256.39,240.7,256.56,242.16,256.56,242.16"/>
	<path class="st0" d="M104.33,200.07v-0.36c-5.66,0-7.88,0.88-10.46,4.5c-2.76,3.87-8.21,10.61-9.89,12.91c0,0.1-0.05,0.1-0.05,0
		c-1.68-2.29-7.13-9.04-9.88-12.91c-2.58-3.62-4.8-4.5-10.45-4.5v0.36c1.79,0,2.12,2.19,2.12,4.38v33.3c0,3.21-0.53,4.34-2.05,4.34
		c0-0.01-0.01,0.34-0.01,0.34h0.01h9.72v-0.34c-1.19,0-2.23-0.75-2.23-4.34V207.3l12.56,15.84h0.5l12.57-15.84v30.45
		c0,3.58-1.46,4.34-2.23,4.34v0.34h9.89v-0.34c-1.26,0-2.23-1.42-2.23-4.34v-33.3C102.21,202.26,102.53,200.07,104.33,200.07"/>
	<path class="st0" d="M215.27,237.68c0,0-0.94,1.84-6.2,1.84h-13.11v-18.1h6.09c2.32,0,6.06,0.99,6.06,2.42h0.41v-7.92h-0.41
		c0,1.42-3.73,2.42-6.06,2.42h-6.09v-14.35c0-2.31,1.02-2.68,2.12-2.68h9.1c4.67,0,4.82-1.6,4.82-1.6h-24.81v0.36
		c1,0,2.08,0.68,2.08,4.32v32.57c0,4.03-0.88,5.11-2.08,5.11v0.36h23.8c3.65,0,4.67-4.75,4.67-4.75H215.27L215.27,237.68z"/>
	<path class="st0" d="M50.32,204.39c0-3.64,1.08-4.32,2.08-4.32v-0.36H42.01v0.36c0.99,0,2.05,0.68,2.05,4.32v33.34
		c0,3.64-1.07,4.32-2.05,4.32v0.37H52.4v-0.37c-1.01,0-2.08-0.68-2.08-4.32V204.39z"/>
	<path class="st0" d="M0,199.71v7.97h0.36c1.42-5.63,11.47-6.16,13.13-6.16v36.21c0,3.66-1.05,4.34-2.05,4.34v0.36h10.38v-0.36
		c-1,0-2.07-0.68-2.07-4.34v-36.21c2.14,0,11.73,0.53,13.14,6.16h0.37v-7.97H0z"/>
	<path class="st0" d="M103.04,269.7c-0.86,1.69-1.79,3.33-2.91,4.85c0.86,0.74,1.39,1.51,1.77,2.35c0.1,0.19,0.12,0.38,0.12,0.55
		c0,0.63-0.45,1.13-0.94,1.13c-0.37,0-0.75-0.26-0.94-0.88c-0.21-0.58-0.5-1.08-1.05-1.84c-2.6,3.21-6.13,5.63-11.54,7.37
		c-0.11,0.03-0.2,0.03-0.29,0.03c-0.25,0-0.18-0.19,0.21-0.38c4.66-2.21,8.13-5,10.62-8.2c-0.93-0.94-1.96-1.91-3.08-2.55
		c-0.25-0.14-0.38-0.27-0.38-0.35c0-0.05,0.05-0.07,0.13-0.07c0.1,0,0.23,0.02,0.41,0.07c1.23,0.42,2.55,1.08,3.71,1.86
		c1.15-1.64,2.07-3.39,2.7-5.19c0.04-0.12,0.08-0.2,0.08-0.29c0-0.08-0.07-0.1-0.22-0.1c-0.04,0-0.14,0.02-0.21,0.02
		c-1.02,0.17-2.31,0.28-3.13,0.28c-0.16,0-0.32,0-0.43-0.03c-0.58-0.08-0.85-0.43-0.95-0.75c-1.56,2.9-3.49,5.85-7.43,8.23
		c-0.18,0.09-0.3,0.15-0.37,0.15c-0.04,0-0.07-0.03-0.07-0.06c0-0.09,0.1-0.19,0.29-0.41c3.11-2.78,5.54-6.85,6.19-9.04
		c0.14-0.41,0.21-0.71,0.21-0.99c0-0.53-0.25-0.88-0.83-1.34c-0.14-0.1-0.21-0.19-0.21-0.25c0-0.09,0.1-0.14,0.35-0.17h0.13
		c1.36,0,2.97,1.01,2.97,1.73v0.1c-0.14,0.51-0.27,0.27-0.66,0.96c-0.08,0.16-0.29,0.62-0.48,0.87c0.16,0.03,0.34,0.03,0.56,0.03
		c0.97,0,2.46-0.22,3.56-0.38c0.86-0.12,0.91-0.41,1.34-0.41c0.76,0,2.1,1.24,2.1,1.82C104.32,269,103.44,268.91,103.04,269.7"/>
	<path class="st0" d="M123.16,267.41c-0.92,1.04-1.99,1.95-3.86,3.52c0.89,0.27,1.67,0.78,1.73,1.28v0.07
		c0,0.34-0.25,0.58-0.29,1.14c-0.09,1.21-0.12,2.29-0.12,3.19c0,2.71,0.3,4.21,0.3,5.47c0,0.12-0.02,0.27-0.02,0.41
		c-0.05,0.77-0.51,1.33-0.98,1.33c-0.48,0-0.96-0.56-1.09-2.06v-0.18c0-0.87,0.47-1.47,0.47-5.59c0-0.82-0.02-1.79-0.06-2.93
		c-0.03-0.86-0.1-1.19-0.49-1.66c-2.42,2.08-5.66,4.34-9,5.89c-0.04,0.05-0.06,0.05-0.12,0.05c-0.07,0.03-0.17,0.05-0.21,0.05
		s-0.1-0.02-0.1-0.05c0-0.07,0.12-0.15,0.31-0.31c4.77-3.35,10.08-7.82,11.82-10.43c0.41-0.61,0.58-1.05,0.58-1.5
		c0-0.34-0.08-0.66-0.27-1.1c-0.05-0.12-0.06-0.23-0.06-0.31c0-0.11,0.03-0.15,0.18-0.15c0.07,0,0.15,0.02,0.25,0.04
		c1.34,0.42,2.39,2.09,2.39,2.68v0.08C124.36,266.9,123.84,266.61,123.16,267.41"/>
	<path class="st0" d="M148.27,279.94c0,0.84-0.52,1.29-1.07,1.29c-0.43,0-0.87-0.29-1.06-0.93c-0.13-0.54-0.36-1.56-0.79-2.43
		c-3.99,1.19-8.52,2.29-12.43,3.27c-0.64,0.16-0.81,0.61-1.25,0.61h-0.03c-0.75-0.03-1.69-1.69-1.77-3.13v-0.05
		c0-0.21,0.08-0.3,0.17-0.3c0.12,0,0.28,0.12,0.4,0.27c0.45,0.67,0.81,0.95,1.68,0.95c0.43,0,0.96-0.07,1.67-0.18
		c1.71-4.01,3.3-8.52,4.12-11.6c0.08-0.37,0.15-0.71,0.15-1.06c0-0.57-0.17-1.12-0.67-1.62c-0.12-0.11-0.18-0.23-0.18-0.3
		c0-0.06,0.07-0.11,0.21-0.11c0.05,0,0.09,0.01,0.16,0.01c1.08,0.1,3.21,1.4,3.21,2.28v0.1c-0.08,0.56-0.65,0.42-0.98,1.21
		c-1.56,3.67-3.06,6.87-5.31,10.99c2.77-0.39,7.14-0.96,10.76-1.64c-0.74-1.4-1.73-2.71-3.2-4.05c-0.18-0.17-0.25-0.27-0.25-0.37
		c0-0.06,0.05-0.1,0.12-0.1c0.1,0,0.2,0.06,0.36,0.12c3.16,1.71,5.21,4.3,5.83,5.92C148.24,279.42,148.27,279.7,148.27,279.94"/>
	<path class="st0" d="M158.58,280.23c-0.61,0.3-0.69,1.19-1.31,1.25h-0.02c-0.81,0-1.69-1.61-1.67-2.12
		c0.04-0.64,0.37-0.43,0.44-1.73c0.07-1.25,0.1-2.95,0.1-5c0-1.01,0-2.14-0.04-3.32c-0.04-1.29-0.66-1.84-1.29-2.22
		c-0.21-0.12-0.31-0.22-0.31-0.31c0-0.08,0.16-0.14,0.46-0.17h0.09c1.53,0,3.31,1.21,3.27,1.83c-0.01,0.76-0.48,0.43-0.57,1.43
		c-0.22,3.43-0.33,5.41-0.4,8.05c0,0.07-0.03,0.14-0.03,0.18c0,0.23,0.1,0.35,0.27,0.35c0.07,0,0.16-0.03,0.28-0.03
		c4.65-1.38,10.25-5.12,13.12-9.25c0.18-0.25,0.34-0.39,0.42-0.39c0.06,0,0.1,0.05,0.1,0.14c0,0.12-0.04,0.25-0.16,0.47
		C168.52,274.48,163.98,277.78,158.58,280.23"/>
	<path class="st0" d="M191.9,280.31c0,0.6-0.41,0.93-0.91,0.93c-0.41,0-0.92-0.23-1.23-0.84c-1.13-2.05-3.39-4.21-6.17-5.75
		c-2.42,2.81-5.68,5.35-9.84,6.93c-0.14,0.04-0.25,0.05-0.32,0.05c-0.11,0-0.16-0.01-0.16-0.08s0.12-0.19,0.4-0.32
		c5.8-2.86,10.68-8.87,12.16-13.43c0.05-0.12,0.07-0.2,0.07-0.27c0-0.08-0.07-0.13-0.2-0.13c-0.08,0-0.18,0.02-0.29,0.02
		c-1.07,0.11-3.01,0.51-4.8,0.88c-0.73,0.18-1.44,0.63-1.91,0.63h-0.05c-0.55-0.01-1.76-1.15-1.82-2.48v-0.14
		c0-0.12,0.02-0.21,0.09-0.21c0.05,0,0.13,0.05,0.23,0.11c0.77,0.58,1.67,0.81,2.64,0.81c0.21,0,0.43,0,0.65-0.01
		c1.43-0.13,3.26-0.29,5.14-0.66c0.87-0.13,0.85-0.45,1.32-0.45c0.57,0.02,1.94,0.85,1.94,1.56c0,0.05-0.03,0.1-0.03,0.14
		c-0.11,0.51-0.92,0.28-1.16,0.83c-0.9,1.9-2.14,3.94-3.8,5.93c3.42,1.13,7.1,3.52,7.85,5.1C191.83,279.8,191.9,280.07,191.9,280.31
		"/>
	<path class="st0" d="M20.35,171.65c0.8-2.23,1.46-4.6,1.79-6.87c0.22-1.21,0.33-2.41,0.33-3.54c2.85,0.84,3.33,1.06,3.33,1.46
		c0,0.29-0.22,0.55-1.06,0.69c-0.95,3.33-1.97,5.99-3.87,8.48C20.72,172.09,20.28,171.9,20.35,171.65z M26.31,158.27
		c-0.99,0.22-2.19,0.44-3.65,0.69c-0.29,0.84-0.51,1.1-0.77,1.1c-0.37,0-0.58-0.7-1.13-3.47c0.77,0.07,1.17,0.07,1.68,0.07
		c0.66,0,1.24,0,1.79-0.04c1.5-2.08,3-4.6,4.17-7.02c0.58-1.24,1.06-2.41,1.39-3.4c2.56,1.17,3.29,1.64,3.29,2.05
		c0,0.33-0.22,0.58-1.35,0.58c-2.12,2.96-3.91,5.23-6.47,7.78c1.97-0.04,3.95-0.15,5.92-0.29c-0.26-1.02-0.69-1.97-1.39-3
		c-0.07-0.11,0.11-0.26,0.26-0.18c2.52,1.35,3.8,3.22,3.8,4.75c0,0.91-0.47,1.61-1.24,1.61c-0.69,0-0.95-0.44-1.13-1.75
		c-0.04-0.26-0.07-0.48-0.11-0.69c-0.88,0.26-1.79,0.47-2.67,0.69v7.02c0,4.06,0.11,7.67,0.11,8.77c0,0.84-0.51,1.21-1.54,1.21
		c-0.84,0-1.13-0.29-1.13-0.99c0-0.66,0.18-3,0.18-7.53V158.27z M26.31,151.22c0,0.95-0.55,1.57-1.28,1.57
		c-0.62,0-0.8-0.18-1.24-1.72c-0.51-1.53-1.17-2.63-2.52-3.87c-0.11-0.11,0.07-0.33,0.22-0.29c1.06,0.33,1.94,0.73,2.63,1.17
		c0.77-1.5,1.35-3.03,1.86-4.71c0.29-0.88,0.44-1.72,0.51-2.41c2.78,1.06,3.62,1.46,3.62,1.86c0,0.37-0.29,0.55-1.43,0.62
		c-1.64,2.34-2.3,3.33-3.95,5.08C25.76,149.32,26.31,150.27,26.31,151.22z M30.88,164.74c-0.11-1.39-0.51-3-1.13-3.98
		c-0.07-0.11,0.15-0.26,0.29-0.18c2.05,1.1,3.18,2.78,3.18,4.17c0,0.95-0.47,1.57-1.28,1.57C31.24,166.31,30.95,165.98,30.88,164.74
		z M31.2,169.93c0-0.55,0.29-0.99,1.06-1.39c1.57-0.84,2.38-2.23,2.52-4.24c0-0.18,0.37-0.15,0.4,0.04
		c0.11,0.69,0.18,1.39,0.18,2.05c0,2.78-1.06,5.01-2.81,5.01C31.79,171.39,31.2,170.77,31.2,169.93z M32.41,153.3
		c2.12-2.45,3.87-5.48,4.93-8.48c0.37-1.17,0.62-2.3,0.77-3.36c3.22,1.02,3.73,1.24,3.73,1.72c0,0.37-0.33,0.58-1.43,0.77
		c-1.86,4.2-4.06,7.13-7.64,9.76C32.59,153.85,32.26,153.48,32.41,153.3z M44.84,152.32c-0.11-0.11,0.07-0.4,0.22-0.33
		c3.54,1.65,5.55,3.87,5.55,5.7c0,0.91-0.55,1.64-1.28,1.64c-0.58,0-0.99-0.4-1.28-1.31c-0.15-0.51-0.33-0.99-0.51-1.46
		c-3.29,0.95-6.21,1.46-11,2.08c-0.22,0.91-0.44,1.17-0.77,1.17c-0.29,0-0.55-0.51-1.17-3.62c0.88,0.11,1.35,0.15,2.27,0.15
		c0.33,0,0.66,0,0.99-0.04c0.88-1.83,1.61-3.65,2.23-5.48c0.4-1.28,0.73-2.48,0.8-3.43c3,0.88,3.73,1.24,3.73,1.68
		c0,0.33-0.11,0.48-1.35,0.7c-1.35,2.52-2.74,4.57-4.35,6.54c2.74-0.11,5.48-0.29,8.26-0.55C46.59,154.51,45.82,153.45,44.84,152.32
		z M39.98,169.75c0,1.21,0.37,1.53,3.07,1.53c2.12,0,3.03-0.22,3.47-0.66c0.47-0.58,0.91-1.72,1.53-3.8
		c0.04-0.15,0.37-0.07,0.37,0.07c0,0.84-0.07,2.12-0.07,2.96c0,0.51,0.15,0.66,0.48,0.8c0.58,0.22,0.84,0.44,0.84,1.06
		c0,0.69-0.62,1.17-1.72,1.46c-0.95,0.26-2.52,0.44-4.97,0.44c-4.42,0-5.55-0.77-5.55-3c0-0.8,0.11-1.68,0.11-5.48
		c0-1.57,0-2.27-0.15-3.33c3.54,0.4,3.8,0.47,3.8,0.95c0,0.29-0.18,0.51-1.21,0.95V169.75z M43.34,163.86
		c-0.51-1.5-1.24-2.7-2.63-3.87c-0.11-0.11,0.04-0.29,0.18-0.26c3.03,0.66,5.01,2.16,5.01,3.76c0,0.88-0.55,1.57-1.28,1.57
		C43.92,165.07,43.63,164.81,43.34,163.86z M51.56,153.23c-1.13-0.84-2.52-2.41-3.4-3.73c-1.17-1.79-2.08-3.66-2.85-6.36
		c-0.11-0.48-0.18-0.58-0.4-0.8c-0.18-0.15-0.26-0.26-0.26-0.37c0-0.22,0.88-0.51,1.28-0.51c0.15,0,0.26,0.11,0.26,0.29
		c0,0.11-0.15,0.44-0.15,0.58c0,0.18,0.07,0.44,0.18,0.73c0.8,2.05,2.05,3.51,3.25,4.6c1.5,1.54,3.36,2.52,5.04,3.18
		c0.18,0.07,0.11,0.4-0.07,0.44c-0.84,0.26-1.1,0.62-1.5,2.05c-0.11,0.29-0.22,0.44-0.44,0.44
		C52.33,153.78,52.07,153.6,51.56,153.23z M51.3,169.24c-0.26-1.72-1.1-3.65-2.27-5.19c-0.07-0.11,0.15-0.33,0.29-0.25
		c3.07,1.53,4.82,3.65,4.82,5.41c0,0.95-0.62,1.79-1.5,1.79C51.93,170.99,51.52,170.59,51.3,169.24z"/>
	<path class="st0" d="M82.22,151.4c2.59,1.83,5.88,3.18,9.06,3.91c0.18,0.04,0.15,0.37-0.04,0.4c-1.06,0.15-1.57,0.58-2.05,2.12
		c-0.15,0.37-0.33,0.55-0.55,0.55c-0.22,0-0.62-0.18-1.28-0.47c-1.94-0.99-4.5-2.74-6.54-4.64c-2.74-2.56-4.86-5.37-6.98-9.65
		c-3.69,6.83-9.68,12.2-17.03,15.2c-0.22,0.11-0.47-0.4-0.26-0.51c5.44-3.11,10.23-8.33,13.05-13.19c0.84-1.46,1.43-2.89,1.86-4.31
		c4.13,1.17,4.28,1.28,4.28,1.68c0,0.29-0.37,0.44-1.32,0.66C76.66,146.65,79.11,149.25,82.22,151.4z M65.44,172.93
		c0,0.77-0.55,1.17-1.72,1.17c-0.8,0-1.13-0.33-1.13-1.02c0-0.91,0.15-2.41,0.15-7.78c0-3.03-0.04-4.64-0.15-6.65
		c1.39,0.66,1.94,0.99,3.25,1.72h14.84c1.17-1.39,1.35-1.5,1.57-1.5c0.26,0,0.48,0.11,1.79,1.28c0.66,0.55,0.8,0.77,0.8,0.99
		c0,0.33-0.18,0.55-1.13,1.06v2.7c0,4.97,0.11,7.31,0.11,8c0,0.77-0.62,1.21-1.75,1.21c-0.8,0-1.13-0.37-1.13-1.02v-1.61H65.44
		V172.93z M80.94,161.27H65.44v9.28h15.49V161.27z M66.47,153.96c1.02,0.18,1.72,0.26,2.59,0.26h6.43c1.43-1.72,1.68-1.9,1.9-1.9
		c0.26,0,0.51,0.18,2.08,1.39c0.66,0.62,0.84,0.84,0.84,1.06c0,0.26-0.15,0.37-0.47,0.37H69.02c-0.73,0-1.32,0.07-2.19,0.22
		L66.47,153.96z"/>
	<path class="st0" d="M94.34,173.88c3-0.88,6.25-2.48,8.26-3.98c0.73-0.55,1.46-1.13,1.94-1.75c2.41,1.46,3.14,1.97,3.14,2.3
		c0,0.4-0.33,0.62-1.72,0.37c-3.03,1.94-6.43,3.14-11.51,3.65C94.2,174.5,94.09,173.95,94.34,173.88z M99.35,150.27
		c0,0.73-0.51,1.06-1.61,1.06c-0.77,0-1.06-0.29-1.06-0.91c0-0.51,0.15-1.53,0.15-4.53c0-1.86-0.04-2.7-0.18-4.27
		c1.28,0.51,1.79,0.73,3.03,1.46h21.27c1.17-1.24,1.35-1.35,1.57-1.35c0.26,0,0.47,0.11,1.64,1.13c0.51,0.44,0.66,0.66,0.66,0.88
		c0,0.29-0.18,0.55-0.95,1.06v1.21c0,2.67,0.11,3.84,0.11,4.2c0,0.77-0.51,1.13-1.61,1.13c-0.77,0-1.1-0.29-1.1-0.91v-0.4H99.35
		V150.27z M99.35,143.98v5.12h5.59v-5.12H99.35z M102.24,167.3c0,0.69-0.55,1.1-1.68,1.1c-0.84,0-1.13-0.33-1.13-1.02
		c0-1.06,0.18-3.14,0.18-8.99c0-3.29,0-4.75-0.18-6.76c1.35,0.55,1.9,0.77,3.14,1.43h15.31c1.1-1.13,1.32-1.28,1.54-1.28
		c0.26,0,0.47,0.15,1.68,1.13c0.55,0.44,0.66,0.62,0.66,0.88c0,0.26-0.15,0.48-0.95,0.99v3.18c0,5.48,0.18,8.15,0.18,9.03
		c0,0.7-0.55,1.1-1.61,1.1c-0.88,0-1.21-0.29-1.21-0.91v-0.11h-15.93V167.3z M118.17,153.96h-15.93v3.33h15.93V153.96z
		 M102.24,161.53h15.93v-3.33h-15.93V161.53z M102.24,166.13h15.93v-3.69h-15.93V166.13z M107.46,143.98v5.12h5.55v-5.12H107.46z
		 M120.77,173.55c-1.9-1.83-4.6-3.36-7.82-4.42c-0.22-0.07-0.11-0.51,0.11-0.51c6.98,0.51,10.85,2.34,10.85,4.5
		c0,0.77-0.58,1.39-1.35,1.39C121.97,174.5,121.57,174.28,120.77,173.55z M115.54,149.1h5.74v-5.12h-5.74V149.1z"/>
	<path class="st0" d="M132.78,143.95c-0.77,0-1.35,0.07-2.23,0.22l-0.37-1.35c1.06,0.15,1.68,0.22,2.63,0.22h12.5
		c1.46-1.65,1.75-1.83,1.97-1.83c0.22,0,0.51,0.18,1.97,1.39c0.7,0.55,0.84,0.77,0.84,0.99c0,0.26-0.11,0.37-0.48,0.37h-4.64v14.07
		c0,7.53,0.07,13.19,0.07,14.95c0,0.88-0.47,1.32-1.61,1.32c-0.91,0-1.21-0.33-1.21-1.1c0-0.62,0.18-2.78,0.18-8.59
		c-2.81,1.5-6.14,2.92-9.94,4.13c-0.26,1.02-0.51,1.32-0.91,1.32c-0.4,0-0.47-0.07-1.46-3.8c0.95-0.07,1.9-0.15,3.47-0.4v-21.89
		H132.78z M142.43,143.95h-6.29v6.21h6.29V143.95z M136.15,156.96h6.29v-5.88h-6.29V156.96z M136.15,165.4
		c2.12-0.44,4.2-0.91,6.29-1.53v-5.99h-6.29V165.4z M158.26,146.98c1.24-1.39,1.39-1.53,1.68-1.53c0.22,0,0.44,0.11,1.79,1.28
		c0.69,0.62,0.73,0.84,0.73,1.1c0,0.33-0.26,0.55-1.17,1.02c-1.06,5.99-2.81,10.89-5.37,14.87c2.41,3.07,5.41,5.12,8.7,6.69
		c0.18,0.07,0.04,0.4-0.15,0.44c-0.84,0.26-1.24,0.66-1.57,1.75c-0.15,0.51-0.26,0.66-0.55,0.66c-0.26,0-0.66-0.22-1.5-0.8
		c-2.67-1.97-4.71-4.2-6.4-6.69c-2.27,2.92-5.08,5.3-8.51,7.31c-0.18,0.11-0.47-0.29-0.29-0.44c3.11-2.59,5.59-5.52,7.56-8.88
		c-0.07-0.15-0.18-0.33-0.26-0.48c-1.9-3.51-3.36-8.37-4.13-15.39c-0.91,0-1.57,0.07-2.3,0.18l-0.33-1.35
		c1.17,0.18,1.83,0.26,3.25,0.26H158.26z M149.67,147.89c0.8,4.82,2.08,9.58,4.71,13.74c2.01-3.98,3.33-8.51,4.13-13.74H149.67z"/>
	<path class="st0" d="M177.11,150.34c0-0.91-0.07-1.32-0.4-1.61s-0.95-0.55-1.79-0.8c-0.29-0.07-0.44-0.15-0.44-0.33
		c0-0.15,0.22-0.33,0.44-0.44c0.33-0.18,0.66-0.29,1.17-0.29c0.77,0,1.83,0.37,2.74,0.84c0.88,0.44,1.17,0.84,1.17,1.39
		c0,0.33-0.11,0.55-0.29,0.8c-0.15,0.22-0.26,0.69-0.33,1.43c-0.04,0.73-0.04,1.61-0.04,2.59c2.56-0.26,4.46-0.44,6.98-0.58
		c0.04-1.57,0.04-3,0.04-4.42c0-1.68-0.04-2.45-0.26-2.81c-0.18-0.33-0.44-0.51-0.84-0.66c-0.37-0.15-0.84-0.26-1.17-0.29
		c-0.29-0.04-0.4-0.18-0.4-0.33c0-0.15,0.26-0.37,0.51-0.55c0.37-0.22,0.69-0.29,1.21-0.29c0.51,0,1.32,0.18,2.41,0.58
		c1.24,0.48,1.68,0.99,1.68,1.61c0,0.29-0.18,0.55-0.4,0.84c-0.26,0.29-0.29,0.7-0.33,1.28c-0.04,1.46-0.11,3.07-0.15,4.9
		c0.84-0.04,1.75-0.07,3.03-0.15c0.66-0.04,1.06-0.18,1.32-0.33c0.37-0.22,0.66-0.29,1.13-0.29c0.66,0,1.83,0.26,2.92,0.88
		c0.47,0.29,0.69,0.66,0.69,1.28c0,0.44-0.37,0.73-0.95,0.73c-0.66,0-1.28-0.07-2.19-0.22c-0.91-0.11-1.83-0.15-2.67-0.18
		c-1.21-0.04-2.3-0.04-3.33-0.04c-0.11,3.95-0.73,7.82-2.74,10.71c-2.19,3.18-5.52,5.59-9.69,6.76c-0.33,0.11-0.62,0.15-0.8,0.15
		c-0.22,0-0.44-0.15-0.44-0.4c0-0.29,0.15-0.4,0.48-0.55c3.54-1.39,6.8-3.98,8.66-7.09c1.46-2.45,2.12-5.85,2.23-9.5
		c-2.38,0.07-4.42,0.26-6.94,0.51c-0.04,2.59-0.07,4.6-0.07,5.99c0,1.28-0.55,1.9-1.1,1.9c-0.91,0-1.31-0.66-1.31-1.75
		s0.18-3.51,0.22-5.85c-0.91,0.15-1.75,0.26-2.59,0.44c-0.7,0.15-1.75,0.44-2.05,0.66c-0.44,0.29-0.73,0.37-1.06,0.37
		c-0.8,0-1.57-0.51-2.41-1.35c-0.91-0.88-1.21-1.42-1.21-2.16c0-0.29,0.18-0.44,0.33-0.44c0.15,0,0.29,0.11,0.55,0.33
		c0.73,0.62,1.64,1.1,2.34,1.1c0.73,0,1.35,0,2.3-0.11c1.31-0.15,2.52-0.29,3.84-0.44V150.34z"/>
	<path class="st0" d="M221.65,150.23c0.7-0.04,1.1-0.18,1.57-0.55c0.44-0.4,0.73-0.58,0.95-0.58c0.47,0,0.91,0.18,1.61,0.73
		c1.17,0.95,1.57,1.35,1.57,1.79c0,0.48-0.29,0.66-0.7,0.88c-0.26,0.15-0.44,0.44-0.69,1.5c-0.62,2.49-1.32,5.41-2.19,9.21
		c0.77,0.07,1.21,0.22,1.54,0.4c0.33,0.22,0.47,0.44,0.47,0.77c0,0.47-0.18,0.73-0.62,0.84c-0.29,0.07-0.8,0.11-1.21,0.11
		c-0.8,0-2.19-0.07-3.36-0.07c-3.03,0-6.03,0.11-10.12,0.37c0,0.48,0,0.8-0.04,1.13c-0.04,0.8-0.37,1.21-0.99,1.21
		c-0.77,0-1.31-0.66-1.39-1.83c-0.26-4.46-0.55-8.7-0.8-12.79c-0.11-1.61-0.55-2.34-1.94-3.18c-0.26-0.15-0.47-0.26-0.47-0.44
		c0-0.26,0.55-0.55,1.1-0.55c0.58,0,2.23,0.62,3.84,1.83C213.39,150.71,218.26,150.42,221.65,150.23z M222.31,151.84
		c-3.58,0.15-8.15,0.44-12.46,0.84c0.15,3.8,0.29,7.2,0.51,11.36c4.06-0.25,8.11-0.44,11.26-0.58c0.62-3.87,1.1-7.6,1.53-10.78
		c0.04-0.33,0.04-0.51,0.04-0.66c0-0.15-0.07-0.18-0.22-0.18H222.31z"/>
	<path class="st0" d="M237.29,148.22c1.53,0.33,3,0.99,4.06,1.68c1.61,1.06,2.19,2.01,2.19,3.36c0,0.95-0.58,1.61-1.39,1.61
		c-0.77,0-1.1-0.29-1.57-1.24c-0.37-0.7-0.8-1.5-1.53-2.45c-0.77-0.95-1.72-1.72-2.63-2.3c-0.18-0.11-0.29-0.29-0.29-0.44
		c0-0.15,0.18-0.29,0.4-0.29C236.67,148.15,236.89,148.15,237.29,148.22z M260.72,149.5c0,0.18-0.07,0.4-0.26,0.66
		c-2.16,3.47-4.97,6.76-8.11,9.79c-2.96,2.89-6.1,5.37-9.54,7.93c-0.4,0.29-0.77,0.62-0.91,0.84c-0.29,0.48-0.7,0.73-1.17,0.73
		c-0.84,0-1.53-0.62-2.34-1.43c-1.13-1.21-1.57-2.08-1.57-2.92c0-0.55,0.15-0.91,0.4-0.91c0.15,0,0.26,0.11,0.51,0.4
		c0.73,0.88,1.17,1.28,1.75,1.28c0.37,0,0.95-0.18,1.72-0.66c3.22-1.86,6.58-4.31,9.76-7.05c3.29-2.89,6.4-5.88,8.7-8.81
		c0.18-0.22,0.37-0.33,0.51-0.33C260.39,149.03,260.72,149.28,260.72,149.5z"/>
</g>
</svg>
