<svg xmlns="http://www.w3.org/2000/svg" width="199.996" height="76.083" viewBox="0 0 199.996 76.083">
  <g id="header_logo" transform="translate(-1226 -1858)">
    <g id="グループ_2264" data-name="グループ 2264" transform="translate(1226 1858)">
      <g id="グループ_2263" data-name="グループ 2263">
        <g id="コンポーネント_24_2" data-name="コンポーネント 24 – 2">
          <path id="パス_243" data-name="パス 243" d="M626.238,124.172v25.31H617.8v-25.31h-6.93v-7.145h22.3v7.145Z" transform="translate(-610.871 -116.123)"/>
          <path id="パス_244" data-name="パス 244" d="M707.943,117.027v32.455h-8.437V117.027Z" transform="translate(-673.633 -116.123)"/>
          <path id="パス_245" data-name="パス 245" d="M740.661,149.482l5.509-32.455h8.351l6.5,17.3,6.457-17.3h8.35l5.51,32.455h-8.394l-2.8-18.681-7.662,18.681h-3.357L751.852,130.8l-2.8,18.681Z" transform="translate(-702.774 -116.123)"/>
          <path id="パス_246" data-name="パス 246" d="M910.727,124.172H900.7V129.6h9.469v7.145H900.7v5.6h10.029v7.145H892.261V117.027h18.466Z" transform="translate(-810.12 -116.123)"/>
          <path id="パス_247" data-name="パス 247" d="M976.209,117.027v25.31h10.116v7.145H967.773V117.027Z" transform="translate(-863.59 -116.123)"/>
          <path id="パス_248" data-name="パス 248" d="M1062.046,124.172h-10.03V129.6h9.47v7.145h-9.47v5.6h10.03v7.145H1043.58V117.027h18.466Z" transform="translate(-917.268 -116.123)"/>
          <path id="パス_249" data-name="パス 249" d="M1138.376,123.142a10.434,10.434,0,0,0-2.755-1.657,7.314,7.314,0,0,0-2.669-.538,4.331,4.331,0,0,0-2.669.775,2.415,2.415,0,0,0-1.033,2.023,2.011,2.011,0,0,0,.517,1.42,4.494,4.494,0,0,0,1.356.969,11.5,11.5,0,0,0,1.894.71q1.054.3,2.088.646a13.024,13.024,0,0,1,6.047,3.68,9.081,9.081,0,0,1,1.916,6,11.689,11.689,0,0,1-.839,4.52,9.43,9.43,0,0,1-2.453,3.465,11.311,11.311,0,0,1-3.96,2.238,16.5,16.5,0,0,1-5.316.8,19.549,19.549,0,0,1-11.407-3.658l3.616-6.8a14.647,14.647,0,0,0,3.745,2.5,9,9,0,0,0,3.659.818,4.365,4.365,0,0,0,3.078-.947,2.932,2.932,0,0,0,.753-3.422,2.751,2.751,0,0,0-.861-.99,6.911,6.911,0,0,0-1.571-.839q-.968-.387-2.346-.861-1.636-.517-3.207-1.141a10.075,10.075,0,0,1-2.8-1.657,7.691,7.691,0,0,1-1.98-2.6,9.2,9.2,0,0,1-.753-3.982,11.494,11.494,0,0,1,.8-4.369,9.7,9.7,0,0,1,2.239-3.358,9.979,9.979,0,0,1,3.529-2.174,13.346,13.346,0,0,1,4.671-.775,20.466,20.466,0,0,1,5.036.667,22.269,22.269,0,0,1,5.036,1.959Z" transform="translate(-970.737 -113.93)"/>
          <path id="パス_250" data-name="パス 250" d="M1232.764,123.142a10.432,10.432,0,0,0-2.755-1.657,7.316,7.316,0,0,0-2.669-.538,4.33,4.33,0,0,0-2.669.775,2.415,2.415,0,0,0-1.033,2.023,2.011,2.011,0,0,0,.517,1.42,4.489,4.489,0,0,0,1.356.969,11.5,11.5,0,0,0,1.894.71q1.054.3,2.088.646a13.022,13.022,0,0,1,6.047,3.68,9.08,9.08,0,0,1,1.916,6,11.689,11.689,0,0,1-.839,4.52,9.428,9.428,0,0,1-2.453,3.465,11.313,11.313,0,0,1-3.96,2.238,16.5,16.5,0,0,1-5.316.8,19.547,19.547,0,0,1-11.406-3.658l3.616-6.8a14.64,14.64,0,0,0,3.745,2.5,8.993,8.993,0,0,0,3.659.818,4.366,4.366,0,0,0,3.078-.947,2.934,2.934,0,0,0,.753-3.422,2.755,2.755,0,0,0-.861-.99,6.911,6.911,0,0,0-1.571-.839q-.969-.387-2.346-.861-1.636-.517-3.207-1.141a10.083,10.083,0,0,1-2.8-1.657,7.688,7.688,0,0,1-1.979-2.6,9.2,9.2,0,0,1-.754-3.982,11.5,11.5,0,0,1,.8-4.369,9.707,9.707,0,0,1,2.238-3.358,9.981,9.981,0,0,1,3.529-2.174,13.346,13.346,0,0,1,4.671-.775,20.467,20.467,0,0,1,5.036.667,22.252,22.252,0,0,1,5.036,1.959Z" transform="translate(-1037.572 -113.93)"/>
          <path id="パス_251" data-name="パス 251" d="M639.806,267.435H629.777v5.424h9.47V280h-9.47v5.6h10.029v7.145H621.34V260.29h18.466Z" transform="translate(-618.284 -217.566)"/>
          <path id="パス_252" data-name="パス 252" d="M712,275.442,701.886,260.29H712.3l4.391,8.394,5.423-8.394h10.417l-10.718,15.152,12.1,17.3H723.623l-6.5-10.589L709.5,292.745H699.3Z" transform="translate(-673.489 -217.566)"/>
          <path id="パス_253" data-name="パス 253" d="M841,292.745h-8.437V260.29h13.43q5.466,0,8.372,2.841t2.905,8.006q0,5.165-2.905,8.007t-8.372,2.841H841Zm0-17.562h2.8q4.649,0,4.649-4.046t-4.649-4.046H841Z" transform="translate(-767.849 -217.566)"/>
          <path id="パス_254" data-name="パス 254" d="M958.895,292.745h-10.5l-8.049-12.483v12.483h-8.437V260.29h13.128a12.9,12.9,0,0,1,4.735.8,8.918,8.918,0,0,1,5.316,5.359,11.112,11.112,0,0,1,.667,3.874,9.521,9.521,0,0,1-1.787,6,8.99,8.99,0,0,1-5.273,3.121ZM940.343,274.8h1.593a6.151,6.151,0,0,0,3.831-1.033,3.973,3.973,0,0,0,0-5.94,6.153,6.153,0,0,0-3.831-1.033h-1.593Z" transform="translate(-838.193 -217.566)"/>
          <path id="パス_255" data-name="パス 255" d="M1057.531,267.435H1047.5v5.424h9.47V280h-9.47v5.6h10.029v7.145h-18.466V260.29h18.466Z" transform="translate(-914.071 -217.566)"/>
          <path id="パス_256" data-name="パス 256" d="M1136.312,266.405a10.444,10.444,0,0,0-2.755-1.657,7.314,7.314,0,0,0-2.668-.538,4.33,4.33,0,0,0-2.669.775,2.415,2.415,0,0,0-1.033,2.023,2.011,2.011,0,0,0,.517,1.42,4.488,4.488,0,0,0,1.355.968,11.5,11.5,0,0,0,1.894.711q1.054.3,2.088.646a13.024,13.024,0,0,1,6.048,3.68,9.083,9.083,0,0,1,1.916,6,11.685,11.685,0,0,1-.84,4.52,9.423,9.423,0,0,1-2.453,3.465,11.311,11.311,0,0,1-3.96,2.238,16.491,16.491,0,0,1-5.316.8,19.549,19.549,0,0,1-11.407-3.659l3.616-6.8a14.651,14.651,0,0,0,3.745,2.5,8.994,8.994,0,0,0,3.659.818,4.366,4.366,0,0,0,3.078-.947,2.933,2.933,0,0,0,.753-3.422,2.753,2.753,0,0,0-.861-.99,6.9,6.9,0,0,0-1.571-.839q-.968-.387-2.346-.861-1.636-.516-3.206-1.14a10.079,10.079,0,0,1-2.8-1.657,7.687,7.687,0,0,1-1.98-2.6,9.2,9.2,0,0,1-.754-3.981,11.5,11.5,0,0,1,.8-4.369,9.7,9.7,0,0,1,2.238-3.357,9.974,9.974,0,0,1,3.53-2.174,13.345,13.345,0,0,1,4.67-.775,20.471,20.471,0,0,1,5.036.667,22.265,22.265,0,0,1,5.036,1.958Z" transform="translate(-969.276 -215.374)"/>
          <path id="パス_257" data-name="パス 257" d="M1233.15,266.405a10.447,10.447,0,0,0-2.755-1.657,7.314,7.314,0,0,0-2.669-.538,4.33,4.33,0,0,0-2.669.775,2.415,2.415,0,0,0-1.033,2.023,2.011,2.011,0,0,0,.517,1.42,4.488,4.488,0,0,0,1.356.968,11.492,11.492,0,0,0,1.894.711q1.054.3,2.088.646a13.025,13.025,0,0,1,6.048,3.68,9.084,9.084,0,0,1,1.915,6,11.687,11.687,0,0,1-.839,4.52,9.427,9.427,0,0,1-2.454,3.465,11.309,11.309,0,0,1-3.96,2.238,16.491,16.491,0,0,1-5.316.8,19.549,19.549,0,0,1-11.407-3.659l3.615-6.8a14.655,14.655,0,0,0,3.745,2.5,8.994,8.994,0,0,0,3.659.818,4.365,4.365,0,0,0,3.078-.947,2.932,2.932,0,0,0,.753-3.422,2.752,2.752,0,0,0-.861-.99,6.908,6.908,0,0,0-1.571-.839q-.968-.387-2.346-.861-1.636-.516-3.207-1.14a10.074,10.074,0,0,1-2.8-1.657,7.691,7.691,0,0,1-1.98-2.6,9.2,9.2,0,0,1-.753-3.981,11.5,11.5,0,0,1,.8-4.369,9.7,9.7,0,0,1,2.238-3.357,9.977,9.977,0,0,1,3.53-2.174,13.346,13.346,0,0,1,4.671-.775,20.47,20.47,0,0,1,5.036.667,22.265,22.265,0,0,1,5.036,1.958Z" transform="translate(-1037.845 -215.374)"/>
        </g>
      </g>
    </g>
  </g>
</svg>
