<?xml version="1.0" encoding="utf-8"?>
<!-- Generator: Adobe Illustrator 25.2.3, SVG Export Plug-In . SVG Version: 6.00 Build 0)  -->
<svg version="1.1" id="レイヤー_1" xmlns="http://www.w3.org/2000/svg" xmlns:xlink="http://www.w3.org/1999/xlink" x="0px"
	 y="0px" viewBox="0 0 300 140" style="enable-background:new 0 0 300 140;" xml:space="preserve">
<g id="tl_auction_logo" transform="translate(-978.043 -5067.564)">
	<path id="パス_9755" d="M1046.5,5132.9v-22.5h-7.9v-4.7h21.5v4.7h-7.9v22.5H1046.5z"/>
	<rect id="長方形_3722" x="1063.3" y="5105.6" width="5.7" height="27.3"/>
	<path id="パス_9756" d="M1097.2,5132.9v-18.3h-0.2l-7.4,18.3h-3.5l-7.4-18.3h-0.2v18.3h-5.1v-27.3h6.6l7.7,19.6h0.2l7.7-19.6h6.6
		v27.3H1097.2z"/>
	<path id="パス_9757" d="M1124.9,5132.9h-18v-27.3h18v4.7h-12.4v6.6h11.6v4.4h-11.6v6.8h12.4V5132.9z"/>
	<path id="パス_9758" d="M1146.6,5132.9h-17.6v-27.3h5.7v22.5h11.9L1146.6,5132.9z"/>
	<path id="パス_9759" d="M1168,5132.9h-18v-27.3h18v4.7h-12.3v6.6h11.6v4.4h-11.6v6.8h12.4L1168,5132.9z"/>
	<path id="パス_9760" d="M1176.5,5125.1c0.3,2.2,2.7,3.6,5.7,3.6s5.1-1.5,5.1-3.5c0-1.8-1.3-2.8-4.7-3.5l-2.9-0.6
		c-5.5-1-8.1-3.7-8.1-7.7c0-5,4.3-8.3,10.4-8.3c6.3,0,10.4,3.3,10.5,8.3h-5.4c-0.2-2.3-2.2-3.7-5.1-3.7c-2.8,0-4.7,1.3-4.7,3.3
		c0,1.6,1.3,2.7,4.5,3.4l2.9,0.6c5.7,1.1,8.2,3.5,8.2,7.6c0,5.3-4.2,8.7-11,8.7c-6.5,0-10.8-3.1-11-8.2L1176.5,5125.1z"/>
	<path id="パス_9761" d="M1200.9,5125.1c0.3,2.2,2.7,3.6,5.7,3.6s5.1-1.5,5.1-3.5c0-1.8-1.3-2.8-4.7-3.5l-2.9-0.6
		c-5.5-1-8.1-3.7-8.1-7.7c0-5,4.3-8.3,10.4-8.3c6.3,0,10.4,3.3,10.5,8.3h-5.4c-0.2-2.3-2.2-3.7-5.1-3.7c-2.8,0-4.7,1.3-4.7,3.3
		c0,1.6,1.3,2.7,4.5,3.4l2.9,0.6c5.7,1.1,8.2,3.5,8.2,7.6c0,5.3-4.2,8.7-11,8.7c-6.5,0-10.8-3.1-11-8.2L1200.9,5125.1z"/>
	<path id="パス_9762" d="M1060.8,5163.5h-9.6l-2.1,6.6h-5.9l9.4-27.3h6.7l9.4,27.3h-6.1L1060.8,5163.5z M1052.5,5159.3h7.1
		l-3.5-11.2h-0.2L1052.5,5159.3z"/>
	<path id="パス_9763" d="M1076.6,5160c0,3.5,2.1,5.8,5.7,5.8c3.6,0,5.7-2.2,5.7-5.8v-17h5.7v17.6c0,6-4.4,10-11.4,10
		c-7,0-11.4-4.1-11.4-10v-17.6h5.7V5160z"/>
	<path id="パス_9764" d="M1097.4,5156.5c0-8.7,5-14.1,12.9-14.1c6.6,0,11.5,4.2,11.9,10.2h-5.5c-0.4-3.2-3.2-5.6-6.4-5.5
		c-4.3,0-7.1,3.6-7.1,9.3c0,5.8,2.8,9.4,7.1,9.4c3.2,0.2,6-2.1,6.4-5.2h5.5c-0.6,6.1-5.3,9.9-11.9,9.9
		C1102.4,5170.6,1097.4,5165.3,1097.4,5156.5"/>
	<path id="パス_9765" d="M1132.3,5170.2v-22.5h-7.9v-4.7h21.5v4.7h-7.9v22.5H1132.3z"/>
	<rect id="長方形_3723" x="1149.1" y="5142.9" width="5.7" height="27.3"/>
	<path id="パス_9766" d="M1184.6,5156.6c0,8.7-5.1,14-13.2,14s-13.2-5.4-13.2-14s5-14.1,13.2-14.1
		C1179.6,5142.5,1184.6,5147.9,1184.6,5156.6 M1164.2,5156.6c0,5.7,2.9,9.3,7.4,9.3c4.4,0,7.3-3.6,7.3-9.3c0-5.7-2.9-9.3-7.3-9.3
		S1164.2,5150.9,1164.2,5156.6"/>
	<path id="パス_9767" d="M1188.4,5170.2v-27.3h4.8l12.7,17.7h0.2v-17.7h5.5v27.3h-4.7l-12.7-17.8h-0.2v17.8H1188.4z"/>
	<rect id="長方形_3724" x="1038" y="5088.2" width="180" height="1.9"/>
	<rect id="長方形_3725" x="1038" y="5185" width="180" height="1.9"/>
</g>
</svg>
