<?xml version="1.0" encoding="utf-8"?>
<!-- Generator: Adobe Illustrator 25.4.1, SVG Export Plug-In . SVG Version: 6.00 Build 0)  -->
<svg version="1.1" id="レイヤー_1" xmlns="http://www.w3.org/2000/svg" xmlns:xlink="http://www.w3.org/1999/xlink" x="0px"
	 y="0px" viewBox="0 0 510.2 258" style="enable-background:new 0 0 510.2 258;" xml:space="preserve">
<style type="text/css">
	.st0{fill:none;stroke:#F5A644;stroke-width:2;stroke-miterlimit:10;stroke-dasharray:2,5;}
	.st1{clip-path:url(#SVGID_00000054985869936166888730000000009908879611659699_);}
	.st2{fill:#EFEFEF;}
	.st3{fill:#F5A644;}
	.st4{fill:#FFFFFF;}
	.st5{fill:#444444;}
</style>
<g id="レイヤー_2_00000181055432142954050340000013463249390175127687_">
	<g id="レイヤー_1-2">
		<line class="st0" x1="0" y1="255.1" x2="510.2" y2="255.1"/>
		<line class="st0" x1="0" y1="1" x2="510.2" y2="1"/>
		<g>
			<defs>
				<rect id="SVGID_1_" x="3" y="91.4" width="422.2" height="164.7"/>
			</defs>
			<clipPath id="SVGID_00000021115928367362520080000013011318237313866637_">
				<use xlink:href="#SVGID_1_"  style="overflow:visible;"/>
			</clipPath>
			<g style="clip-path:url(#SVGID_00000021115928367362520080000013011318237313866637_);">
				<polygon class="st2" points="-86.6,268.5 -100.6,268.5 20.7,80.4 34.8,80.4 				"/>
				<polygon class="st2" points="-60.6,268.5 -74.7,268.5 46.7,80.4 60.8,80.4 				"/>
				<polygon class="st2" points="-34.6,268.5 -48.7,268.5 72.7,80.4 86.7,80.4 				"/>
				<polygon class="st2" points="-8.7,268.5 -22.7,268.5 98.6,80.4 112.7,80.4 				"/>
				<polygon class="st2" points="17.3,268.5 3.2,268.5 124.6,80.4 138.7,80.4 				"/>
				<polygon class="st2" points="43.3,268.5 29.2,268.5 150.6,80.4 164.6,80.4 				"/>
				<polygon class="st2" points="69.2,268.5 55.2,268.5 176.5,80.4 190.6,80.4 				"/>
				<polygon class="st2" points="95.2,268.5 81.1,268.5 202.5,80.4 216.6,80.4 				"/>
				<polygon class="st2" points="121.2,268.5 107.1,268.5 228.5,80.4 242.5,80.4 				"/>
				<polygon class="st2" points="147.1,268.5 133.1,268.5 254.4,80.4 268.5,80.4 				"/>
				<polygon class="st2" points="173.1,268.5 159,268.5 280.4,80.4 294.5,80.4 				"/>
				<polygon class="st2" points="199.1,268.5 185,268.5 306.4,80.4 320.4,80.4 				"/>
				<polygon class="st2" points="225,268.5 211,268.5 332.3,80.4 346.4,80.4 				"/>
				<polygon class="st2" points="251,268.5 236.9,268.5 358.3,80.4 372.4,80.4 				"/>
				<polygon class="st2" points="277,268.5 262.9,268.5 384.3,80.4 398.3,80.4 				"/>
				<polygon class="st2" points="302.9,268.5 288.9,268.5 410.2,80.4 424.3,80.4 				"/>
				<polygon class="st2" points="328.9,268.5 314.8,268.5 436.2,80.4 450.3,80.4 				"/>
				<polygon class="st2" points="354.9,268.5 340.8,268.5 462.2,80.4 476.2,80.4 				"/>
				<polygon class="st2" points="380.8,268.5 366.8,268.5 488.1,80.4 502.2,80.4 				"/>
				<polygon class="st2" points="406.8,268.5 392.7,268.5 514.1,80.4 528.2,80.4 				"/>
			</g>
		</g>
		<path class="st3" d="M423.2,93v161.1H2V93H423.2 M425.2,91H0v165.1h425.2V91z"/>
		<rect y="181.1" class="st3" width="141.7" height="75"/>
		<path class="st4" d="M27.5,195.9c0,0.3,0,0.6,0,0.9v2.8c0,0.3,0,0.6,0,0.9h-1.4c0-0.3,0.1-0.6,0-0.9v-2.7c0-0.3,0-0.6,0-0.9
			L27.5,195.9z M32,195.9c0,0.3,0,0.6,0,0.9v1.4c0,1,0,2-0.3,3c-0.3,1-1,1.9-2,2.3c-0.6,0.3-1.3,0.6-2,0.8c-0.2-0.4-0.4-0.8-0.7-1.2
			c0.8-0.1,1.5-0.4,2.2-0.8c0.9-0.5,1.4-1.5,1.4-2.6c0-0.4,0-0.9,0-1.7v-1.2c0-0.3,0-0.6,0-0.9L32,195.9z"/>
		<path class="st4" d="M42.6,197.2c-0.1,0.3-0.2,0.5-0.2,0.8c-0.2,1.8-0.3,2.5-0.6,4H43c0.4,0,0.9,0,1.3-0.1v1.3
			c-0.4,0-0.8-0.1-1.3-0.1h-6c-0.4,0-0.9,0-1.3,0.1V202c0.4,0,0.8,0,1.3,0h3.5c0.3-1.4,0.5-2.7,0.6-4.1H38c-0.4,0-0.7,0-1.1,0.1
			v-1.3c0.4,0.1,0.7,0.1,1.1,0.1h2.9c0.4,0,0.7,0,1.1-0.1L42.6,197.2z"/>
		<path class="st4" d="M47.3,199.3c0.5,0.1,1.1,0.1,1.6,0.1h5.3c0.5,0,1.1,0,1.6-0.1v1.4c-0.5-0.1-1.1-0.1-1.6-0.1H49
			c-0.5,0-1.1,0-1.6,0.1L47.3,199.3z"/>
		<path class="st4" d="M65.7,204.1c-0.9-1.1-1.9-2.1-3.1-3c-1.1,1.2-2.4,2.2-3.8,2.9c-0.2-0.4-0.5-0.8-0.8-1.1
			c0.7-0.3,1.4-0.6,2-1.1c1.5-1,2.6-2.4,3.4-4.1l0.1-0.3l-3.3,0.1c-0.4,0-0.7,0-1.1,0.1v-1.3c0.3,0,0.6,0.1,0.9,0.1h0.2l3.5-0.1
			c0.3,0,0.6,0,0.9-0.1l0.7,0.7c-0.1,0.2-0.2,0.3-0.3,0.5c-0.4,1-0.9,1.9-1.6,2.8c0.7,0.4,1.3,0.9,1.9,1.4c0.2,0.2,0.2,0.2,1.5,1.4
			L65.7,204.1z"/>
		<path class="st4" d="M73.3,196.1c0-0.2,0-0.5-0.1-0.7h1.3c-0.1,0.2-0.1,0.5-0.1,0.7v0.5h2.8c0.4,0,0.8,0,1.2-0.1v1.1
			c-0.4-0.1-0.8-0.1-1.2-0.1h-6.6c-0.4,0-0.8,0-1.2,0.1v-1.1c0.4,0.1,0.8,0.1,1.3,0.1h2.6V196.1z M73.3,198.6c0-0.2,0-0.5,0-0.7h1.2
			c0,0.2,0,0.5,0,0.7v0.1h2.3c0.4,0,0.7,0,1,0c0,0.3,0,0.6,0,0.9v2.9c0,0.9-0.3,1.1-1.5,1.1c-0.2,0-0.4,0-0.8,0
			c0-0.4-0.1-0.7-0.3-1.1c0.3,0.1,0.7,0.1,1,0.1c0.4,0,0.5-0.1,0.5-0.3v-2.6h-2.3v3.7c0,0.4,0,0.8,0.1,1.2h-1.3
			c0-0.4,0.1-0.8,0.1-1.2v-3.7h-2v2.9c0,0.4,0,0.8,0.1,1.2h-1.2c0-0.4,0.1-0.8,0.1-1.2v-3c0-0.3,0-0.6,0-0.9c0.3,0,0.6,0,1,0h2.1
			L73.3,198.6z"/>
		<path class="st4" d="M85.4,201.5c-0.4,0.3-0.8,0.6-1.2,0.9c-0.1-0.2-0.2-0.4-0.4-0.5c-0.6,0.4-1.3,0.7-2,1.1l-0.1,0.1l-0.1,0.1
			l-0.2-1.2c0.4-0.1,0.8-0.2,1.1-0.4v-2.6h-0.3c-0.3,0-0.5,0-0.8,0.1v-1.1c0.3,0,0.5,0,0.8,0h0.3v-1.2c0-0.4,0-0.7-0.1-1.1h1.2
			c-0.1,0.4-0.1,0.7-0.1,1.1v1.2h0.2c0.2,0,0.5,0,0.7,0v1c-0.2,0-0.4,0-0.7,0h-0.2v2.2l0.7-0.4v0.7c0.5-0.3,0.9-0.6,1.2-1h-0.2
			c-0.3,0-0.6,0-0.9,0v-1c0.3,0,0.6,0.1,0.9,0.1h4.4c0.3,0,0.7,0,1-0.1v1c-0.3,0-0.7,0-1,0h-3c-0.1,0.1-0.2,0.3-0.3,0.4h3.2
			c0.5,0,0.7,0,1,0c0,0.2,0,0.3,0,0.6c0,0.9-0.1,1.8-0.4,2.7c-0.2,0.5-0.5,0.6-1.4,0.6h-0.8c0-0.3-0.1-0.6-0.3-0.9
			c-0.5,0.4-1.1,0.8-1.7,1.1c-0.2-0.3-0.4-0.6-0.7-0.8c0.7-0.3,1.3-0.6,1.8-1.1c0.4-0.4,0.8-0.8,1-1.3h-0.6c-0.7,1-1.6,1.8-2.8,2.2
			c-0.2-0.3-0.4-0.6-0.6-0.8c0.9-0.3,1.7-0.8,2.3-1.4L85.4,201.5z M85.7,199c-0.4,0-0.7,0-0.9,0c0-0.3,0-0.7,0-1v-1.5
			c0-0.3,0-0.6,0-0.9c0.3,0,0.7,0.1,1,0.1h2.9c0.4,0,0.7,0,1.1-0.1c0,0.3,0,0.7,0,1v1.4c0,0.3,0,0.6,0,0.9h-0.9L85.7,199z M85.9,197
			h2.8v-0.4h-2.8L85.9,197z M85.9,198.1h2.8v-0.4h-2.8L85.9,198.1z M88.9,201.5c-0.3,0.8-0.8,1.4-1.4,2c0.3,0.1,0.7,0.1,1,0.1
			c0.4,0,0.5-0.1,0.6-0.5c0.1-0.5,0.1-1,0.2-1.5L88.9,201.5z"/>
		<path class="st4" d="M95.9,200.3c0.4,0.7,0.9,1.3,1.5,1.8l-0.1,0.2c-0.2,0.2-0.3,0.5-0.5,0.8c-0.5-0.5-0.9-1-1.2-1.6
			c-0.1,0.5-0.3,0.9-0.5,1.4c-0.3,0.6-0.7,1.1-1.1,1.5c-0.2-0.3-0.5-0.6-0.8-0.9c0.5-0.4,0.9-0.9,1.2-1.5c0.2-0.5,0.4-1.1,0.4-1.6
			h-0.4c-0.3,0-0.6,0-0.9,0.1v-1.1c0.3,0,0.6,0.1,0.9,0.1h0.6c0-0.4,0-0.7,0-1.3h-0.5c-0.3,0-0.6,0-0.8,0v-1c0.3,0,0.6,0.1,0.9,0.1
			H95c0-0.5,0-1-0.1-1.5h1.2c-0.1,0.5-0.1,1-0.1,1.4h0.3c0.3,0,0.6,0,0.9,0v1c-0.3,0-0.5,0-0.8,0H96c0,0.6,0,0.8,0,1.3h0.4
			c0.3,0,0.6,0,0.9-0.1v1.1c-0.3,0-0.5-0.1-0.8-0.1L95.9,200.3z M99.3,201.6c0,0.7-0.2,1.3-0.6,1.8c-0.5,0.6-1.1,1-1.7,1.3
			c-0.2-0.3-0.5-0.6-0.8-0.9c1.4-0.4,2-1.1,2.1-2.3c-0.3,0-0.6,0-0.8,0c0-0.2,0-0.6,0-1v-3.9c0-0.3,0-0.7,0-1c0.3,0,0.7,0,1,0h2.4
			c0.3,0,0.7,0,1,0c0,0.3,0,0.7,0,1v3.9c0,0.3,0,0.7,0,1c-0.1,0-0.2,0-0.3,0h-0.2h-0.4h-0.2v1.7c0,0.2,0.1,0.2,0.4,0.2
			s0.4-0.1,0.5-1.4c0.3,0.2,0.6,0.4,0.9,0.4c-0.1,1.8-0.3,1.9-1.6,1.9c-0.9,0-1.2-0.2-1.2-0.7v-2.2L99.3,201.6z M98.6,197.4h2.3
			v-0.7h-2.3L98.6,197.4z M98.6,199h2.3v-0.7h-2.3L98.6,199z M98.6,200.6h2.3v-0.7h-2.3L98.6,200.6z"/>
		<path class="st4" d="M107.6,198.2c0.2,0.6,0.6,1.2,1,1.8c-0.2,0.3-0.3,0.6-0.5,0.9c-0.3-0.4-0.5-0.9-0.6-1.4c0,0.5,0,0.9,0,1.4
			v2.6c0,0.4,0,0.8,0.1,1.2h-1.1c0-0.4,0.1-0.8,0.1-1.2v-2.1c0-0.7,0-1.1,0-1.3c-0.2,0.8-0.6,1.5-1,2.2c-0.1-0.4-0.2-0.8-0.4-1.1
			c0.4-0.5,0.7-1.1,0.9-1.7c0.2-0.4,0.3-0.8,0.4-1.3h-0.3c-0.2,0-0.5,0-0.7,0v-1c0.2,0,0.5,0,0.7,0h0.4v-0.8c0-0.3,0-0.7,0-1h1.1
			c0,0.3,0,0.7,0,1v0.8h0.3c0.2,0,0.4,0,0.6,0v1c-0.2,0-0.4,0-0.6,0H107.6z M110.7,201.6c0-0.2,0-0.3,0-0.5h-1.2h-0.9
			c0-0.2,0-0.4,0-0.8v-1.8c0-0.3,0-0.6,0-0.8c0.3,0,0.6,0,0.9,0h3.5c0.3,0,0.6,0,0.9,0c0,0.2,0,0.4,0,0.8v1.8c0,0.4,0,0.6,0,0.8
			c-0.3,0-0.5,0-0.9,0h-1.3c0,0.3,0,0.3,0,0.5h1.8c0.3,0,0.7,0,1-0.1v1c-0.3,0-0.7-0.1-1-0.1H112c0.7,0.7,1.6,1.1,2.6,1.1
			c-0.2,0.3-0.3,0.7-0.4,1c-1.2-0.2-2.2-0.8-3-1.7c-0.3,0.4-0.6,0.7-1.1,1c-0.6,0.3-1.2,0.6-1.8,0.7c-0.1-0.3-0.3-0.7-0.5-0.9
			c0.5-0.1,0.9-0.2,1.4-0.4c0.5-0.2,0.9-0.5,1.2-0.9h-1.1c-0.3,0-0.7,0-1,0.1v-1c0.3,0,0.7,0,1,0L110.7,201.6z M110.7,197.1
			c0,0.2,0,0.3,0,0.5h-1.1c0-0.2,0-0.3,0-0.5h-0.5c-0.3,0-0.6,0-0.9,0v-1c0.3,0,0.6,0,0.9,0h0.5V196c0-0.2,0-0.4,0-0.6h1.1
			c0,0.2,0,0.4,0,0.6v0.1h1.3V196c0-0.2,0-0.4,0-0.6h1c0,0.2,0,0.4,0,0.6v0.1h0.5c0.3,0,0.7,0,1-0.1v1c-0.3,0-0.7,0-1,0H113
			c0,0.2,0,0.3,0,0.5h-1.1c0-0.2,0-0.3,0-0.5L110.7,197.1z M109.7,199h3.2v-0.4h-3.2V199z M109.7,200.2h3.2v-0.4h-3.2V200.2z"/>
		<path class="st4" d="M31,238.4c-1.3,0-2.6,0-3.9,0.1c0.1-1.3,0.4-2.6,0.8-3.8c0.9-2.3,2.3-4.3,4.1-5.9c1.6-1.3,3.2-2.5,5-3.6
			c2.8-1.9,3.6-2.9,3.6-4.4c0-2-1.6-3.3-4.1-3.3c-1.5-0.1-2.9,0.5-3.8,1.8c-0.5,0.8-0.9,1.8-0.9,2.8l-4.3-0.5
			c0.2-1.8,0.9-3.4,2.1-4.8c1.5-1.7,3.9-2.7,6.9-2.7c5.2,0,8.5,2.5,8.5,6.6c0.1,1.8-0.7,3.6-2.1,4.8c-0.8,0.8-1.1,1-5,3.7
			c-1.3,0.9-2.5,1.9-3.6,3c-0.8,0.8-1.3,1.7-1.7,2.7h8.4c1.5,0,2.9-0.1,4.4-0.2v4c-1.4-0.1-2.6-0.2-4.5-0.2L31,238.4z"/>
		<path class="st4" d="M48.8,238.4V234h4.4v4.4L48.8,238.4z"/>
		<path class="st4" d="M70.4,220.4c-0.8-2.2-1.9-3-4-3c-2.1,0-3.9,1.2-4.7,3.1c-0.8,1.7-1.2,3.5-1.2,5.3c1.6-2.2,3.4-3,6.4-3
			c2.8-0.2,5.5,1.2,7,3.6c0.8,1.4,1.1,2.9,1.1,4.5c0,4.7-3.6,8.1-8.7,8.1c-2.2,0.1-4.4-0.6-6.1-2c-2.2-1.9-3.5-5.5-3.5-10.1
			c0-3.7,0.9-7.2,2.5-9.3c1.7-2.4,4.4-3.7,7.3-3.6c2.3-0.1,4.5,0.7,6.1,2.3c0.8,0.9,1.5,1.9,1.9,3.1L70.4,220.4z M61,230.9
			c0.2,2.8,2.6,4.9,5.4,4.7c1.5-0.1,2.9-0.9,3.8-2.1c0.5-0.8,0.7-1.8,0.7-2.7c0-3-1.8-4.7-4.7-4.7c-2.7-0.2-5,1.9-5.1,4.5
			C61,230.7,61,230.8,61,230.9z"/>
		<path class="st4" d="M85.4,228.9c0,3.5-0.8,5.9-2.7,7.7c-1.2,1.1-2.5,2-4,2.5c-0.4-0.7-0.8-1.4-1.4-2c1.3-0.4,2.6-1.1,3.7-2
			c1.2-1,1.9-2.4,2-4c-1.6,0.8-3.3,1.5-5.1,2.1l-0.6-2.4c2-0.4,4-1,5.8-1.9v-0.3v-5.9c0-0.7,0-1.4-0.1-2.1h2.4
			c-0.1,0.7-0.1,1.5-0.1,2.2L85.4,228.9z M79.5,222.2c1.1,1.4,2.2,2.9,3,4.4l-1.8,1.4c-0.8-1.6-1.8-3.2-2.9-4.6L79.5,222.2z
			 M89.4,220.6c-0.1,0.7-0.1,1.4-0.1,2.2v13.1c0,0.4,0.1,0.5,0.6,0.5c0.5,0,1,0.1,1.5,0.1c1.1,0,1.6-0.1,1.8-0.5
			c0.2-0.8,0.3-1.7,0.3-2.6c0.7,0.3,1.4,0.6,2.1,0.7c-0.1,2.1-0.4,3.2-0.9,3.7s-1.4,0.7-3.3,0.7c-1.1,0.1-2.1,0-3.1-0.2
			c-0.8-0.2-1-0.7-1-1.7v-13.7c0-0.7,0-1.5-0.1-2.2L89.4,220.6z M90.7,228.4c1.7,0.9,3.3,1.9,4.8,3.1l-1.4,1.9
			c-1.4-1.3-3-2.5-4.7-3.4L90.7,228.4z M94.8,223.3c-1.1,1.7-2.3,3.2-3.8,4.6l-1.6-1.4c0.7-0.6,1.4-1.4,2-2.1c0.6-0.7,1-1.5,1.4-2.3
			L94.8,223.3z"/>
		<path class="st4" d="M100.3,236.4c0,0.8,0,1.6,0.1,2.3H98c0.1-0.8,0.1-1.6,0.1-2.4v-13.1c0-0.6,0-1.3-0.1-1.9
			c0.7,0.1,1.5,0.1,2.2,0.1h12.2c0.7,0,1.5,0,2.2-0.1c-0.1,0.7-0.1,1.5-0.1,2.2v12.8c0,1-0.2,1.6-0.8,1.9c-0.7,0.2-1.4,0.3-2.1,0.3
			c-0.8,0-1.9,0-2.7-0.1c-0.1-0.7-0.3-1.5-0.6-2.2c1.3,0.1,2.3,0.2,3,0.2s0.9-0.1,0.9-0.5V231h-11.9L100.3,236.4z M105.1,223.5h-4.7
			v5.5h4.7V223.5z M112.2,228.9v-5.4h-5v5.5L112.2,228.9z"/>
		<path class="st5" d="M29,113.2c0,0.1-0.1,0.2-0.1,0.3c0,0.1,0,0.2-0.1,0.3s0,0.2-0.2,1c0,0.2,0,0.2-0.1,0.4h0.6
			c0.5,0,1.1,0.2,1.5,0.5c0.4,0.5,0.6,1.1,0.5,1.8c0.1,1.3-0.2,2.5-0.8,3.6c-0.3,0.3-0.7,0.5-1.1,0.4c-0.5,0-1-0.1-1.5-0.3
			c0-0.2,0-0.3,0-0.4c0-0.3,0-0.6-0.1-0.8c0.5,0.2,1,0.4,1.5,0.4c0.3,0,0.5-0.2,0.6-0.7c0.2-0.7,0.3-1.5,0.3-2.3
			c0-0.9-0.2-1.2-1-1.2c-0.2,0-0.4,0-0.6,0c-0.2,0.7-0.4,1.5-0.6,2.2c-0.3,1-0.7,1.9-1.2,2.8l-0.1,0.3l-0.1,0.2l-1.2-0.7
			c0.4-0.6,0.7-1.2,1-1.9c0.4-0.9,0.8-1.9,1-2.8c-0.6,0.1-1.2,0.2-1.8,0.3l-0.1-1.2c0.4,0,1.6-0.1,2.1-0.2c0.1-0.7,0.2-1.3,0.3-2
			V113L29,113.2z M32.3,114.5c1,1.1,1.7,2.5,2,3.9l-1.1,0.6c-0.2-0.8-0.4-1.6-0.8-2.3c-0.3-0.6-0.7-1.2-1.2-1.7L32.3,114.5z"/>
		<path class="st5" d="M42.9,113.8c-0.4,0.3-0.8,0.7-1.2,1.1c-0.5,0.5-1.2,1-2.4,1.9c-0.3,0.2-0.4,0.3-0.4,0.4s0,0.2,0.9,0.8
			c1.1,0.8,2.2,1.7,3.2,2.6c0.1,0.1,0.2,0.2,0.3,0.2l-1,1c-0.4-0.5-0.8-1-1.3-1.4c-0.8-0.8-1.7-1.5-2.6-2.1
			c-0.7-0.5-0.8-0.8-0.8-1.2c0-0.3,0.1-0.6,0.3-0.8c0.3-0.3,0.6-0.5,0.9-0.7c0.8-0.6,1.6-1.2,2.3-1.9c0.3-0.2,0.5-0.5,0.7-0.8
			L42.9,113.8z"/>
		<path class="st5" d="M49.4,116.6c0.4-0.4,0.8-0.7,1.2-1c0.6-0.5,1.3-0.9,2.1-0.9c0.7-0.1,1.3,0.5,1.4,1.2c0,0.1,0,0.1,0,0.2
			c0,0.5-0.1,1-0.2,1.5c-0.2,0.7-0.3,1.5-0.4,2.2c0,0.3,0.1,0.5,0.4,0.5c0.3-0.1,0.5-0.2,0.7-0.5c0.2-0.4,0.4-0.7,0.6-1.1
			c0.2,0.4,0.4,0.8,0.7,1.2c-0.2,0.4-0.4,0.7-0.7,1c-0.4,0.4-0.9,0.7-1.5,0.7c-0.3,0-0.6-0.1-0.9-0.3c-0.4-0.3-0.6-0.8-0.5-1.3
			c0-0.9,0.2-1.7,0.4-2.5c0.1-0.4,0.2-0.8,0.2-1.3c0-0.2-0.1-0.4-0.4-0.4c-0.5,0.1-0.9,0.2-1.2,0.5c-0.7,0.5-1.3,1-1.8,1.6
			c0,0.4,0,0.7,0,1c0,0.1,0,0.1,0,1.2c0,0.5,0,1.1,0,1.7h-1.2c0.1-0.5,0.1-1.1,0.1-1.6c0-1.1,0-1.1,0-1.3l0,0
			c-0.2,0.3-0.5,0.6-0.7,0.8c-0.2,0.2-0.3,0.4-0.5,0.6l-0.6-1.2c0.2-0.2,0.5-0.4,0.7-0.6c0.9-0.9,0.9-0.9,1.1-1.1c0-0.5,0-0.6,0-1
			c0-0.2,0-0.2,0-0.5c-0.5,0-1,0.1-1.5,0.1l-0.1-1.1c0.1,0,0.3,0,0.4,0l1.2-0.1c0-0.2,0-0.2,0-0.4s0-0.6,0-0.8c0-0.2,0-0.4,0-0.6
			h1.3c0,0.1,0,0.2,0,0.4c0,0,0,0.2,0,0.4s0,0.3,0,0.9h0.1l0.4,0.4c-0.1,0.1-0.2,0.2-0.3,0.3c-0.1,0.1-0.1,0.1-0.1,0.2l-0.1,0.2v0.6
			C49.5,116.4,49.5,116.4,49.4,116.6L49.4,116.6z"/>
		<path class="st5" d="M62.4,114.4c-0.3,0.3-0.6,0.6-1,0.8c-0.2-0.3-0.4-0.5-0.7-0.7c0.7-0.4,1.3-1,1.6-1.8l1,0.2
			c-0.1,0.1-0.1,0.2-0.2,0.3c-0.1,0.1-0.1,0.2-0.2,0.3h3c0.3,0,0.5,0,0.8,0l0.6,0.4c-0.1,0.1-0.1,0.2-0.2,0.3
			c-0.3,0.4-0.5,0.7-0.9,1c-0.3-0.2-0.6-0.3-0.9-0.4c0.2-0.2,0.5-0.4,0.7-0.6h-1.6c0.3,1,1.3,1.5,3.2,1.6c-0.2,0.3-0.3,0.6-0.4,1
			c-0.3,0-0.6-0.1-0.9-0.2c0,0.3,0,0.6,0,0.9v1.8c0,0.5,0,0.9,0,1.1c-0.2,0-0.6,0-1,0h-0.5c0.9,0.4,1.8,0.6,2.8,0.7
			c-0.2,0.3-0.4,0.6-0.6,0.9c-1.2-0.1-2.3-0.5-3.3-1.2l0.6-0.4h-2.7l0.6,0.4c-1,0.6-2,1-3.2,1.1c-0.2-0.3-0.4-0.6-0.6-0.9
			c0.9-0.1,1.8-0.3,2.7-0.7h-0.4c-0.5,0-0.8,0-1.1,0c0-0.2,0-0.6,0-1v-2c0-0.3,0-0.7,0-1c0.2,0,0.6,0,1,0h0.5
			c-0.1-0.2-0.3-0.4-0.4-0.6c-0.6,0.3-0.7,0.3-1.4,0.6l-0.4,0.2l-0.4-1c0.9-0.2,1.7-0.5,2.5-0.9l0.3,0.9l-0.4,0.2
			c0.5,0,1-0.2,1.5-0.4c0.5-0.2,0.9-0.6,1-1.1L62.4,114.4z M60.3,114.7c-0.5-0.4-1-0.7-1.6-1l0.7-0.8c0.6,0.2,1.1,0.6,1.6,0.9
			L60.3,114.7z M60.7,117.7h4.6v-0.4h-4.6L60.7,117.7z M60.7,118.7h4.6v-0.4h-4.6L60.7,118.7z M60.7,119.7h4.6v-0.4h-4.6L60.7,119.7
			z M65.3,116.5h0.3c-0.7-0.2-1.3-0.7-1.7-1.3c-0.2,0.4-0.5,0.7-0.9,0.9c-0.3,0.2-0.7,0.3-1.1,0.4L65.3,116.5z"/>
		<path class="st5" d="M73.1,119c-0.2,0.2-0.3,0.4-0.5,0.6c-0.2-0.3-0.4-0.5-0.6-0.7c-0.1,1.1-0.4,2.2-1,3.1c-0.2-0.4-0.5-0.7-0.8-1
			c0.3-0.4,0.5-0.9,0.6-1.3c0.2-1.1,0.3-2.2,0.3-3.3c0-0.4,0-0.8,0-1.1c0.4,0,0.8,0,1.1,0h1c-0.1-0.3-0.2-0.6-0.3-0.8H72
			c-0.3,0-0.7,0-1,0v-1.1c0.4,0,0.7,0.1,1.1,0.1h2.4v-0.1c0-0.2,0-0.4,0-0.6h1.2c0,0.2-0.1,0.4-0.1,0.6v0.1h2.4c0.4,0,0.7,0,1.1-0.1
			v1.1c-0.4,0-0.7,0-1.1,0h-0.8c-0.1,0.3-0.3,0.6-0.4,0.8h1.3c0.4,0,0.7,0,1.1,0v1c-0.4,0-0.7,0-1.1,0h-6.2c0,0.8,0,1.6-0.1,2.3
			c0.3-0.3,0.5-0.6,0.7-0.9c0.2-0.4,0.4-0.8,0.5-1.3l1,0.2l-0.2,0.5h1.1c0-0.2,0-0.4,0-0.6h1.1c0,0.2,0,0.4,0,0.6H78
			c0.3,0,0.7,0,1,0v1.1c-0.3,0-0.7,0-1,0h-1.8v0.8h1.5c0.3,0,0.6,0,0.9,0v1c-0.3,0-0.6,0-0.9,0h-1.5v1h2.2c0.3,0,0.7,0,1,0v1.1
			c-0.3,0-0.7-0.1-1-0.1h-5.6c-0.3,0-0.7,0-1,0V121c0.3,0,0.6,0,0.9,0h2.3v-1H74c-0.3,0-0.6,0-0.9,0V119z M73.6,118.1
			c-0.1,0.3-0.3,0.5-0.5,0.8c0.3,0,0.6,0,0.8,0h1.2v-0.8L73.6,118.1z M75.9,115.4c0.2-0.3,0.3-0.5,0.4-0.8H74
			c0.1,0.3,0.2,0.6,0.3,0.8H75.9z"/>
		<path class="st5" d="M85.3,122.2c-0.5-0.6-0.8-1.3-1.1-2c-0.4-0.9-0.5-1.8-0.5-2.8c0-0.9,0.2-1.8,0.5-2.7c0.3-0.7,0.6-1.4,1.1-2
			h1.4c-0.5,0.6-0.9,1.3-1.3,2c-0.4,0.8-0.5,1.7-0.5,2.7c0,0.9,0.2,1.9,0.5,2.7c0.3,0.7,0.7,1.4,1.3,2L85.3,122.2z"/>
		<path class="st5" d="M97.1,113.6l0.3,0.3l-3.5,3.6l3.5,3.5l-0.3,0.3l-3.5-3.5l-3.6,3.5l-0.3-0.3l3.6-3.6l-3.6-3.6l0.3-0.3l3.5,3.5
			L97.1,113.6z M91.5,117.4c0,0.4-0.3,0.8-0.7,0.8c0,0,0,0,0,0c-0.4,0-0.8-0.3-0.8-0.8c0-0.4,0.4-0.7,0.9-0.7
			C91.1,116.8,91.4,117.1,91.5,117.4z M94.3,120.4c0,0.4-0.3,0.8-0.8,0.8c-0.4,0-0.8-0.3-0.8-0.7s0.3-0.8,0.7-0.8h0.1l0,0
			C94,119.6,94.3,119.9,94.3,120.4C94.3,120.3,94.3,120.4,94.3,120.4z M94.3,114.6c0,0.4-0.3,0.8-0.7,0.8c0,0,0,0,0,0
			c-0.4,0-0.8-0.3-0.8-0.8c0-0.4,0.3-0.8,0.8-0.8C94,113.8,94.3,114.1,94.3,114.6C94.3,114.6,94.3,114.6,94.3,114.6L94.3,114.6z
			 M97.2,117.5c0,0.4-0.3,0.8-0.8,0.8c-0.4,0-0.8-0.3-0.8-0.8c0-0.4,0.3-0.8,0.8-0.8c0,0,0,0,0,0C96.8,116.7,97.2,117,97.2,117.5
			C97.2,117.5,97.2,117.5,97.2,117.5L97.2,117.5z"/>
		<path class="st5" d="M100.4,122.2c0.5-0.6,1-1.3,1.3-2c0.4-0.9,0.5-1.8,0.5-2.7c0-0.9-0.2-1.8-0.5-2.7c-0.3-0.7-0.8-1.4-1.3-2h1.4
			c0.5,0.6,0.8,1.3,1.1,2c0.3,0.8,0.5,1.8,0.5,2.7c0,0.9-0.2,1.9-0.5,2.8c-0.3,0.7-0.6,1.4-1.1,2L100.4,122.2z"/>
		<path class="st5" d="M29,146.3c0.4,0.1,0.7,0.1,1.1,0.1c0.1,0,0.3,0,0.4,0c0.4-0.5,0.6-0.8,1-1.3c-0.7-1.1-1.6-2.2-2.5-3.1l1-1.7
			c0.3,0.4,0.4,0.5,0.7,0.7c0.7-1,1.2-2.2,1.5-3.3l2,0.9c-0.2,0.2-0.3,0.4-0.4,0.7c-0.5,1.1-1.2,2.2-1.9,3.2
			c0.3,0.4,0.5,0.6,0.7,0.9c0.7-1.1,1.4-2.2,1.9-3.4l1.9,1l-0.5,0.8l-0.2,0.3c-0.1,0.1-0.1,0.2-0.2,0.2c1-0.6,1.9-1.5,2.5-2.5
			c0.4-0.6,0.7-1.2,1-1.8l1.9,0.9c0,0-0.1,0.1-0.1,0.2l-0.2,0.3c-0.9,1.8-2.2,3.4-3.8,4.6c-0.3-0.6-0.8-1.2-1.4-1.6
			c-0.8,1.4-1.7,2.7-2.7,4c1,0,1.2-0.1,2.1-0.1c-0.2-0.4-0.4-0.9-0.6-1.3l1.3-0.6c0.6,1.2,1.1,2.5,1.5,3.8l-1.5,0.6
			c-0.1-0.4-0.1-0.5-0.2-0.9l-0.6,0.1c-0.1,0-0.3,0-0.8,0.1v6.3c0,0.7,0,1.4,0.1,2.1h-2.2c0.1-0.7,0.1-1.4,0.1-2.1v-6.2
			c-0.9,0-1.8,0.1-2.7,0.2L29,146.3z M31.5,149.3c0,2-0.3,4-0.8,6l-1.7-0.7c0.6-1.8,0.8-3.6,0.8-5.5L31.5,149.3z M34.8,153.2
			c0-1.3-0.2-2.6-0.5-3.9l1.5-0.4c0.3,1.1,0.5,2.2,0.6,3.3c0.2-0.8,0.4-1.7,0.4-2.6l1.8,0.4c-0.2,1.8-0.6,3.5-1.2,5.2l-1.8-1.1
			c0.3-0.5,0.5-0.9,0.7-1.4L34.8,153.2z M45.1,148.1c-0.4-0.8-0.5-1.1-0.8-1.6c-1.5,0.2-1.6,0.3-3.7,0.5c1,0.6,2,1.4,2.9,2.2
			l-1.4,1.5c-0.9-1-1.9-1.9-3.1-2.5l1.2-1c-2.4,0.2-2.9,0.3-3.3,0.3l-0.3-2.1c0.2,0,0.5,0,0.7,0H38c0.4-0.6,0.8-1.2,1.1-1.8
			c0.5-0.9,0.9-1.8,1.2-2.8l2.1,0.6l-0.8,1.6c-0.4,0.8-0.8,1.5-1.3,2.3c1.9-0.1,2.2-0.2,3.2-0.3c-0.4-0.6-0.8-1.2-1.2-1.8l1.6-0.9
			c1.2,1.5,2.2,3,3.1,4.7L45.1,148.1z M40.9,149.5c-0.1,0.4-0.1,0.9-0.1,1.3v3c0,0.4,0,0.5,0.9,0.5c0.3,0,0.6,0,0.9-0.2
			c0.2-0.2,0.3-0.6,0.3-2.1c0.5,0.3,1.2,0.5,1.8,0.6c-0.3,3.3-0.5,3.6-3.5,3.6c-0.7,0.1-1.4-0.1-2-0.3c-0.3-0.2-0.4-0.5-0.4-1.1V151
			c0-0.5,0-1-0.1-1.5L40.9,149.5z M43.7,137.8c0.5,0.9,1.1,1.6,1.9,2.3c0.6,0.6,1.4,1.1,2.2,1.6c-0.5,0.6-0.9,1.2-1.2,1.9
			c-1.7-1.1-3.2-2.5-4.3-4.2c0,0-0.2-0.2-0.4-0.5L43.7,137.8z M45.7,149c0.8,1.6,1.5,3.3,2,5l-2,0.9c-0.3-1.8-0.9-3.6-1.7-5.2
			L45.7,149z"/>
		<path class="st5" d="M56.1,141.5h-5v1.7h-2c0.1-0.4,0.1-0.9,0.1-1.3v-1c0-0.4,0-0.9-0.1-1.4c0.5,0.1,1.1,0.1,1.6,0.1h1.9v-0.4
			c0-0.4,0-0.9-0.1-1.3h2.3c-0.1,0.4-0.1,0.9-0.1,1.3v0.4h1.6c0.8,0,1.2,0,1.5,0v-1.3c0.7,0.1,1.4,0.1,2.1,0.1h5.2
			c0.7,0,1.4,0,2.1-0.1v2.1c-0.7-0.1-1.4-0.1-2.1-0.1h-1.4c-0.1,0.5-0.3,0.9-0.5,1.4h1.3c0.7,0,1.3,0,2-0.1c0,0.6-0.1,1-0.1,1.8v6.9
			c0,0.9,0,1.3,0.1,2.1c-0.7,0-1.2-0.1-1.7-0.1h-0.7c1,1,2.3,1.8,3.7,2.2c-0.5,0.6-0.9,1.2-1.2,1.9c-1.5-0.6-2.9-1.6-4-2.8l1.3-1.3
			h-3.3l1.5,1.3c-1.1,1.3-2.5,2.2-4.1,2.9c-0.3-0.6-0.7-1.1-1.1-1.5c0,0.4,0,0.7,0.1,1h-2v-0.9h-2.7v1.1h-2.1
			c0.1-0.6,0.1-1.2,0.1-1.9v-3.1c0-0.3,0-0.4,0-0.7c-0.3,0.2-0.5,0.2-0.9,0.4c-0.2-0.7-0.5-1.3-1-1.8c1.4-0.4,2.7-1,3.9-1.8
			c-0.4-0.4-0.8-0.8-1.2-1.2c-0.4,0.4-0.9,0.8-1.4,1.2c-0.2-0.6-0.6-1.1-1.1-1.6c1.6-0.9,2.8-2.3,3.4-4L54,142l-0.2,0.3
			c-0.1,0.2-0.1,0.2-0.3,0.6h1.6c0.3,0,0.6,0,0.9,0L56.1,141.5z M55.7,149.7c0.4,0,0.5,0,0.8,0c-0.9-0.4-1.8-0.8-2.7-1.4
			c-0.6,0.5-1.3,1-2.1,1.4L55.7,149.7z M52.5,144.6c0,0.1-0.1,0.2-0.2,0.2c0.4,0.5,0.9,1,1.4,1.4c0.5-0.5,0.9-1,1.3-1.6H52.5z
			 M52.3,153.3h2.8v-1.9h-2.8L52.3,153.3z M57.5,143.9l-0.1,0.1l-0.2,0.3c-0.6,1-1.3,1.9-2.1,2.8c1,0.5,2.1,0.9,3.2,1.2
			c-0.3,0.6-0.6,1.2-0.7,1.8l-0.6-0.2c0,0.6,0,0.6,0,1.4v3.4c0.7-0.2,1.3-0.6,1.9-1c0.6-0.4,1.1-0.8,1.6-1.4h-0.6
			c-0.3,0-0.9,0-1.6,0.1c0-0.5,0.1-1.4,0.1-1.8v-7c0-0.9,0-0.9-0.1-1.9c0.6,0,1.1,0,1.7,0h1.2c0.3-0.7,0.4-1,0.5-1.4H60
			c-0.8,0-1.6,0-2,0.1v1.3c0,0.4,0,0.9,0.1,1.3h-1.2L57.5,143.9z M60.4,144.8h4.1v-1.2h-4.1V144.8z M60.4,147.7h4.1v-1.3h-4.1V147.7
			z M60.4,150.6h4.1v-1.2h-4.1V150.6z"/>
		<path class="st5" d="M73.7,149.4c0.1,1,0.6,1.8,1.4,2.5c1,0.8,2.3,1.2,3.6,1.2c3,0,4.9-1.5,4.9-3.9c0-1.3-0.6-2.4-1.7-3.1
			c-1.1-0.5-2.3-0.7-3.4-0.7c-1.1,0-2.1,0-3.2,0.1v-3.7c1,0.1,1.9,0.2,2.9,0.1c3,0,4.8-1.4,4.8-3.7c0-2.1-1.4-3.2-4-3.2
			c-1.2-0.1-2.3,0.2-3.3,0.9c-0.6,0.6-1.1,1.4-1.3,2.3l-4.3-0.7c0.4-1.8,1.5-3.3,2.9-4.3c1.7-1.2,3.8-1.7,5.9-1.6
			c5,0,8.2,2.5,8.2,6.4c0,1.7-0.8,3.4-2.1,4.4c-0.9,0.6-1.9,1-2.9,1.2c2.1,0.3,3.2,0.8,4.3,2c1,1.1,1.5,2.6,1.4,4.1
			c0,1.6-0.7,3.2-1.8,4.4c-1.7,1.6-4.2,2.4-7.4,2.4c-3.5,0-5.9-0.9-7.6-2.9c-0.8-1-1.4-2.1-1.7-3.4L73.7,149.4z"/>
		<path class="st5" d="M109,135.3c-1.2,1.3-2.3,2.7-3.1,4.3c-3.1,4.9-5,10.5-5.6,16.2h-4.7c0.7-4,1.9-7.9,3.6-11.6
			c1.4-3.1,3.2-6,5.2-8.7h-9.3c-1.3,0-2.6,0.1-3.9,0.2v-4c1.4,0.2,2.7,0.2,4.1,0.2h9.5c1.4,0,2.7,0,4.1-0.1L109,135.3z"/>
		<path class="st5" d="M109.7,155.9v-4.4h4.4v4.4H109.7z"/>
		<path class="st5" d="M121.9,155.9c0.2-1.3,0.3-2.6,0.2-3.9v-16.5h-1.4c-1,0-2.1,0.1-3.1,0.2v-3.8c1,0.2,2,0.2,3,0.2h2.8
			c1,0,2,0,3.1-0.1c-0.2,1.7-0.3,3.3-0.2,5V152c0,1.3,0.1,2.6,0.2,3.9L121.9,155.9z"/>
		<path class="st5" d="M143.3,146.3c0,3.5-0.8,5.9-2.7,7.7c-1.2,1.1-2.5,2-4,2.5c-0.4-0.7-0.8-1.4-1.4-2c1.3-0.4,2.6-1.1,3.7-2
			c1.2-1,1.9-2.4,2.1-3.9c-1.6,0.8-3.3,1.5-5.1,2.1l-0.6-2.4c2-0.4,4-1,5.8-1.9v-0.3v-5.9c0-0.7,0-1.4-0.1-2.1h2.4
			c-0.1,0.7-0.1,1.5-0.1,2.2L143.3,146.3z M137.5,139.6c1.1,1.4,2.2,2.9,3,4.4l-1.8,1.4c-0.8-1.7-1.8-3.2-2.9-4.6L137.5,139.6z
			 M147.3,138.1c-0.1,0.7-0.1,1.4-0.1,2.2v13.1c0,0.4,0.1,0.5,0.6,0.5c0.5,0,1,0.1,1.5,0.1c1.1,0,1.6-0.1,1.8-0.5
			c0.2-0.8,0.3-1.7,0.3-2.6c0.7,0.3,1.4,0.6,2.1,0.7c-0.1,2.1-0.4,3.2-0.9,3.7s-1.4,0.7-3.3,0.7c-1.1,0.1-2.1,0-3.1-0.2
			c-0.8-0.2-1-0.7-1-1.7v-13.7c0-0.8,0-1.5-0.1-2.2H147.3z M148.6,145.8c1.7,0.9,3.3,1.9,4.8,3.1l-1.4,1.9c-1.4-1.4-3-2.5-4.7-3.4
			L148.6,145.8z M152.8,140.7c-1,1.7-2.3,3.2-3.8,4.6l-1.6-1.4c0.7-0.6,1.4-1.4,2-2.1c0.6-0.7,1.1-1.5,1.5-2.3L152.8,140.7z"/>
		<path class="st5" d="M158.3,153.9c0,0.8,0,1.6,0.1,2.3h-2.5c0.1-0.8,0.1-1.6,0.1-2.4v-13.1c0-0.6,0-1.3-0.1-1.9
			c0.7,0.1,1.5,0.1,2.2,0.1h12.2c0.7,0,1.5,0,2.2-0.1c-0.1,0.7-0.1,1.5-0.1,2.2v12.8c0,1-0.2,1.6-0.8,1.9c-0.7,0.2-1.4,0.3-2.1,0.3
			c-0.8,0-1.9,0-2.7-0.1c-0.1-0.7-0.3-1.5-0.6-2.2c1.3,0.1,2.3,0.2,3,0.2s0.9-0.1,0.9-0.5v-4.9h-11.9L158.3,153.9z M163,141h-4.7
			v5.4h4.7V141z M170.2,146.4V141h-5v5.4H170.2z"/>
		<path class="st5" d="M26.9,27.8c0-0.2,0-0.4,0-0.6c0.2,0,0.4,0,0.7,0h2.2V26h-2.1c-0.5,0.7-1,1.4-1.7,2c-0.2-0.3-0.5-0.6-0.7-0.9
			c0.9-0.7,1.5-1.5,2-2.5c0.1-0.2,0.2-0.5,0.2-0.7l1.2,0.2c-0.1,0.1-0.1,0.1-0.1,0.3L28.2,25h4.7c0.3,0,0.7,0,1,0v1
			c-0.3,0-0.7-0.1-1,0h-2v1.3h1.6c0.3,0,0.7,0,1,0v1.1c-0.3,0-0.7,0-1,0h-1.7v1.6h2.3c0.4,0,0.7,0,1.1-0.1V31
			c-0.4,0-0.7-0.1-1.1-0.1h-2.3v1.3c0,0.4,0,0.7,0.1,1.1h-1.2c0-0.4,0.1-0.7,0.1-1.1v-1.3h-3.4c-0.4,0-0.7,0-1.1,0.1v-1.1
			c0.4,0,0.7,0.1,1.1,0.1h0.5V27.8z M29.8,29.8v-1.6H28v1.6L29.8,29.8z"/>
		<path class="st5" d="M38.7,31.9c0,0.4,0,0.8,0.1,1.2h-1.2c0-0.4,0.1-0.8,0.1-1.2v-6.5c0-0.4,0-0.7,0-1.1c0.3,0,0.7,0,1,0h1.8
			c0.3,0,0.7,0,1,0c0,0.3,0,0.5,0,0.9v1.5c0,0.5,0,0.7,0,0.9c-0.3,0-0.6,0-0.9,0h-1.8V31.9z M38.7,25.6h1.7v-0.5h-1.7V25.6z
			 M38.7,26.8h1.7v-0.5h-1.7V26.8z M43.8,31.1c0,0.4,0,0.6,0,0.9c0.2,0,0.6,0,0.8,0s0.5,0,0.5-0.2v-4.2h-2c-0.3,0-0.7,0-0.9,0
			c0-0.3,0-0.5,0-0.9v-1.5c0-0.3,0-0.6,0-0.9c0.3,0,0.7,0,1,0H45c0.3,0,0.7,0,1,0c0,0.4,0,0.6,0,1.1v6.6c0,0.6-0.1,0.9-0.5,1
			c-0.4,0.1-0.7,0.2-1.1,0.1h-0.7c0-0.3-0.1-0.7-0.3-1h-2.7v0.6h-1.1c0-0.3,0.1-0.7,0.1-1v-2.5c0-0.4,0-0.6,0-0.9c0.3,0,0.6,0,0.9,0
			h2.2c0.3,0,0.6,0,0.9,0c0,0.3,0,0.5,0,0.9L43.8,31.1z M40.8,29.7h2v-0.6h-2V29.7z M40.8,31.1h2v-0.6h-2V31.1z M43.1,25.6H45v-0.5
			h-1.9L43.1,25.6z M43.1,26.8H45v-0.5h-1.9L43.1,26.8z"/>
		<path class="st5" d="M50.7,25.5c-0.4,0-1,0-1.4,0.1v-1.2c0.4,0,0.9,0.1,1.3,0.1H57c0.4,0,0.9,0,1.3-0.1v1.2
			c-0.4,0-0.9-0.1-1.3-0.1h-2c-0.2,0.4-0.4,0.8-0.7,1.1v5.2c0,0.4,0,0.8,0.1,1.3H53c0-0.4,0.1-0.8,0.1-1.3v-3c0-0.4,0-0.5,0-0.9
			c-0.4,0.5-0.9,1-1.5,1.5c-0.6,0.5-1.2,0.9-1.9,1.3c-0.2-0.4-0.4-0.7-0.7-1c1.2-0.6,2.2-1.4,3.2-2.3c0.6-0.5,1-1.2,1.4-1.9
			L50.7,25.5z M55.1,27c0.4,0.5,0.9,1,1.5,1.4c0.6,0.5,1.3,0.9,2,1.3c-0.3,0.3-0.5,0.7-0.7,1.1c-1.4-0.8-2.6-1.8-3.5-3L55.1,27z"/>
		<path class="st5" d="M62.9,30c-0.1,1.1-0.4,2.2-1,3.2c-0.3-0.3-0.6-0.6-1-0.8c0.4-0.5,0.6-1.1,0.7-1.7c0.1-0.5,0.2-1,0.2-1.5
			c0-0.8,0.1-2.3,0.1-3.4c0-0.5,0-1,0-1.5c0.3,0,0.6,0,1.2,0h5.6c0.4,0,0.8,0,1.2,0c0,0.3,0,0.6,0,1.1V32c0,0.8-0.3,1-1.4,1
			c-0.3,0-0.8,0-1.1,0c0-0.3-0.1-0.7-0.3-1c0.5,0,0.9,0.1,1.3,0.1s0.5,0,0.5-0.2V30h-2.4v1.6c0,0.4,0,0.8,0,1.2h-1.1
			c0-0.4,0.1-0.8,0.1-1.2V30H62.9z M65.2,27.6H63c0,0.3,0,0.5,0,0.6c0,0.5,0,0.5,0,0.7h2.2V27.6z M65.2,25.3H63v1.4h2.2L65.2,25.3z
			 M68.7,26.7v-1.3h-2.4v1.3H68.7z M68.7,29.1v-1.4h-2.4v1.4H68.7z"/>
		<path class="st5" d="M73.3,29.5c0-0.3,0-0.7,0-1c0.3,0,0.7,0,1,0h2.2c0.3,0,0.5,0,0.8,0c0,0.3,0,0.6,0,0.9v2.7c0,0.3,0,0.6,0,0.9
			h-1.1v-0.4h-1.7v0.5h-1.1c0-0.4,0-0.7,0-1.1L73.3,29.5z M74.3,31.7h1.8v-2.1h-1.7L74.3,31.7z M74.6,25.1c0-0.3,0-0.6,0-0.9
			c0.4,0,0.8,0.1,1.1,0h3.8c0.4,0,0.8,0,1.1,0c0,0.3,0,0.6,0,0.9V27c0,0.3,0,0.6,0,0.9c-0.3,0-0.7,0-1,0h-4c-0.3,0-0.7,0-1,0
			c0-0.3,0-0.6,0-0.9L74.6,25.1z M75.7,26.9h3.8v-1.6h-3.8L75.7,26.9z M81,28.6c0.3,0,0.6,0,0.9,0c0,0.3,0,0.7,0,1v2.6
			c0,0.4,0,0.7,0,1.1h-1v-0.5H79v0.5h-1.1c0-0.3,0-0.5,0-0.9v-3c0-0.5,0-0.6,0-0.8c0.2,0,0.4,0,0.7,0L81,28.6z M79,31.7h1.9v-2.1H79
			V31.7z"/>
		<path class="st5" d="M89.2,30c-0.6,1.3-1.2,1.9-2,1.9c-1.1,0-2-1.2-2-2.8c0-1.1,0.4-2.1,1.1-2.9c0.9-0.9,2.1-1.5,3.4-1.4
			c2.4,0,4,1.5,4,3.7c0.1,1.6-0.9,3.1-2.4,3.7c-0.5,0.2-1,0.3-1.6,0.4c-0.1-0.4-0.3-0.8-0.6-1.2c0.7-0.1,1.4-0.2,2-0.5
			c0.9-0.5,1.4-1.5,1.4-2.5c0-0.9-0.4-1.8-1.2-2.2c-0.3-0.2-0.6-0.3-1-0.3C90.1,27.3,89.7,28.7,89.2,30z M87.7,26.4
			c-0.9,0.6-1.4,1.6-1.4,2.7c0,0.8,0.3,1.5,0.8,1.5s0.7-0.4,1-1.3c0.4-1.1,0.7-2.2,0.9-3.3C88.5,26,88.1,26.2,87.7,26.4L87.7,26.4z"
			/>
		<path class="st5" d="M103.8,31.8h0.9c0.4,0,0.7,0,1.1,0v1.1c-0.4,0-0.7,0-1.1,0h-3.4v0.5h-1.1c0-0.3,0.1-0.7,0.1-1v-4
			c0-0.2,0-0.2,0-0.4l-0.4,0.4l-0.1-0.1v1L99,29.5v2.8c0,0.5-0.1,0.8-0.5,0.9c-0.3,0.1-0.7,0.1-1,0.1h-0.6c0-0.3-0.1-0.7-0.2-1
			c0.4,0,0.7,0.1,0.9,0.1s0.3,0,0.3-0.3v-2.3L97.2,30h-0.1H97L96.8,30l-0.1-1c0.4-0.1,0.9-0.2,1.3-0.3v-1.9h-0.5c-0.2,0-0.5,0-0.7,0
			v-1c0.2,0,0.5,0.1,0.7,0.1H98V25c0-0.3,0-0.7-0.1-1h1.2c0,0.3-0.1,0.7-0.1,1v0.8h0.3c0.2,0,0.4,0,0.6,0v0.9
			c0.6-0.8,1.1-1.8,1.3-2.8l1.2,0.2c0,0.1,0,0.1-0.2,0.4c-0.2,0.4-0.3,0.8-0.5,1.2h1.2c0.3-0.5,0.5-1.1,0.7-1.7l1.1,0.2
			c-0.2,0.5-0.4,1-0.7,1.4h0.7c0.3,0,0.7,0,1-0.1v1.1c-0.3,0-0.7-0.1-1-0.1h-0.9v1h0.8c0.3,0,0.6,0,0.9,0v1c-0.3,0-0.6,0-0.9,0h-0.8
			v1.1h0.8c0.3,0,0.6,0,0.9,0v1c-0.3,0-0.6-0.1-0.9,0h-0.8L103.8,31.8z M99,28.4c0.3-0.1,0.4-0.2,0.8-0.3c-0.1-0.3-0.3-0.5-0.5-0.7
			c0.2-0.2,0.3-0.3,0.5-0.5c-0.2,0-0.3,0-0.5,0H99V28.4z M102.8,27.7v-1h-1.4v1H102.8z M101.4,29.7h1.4v-1.1h-1.4V29.7z M101.4,31.8
			h1.4v-1.2h-1.4V31.8z"/>
		<path class="st5" d="M112.8,27.8h-1.5c-0.3,0-0.7,0-1,0v-1.1c0.3,0,0.7,0.1,1,0h3.8c0.3,0,0.7,0,1,0v1.1c-0.3,0-0.7-0.1-1,0h-1.3
			v1.3h1.9c0.3,0,0.7,0,1-0.1v1.1c-0.3,0-0.7-0.1-1,0h-1.9v1.7c0.5,0.1,1.1,0.1,1.6,0.1c0.6,0,1.2,0,2.3-0.1
			c-0.2,0.4-0.2,0.7-0.3,1.1c-0.8,0-1.3,0-2.1,0c-2.3,0-3.7-0.5-4.5-1.7c-0.3,0.7-0.8,1.4-1.4,2c-0.2-0.3-0.5-0.6-0.9-0.8
			c0.8-0.8,1.4-1.7,1.7-2.8c0.1-0.4,0.2-0.7,0.2-1.1l1.1,0.2c0,0.2,0,0.2-0.1,0.6c0,0.2-0.1,0.4-0.3,0.9c0.3,0.6,0.9,1.1,1.5,1.4
			L112.8,27.8z M112.7,24.6c0-0.2,0-0.4-0.1-0.6h1.2c0,0.2,0,0.4,0,0.6V25h2.7c0.4,0,0.7,0,1.1,0c0,0.2,0,0.5,0,0.7v0.8
			c0,0.3,0,0.5,0,0.8h-1.1V26h-6.4v1.2h-1.1c0-0.3,0-0.5,0-0.8v-0.8c0-0.3,0-0.5,0-0.7c0.4,0,0.7,0,1.1,0h2.6L112.7,24.6z"/>
		<path class="st5" d="M121.5,29.1c0-0.4,0-0.6,0-1.1c-0.2,0.4-0.4,0.7-0.7,1c-0.1-0.4-0.2-0.8-0.4-1.2c0.7-0.8,1.2-1.6,1.5-2.6
			c0.2-0.4,0.3-0.9,0.4-1.4l1.1,0.4l-0.2,0.5c-0.2,0.6-0.4,1.1-0.7,1.6V32c0,0.4,0,0.8,0,1.2h-1.2c0-0.4,0.1-0.8,0.1-1.2L121.5,29.1
			z M128.7,26.8c0.3,0,0.6,0,0.9,0c0,0.3,0,0.6,0,0.9v4.1c0,0.4,0,0.8,0.1,1.3h-1.2v-0.6h-4.2v0.5h-1.1c0-0.4,0.1-0.7,0.1-1.1v-4.3
			c0-0.3,0-0.7,0-1c0.3,0,0.6,0,0.9,0h0.9v-1.3h-0.5c-0.5,0-0.9,0-1.2,0v-1.1c0.4,0,0.8,0.1,1.2,0.1h4.2c0.4,0,0.8,0,1.2-0.1v1.1
			c-0.3,0-0.7,0-1.2,0h-1v1.4L128.7,26.8z M124.2,27.8v3.8h0.8v-3.9L124.2,27.8z M126.7,25.5H126v1.4h0.8L126.7,25.5z M126,31.6h0.8
			v-3.8H126V31.6z M127.7,31.6h0.8v-3.8h-0.8L127.7,31.6z"/>
		<path class="st5" d="M133.6,29.1c0-0.4,0-0.6,0-1.1c-0.2,0.4-0.4,0.7-0.7,1c-0.1-0.4-0.3-0.8-0.4-1.2c0.7-0.7,1.2-1.6,1.5-2.5
			c0.2-0.5,0.3-0.9,0.4-1.4l1.1,0.3c-0.2,0.8-0.5,1.5-0.8,2.2V32c0,0.5,0,0.8,0,1.2h-1.1c0-0.4,0.1-0.8,0.1-1.2L133.6,29.1z
			 M135.3,33.2c0-0.4,0-0.8,0-1.2v-4.4c0-0.4,0-0.8-0.1-1.1h1.1c0,0.4,0,0.8,0,1.1v4.2h4.4c0.4,0,0.7,0,1.1,0v1.1
			c-0.4,0-0.7-0.1-1.1-0.1h-4.4v0.5H135.3z M136.4,25.7c-0.3,0-0.6,0-0.9,0v-1c0.4,0,0.7,0.1,1.1,0h1.8c0-0.4,0.1-0.4,0.1-0.8
			l1.1,0.1c-0.1,0.5-0.1,0.5-0.1,0.8h1.5c0.3,0,0.7,0,1-0.1v1c-0.3,0-0.6,0-0.9,0h-1.8l-0.1,0.7h1.4c0.3,0,0.6,0,0.8,0
			c0,0.3,0,0.7,0,1v3c0,0.4,0,0.6,0,0.9c-0.4,0-0.5,0-0.8,0h-2.6c-0.3,0-0.5,0-0.8,0c0-0.2,0-0.5,0-0.8v-3.3c0-0.3,0-0.5,0-0.8
			c0.2,0,0.4,0,0.8,0h0.2c0.1-0.3,0.1-0.4,0.1-0.7L136.4,25.7z M138.1,27.7h2.2v-0.5h-2.2V27.7z M138.1,29h2.2v-0.5h-2.2V29z
			 M138.1,30.4h2.2v-0.6h-2.2V30.4z"/>
		<path class="st5" d="M32.8,66.2h-2.3v-4.8h-4.7v-2.3h4.7v-4.7h2.3v4.7h4.7v2.3h-4.7V66.2z"/>
		<path class="st5" d="M58,46.4c-1.2,1.3-2.3,2.7-3.1,4.3c-3.1,4.9-5,10.5-5.6,16.2h-4.7c0.7-4,1.9-7.9,3.6-11.6
			c1.4-3.1,3.2-6,5.2-8.7h-9.3c-1.3,0-2.6,0-3.9,0.2v-4c1.4,0.2,2.7,0.2,4.1,0.2h9.5c1.4,0.1,2.7,0,4.1-0.1V46.4z"/>
		<path class="st5" d="M58.7,67v-4.4h4.4V67H58.7z"/>
		<path class="st5" d="M77.3,49c-0.8-2.2-1.9-3-4-3c-2-0.1-3.9,1.1-4.7,3c-0.8,1.7-1.2,3.5-1.2,5.3c1.6-2.2,3.4-3,6.4-3
			c2.8-0.2,5.5,1.2,7,3.6c0.8,1.4,1.1,2.9,1.1,4.5c0,4.7-3.6,8.1-8.7,8.1c-2.2,0.1-4.4-0.6-6.1-2c-2.2-1.9-3.5-5.5-3.5-10
			c0-3.7,0.9-7.2,2.5-9.3c1.7-2.4,4.4-3.7,7.3-3.6c2.3-0.1,4.5,0.7,6.2,2.3c0.8,0.9,1.5,2,1.8,3.1L77.3,49z M68,59.4
			c0.2,2.8,2.6,4.9,5.4,4.7c1.5-0.1,2.9-0.9,3.8-2.1c0.5-0.8,0.7-1.8,0.7-2.7c0-3-1.8-4.7-4.7-4.7c-2.7-0.2-5,1.9-5.1,4.5
			C68,59.2,68,59.3,68,59.4z"/>
		<path class="st5" d="M95.3,57.4c0,3.5-0.8,5.9-2.7,7.7c-1.2,1.1-2.5,2-4,2.5c-0.4-0.7-0.8-1.4-1.4-2c1.3-0.4,2.6-1.1,3.7-2
			c1.2-1,2-2.4,2.1-4c-1.6,0.8-3.3,1.5-5.1,2.1l-0.6-2.4c2-0.4,4-1,5.8-1.9v-0.3v-5.9c0-0.7,0-1.4-0.1-2.1h2.4
			c-0.1,0.7-0.1,1.5-0.1,2.2L95.3,57.4z M89.5,50.7c1.1,1.4,2.2,2.9,3,4.4l-1.8,1.4c-0.8-1.6-1.8-3.2-2.9-4.5L89.5,50.7z M99.3,49.2
			c-0.1,0.7-0.1,1.4-0.1,2.2v13.1c0,0.4,0.1,0.5,0.6,0.5c0.5,0,1,0.1,1.5,0.1c1.1,0,1.6-0.1,1.8-0.5c0.2-0.8,0.3-1.7,0.3-2.6
			c0.7,0.3,1.4,0.6,2.1,0.8c-0.1,2.1-0.4,3.2-0.9,3.7s-1.4,0.7-3.3,0.7c-1.1,0.1-2.1,0-3.1-0.2c-0.8-0.2-1-0.7-1-1.7V51.4
			c0-0.7,0-1.5-0.1-2.2H99.3z M100.6,56.9c1.7,0.9,3.3,1.9,4.8,3.1l-1.4,1.9c-1.4-1.4-3-2.5-4.7-3.4L100.6,56.9z M104.8,51.8
			c-1.1,1.7-2.3,3.2-3.8,4.6L99.4,55c0.7-0.6,1.4-1.4,2-2.1c0.6-0.7,1.1-1.5,1.5-2.3L104.8,51.8z"/>
		<path class="st5" d="M110.3,65c0,0.8,0,1.6,0.1,2.3h-2.5c0.1-0.8,0.1-1.6,0.1-2.4V51.8c0-0.6,0-1.3-0.1-1.9
			c0.7,0.1,1.5,0.1,2.2,0.1h12.2c0.7,0,1.5,0,2.2-0.1c-0.1,0.7-0.1,1.5-0.1,2.2v12.8c0,1-0.2,1.6-0.8,1.9c-0.7,0.2-1.4,0.3-2.1,0.3
			c-0.8,0-1.9,0-2.7-0.1c-0.1-0.7-0.3-1.5-0.6-2.2c1.3,0.1,2.3,0.2,3,0.2s0.9-0.1,0.9-0.5v-4.9h-11.9L110.3,65z M115,52.1h-4.7v5.4
			h4.7V52.1z M122.2,57.5v-5.4h-5v5.4H122.2z"/>
		<path class="st5" d="M136.2,50.1l-7.2,19h-2.5l7.2-19H136.2z"/>
		<path class="st5" d="M140.8,56.8c0-0.4,0-0.8-0.1-1.2c0.4,0,0.9,0.1,1.4,0.1h4.4v-2.6h-4.2c-0.9,1.5-2,2.8-3.3,3.9
			c-0.4-0.7-0.9-1.3-1.5-1.8c1.7-1.3,3.1-3,3.9-5c0.2-0.5,0.4-1,0.5-1.5l2.4,0.5c-0.1,0.2-0.2,0.3-0.3,0.6c0,0.1-0.2,0.5-0.6,1.3
			h9.4c0.7,0,1.3,0,2-0.1v2.2c-0.7-0.1-1.3-0.1-2-0.1h-4.1v2.6h3.2c0.7,0,1.4,0,2.1-0.1v2.1c-0.7-0.1-1.3-0.1-2-0.1h-3.3v3.2h4.6
			c0.7,0,1.5,0,2.2-0.1V63c-0.7-0.1-1.5-0.1-2.2-0.1h-4.6v2.5c0,0.7,0,1.4,0.1,2.1h-2.4c0.1-0.7,0.1-1.5,0.1-2.2v-2.5h-6.7
			c-0.7,0-1.5,0-2.2,0.1v-2.3c0.7,0.1,1.5,0.1,2.2,0.1h1L140.8,56.8z M146.5,60.8v-3.2h-3.6v3.2L146.5,60.8z"/>
		<line class="st0" x1="505.2" y1="248.4" x2="505.2" y2="4.7"/>
		<line class="st0" x1="1" y1="248.4" x2="1" y2="4.7"/>
	</g>
</g>
</svg>
