<svg id="レイヤー_1" data-name="レイヤー 1" xmlns="http://www.w3.org/2000/svg" viewBox="0 0 300 144"><defs><style>.cls-1{fill:#444344;}.cls-2{fill:#ffab40;}.cls-3{fill:#231815;}.cls-4{fill:#fff;}.cls-5,.cls-6,.cls-7{fill:none;}.cls-5{stroke:#ffab40;stroke-miterlimit:10;}.cls-5,.cls-7{stroke-width:0.5px;}.cls-6{stroke:#fff;stroke-width:7px;}.cls-6,.cls-7{stroke-linecap:round;stroke-linejoin:round;}.cls-7{stroke:#e50012;}</style></defs><rect class="cls-1" x="38.73" y="97.19" width="42.63" height="35.81"/><rect class="cls-1" x="93.39" y="86.97" width="42.63" height="46.04"/><rect class="cls-1" x="148.05" y="73.32" width="42.63" height="59.68"/><rect class="cls-1" x="202.71" y="32.4" width="42.63" height="100.61"/><rect class="cls-2" x="257.37" width="42.63" height="133"/><path class="cls-3" d="M52.64,144.1a4.78,4.78,0,0,0-.78,0,3.11,3.11,0,0,1,.16-.77,2.91,2.91,0,0,1,.82-1.18,7.16,7.16,0,0,1,1-.73c.55-.38.72-.58.72-.88s-.32-.66-.83-.66a.87.87,0,0,0-.77.35,1.18,1.18,0,0,0-.18.55l-.86-.1a1.81,1.81,0,0,1,.41-1,1.75,1.75,0,0,1,1.38-.53c1,0,1.7.5,1.7,1.32a1.22,1.22,0,0,1-.43,1,8.16,8.16,0,0,1-1,.74,4.53,4.53,0,0,0-.71.6,1.41,1.41,0,0,0-.34.54H54.6a6.31,6.31,0,0,0,.88,0v.79c-.29,0-.53,0-.91,0Z" transform="translate(0 -0.21)"/><path class="cls-3" d="M56.66,143.71a1.67,1.67,0,0,1-.39-.61,4,4,0,0,1-.24-1.38,3.59,3.59,0,0,1,.37-1.67,1.69,1.69,0,0,1,1.53-.83,1.74,1.74,0,0,1,1.27.48,1.7,1.7,0,0,1,.4.61,4.18,4.18,0,0,1,.23,1.39,3.18,3.18,0,0,1-.44,1.78,1.88,1.88,0,0,1-2.73.23Zm1.92-.47a3,3,0,0,0,0-3.08.86.86,0,0,0-.65-.25.82.82,0,0,0-.68.3,2.29,2.29,0,0,0-.39,1.46,2.76,2.76,0,0,0,.3,1.44.9.9,0,0,0,.77.39A.84.84,0,0,0,58.58,143.24Z" transform="translate(0 -0.21)"/><path class="cls-3" d="M61.83,144.1a4.58,4.58,0,0,0,.05-.78V140h-.29c-.22,0-.4,0-.62,0v-.76a3.46,3.46,0,0,0,.6,0h.56a3.64,3.64,0,0,0,.61,0,8.21,8.21,0,0,0-.05,1v3a4.65,4.65,0,0,0,.05.78Z" transform="translate(0 -0.21)"/><path class="cls-3" d="M65.48,142.85a.87.87,0,0,0,.18.35.9.9,0,0,0,.74.31.93.93,0,0,0,1-1,.9.9,0,0,0-1-1,1,1,0,0,0-.74.27.62.62,0,0,0-.18.28l-.75-.08a5.44,5.44,0,0,0,.07-.62l.14-1.49c0-.11,0-.32,0-.62a5.37,5.37,0,0,0,.63,0h1.48a4,4,0,0,0,.84-.05V140a6.86,6.86,0,0,0-.83-.05H65.72l-.1,1.06s0,.13,0,.25a1.52,1.52,0,0,1,1-.37,1.55,1.55,0,0,1,1.17.45,1.46,1.46,0,0,1,.43,1.13,1.64,1.64,0,0,1-1.81,1.72A1.69,1.69,0,0,1,64.65,143Z" transform="translate(0 -0.21)"/><path class="cls-3" d="M107.3,144.1a4.78,4.78,0,0,0-.78,0,3.11,3.11,0,0,1,.16-.77,2.91,2.91,0,0,1,.82-1.18,7.16,7.16,0,0,1,1-.73c.55-.38.72-.58.72-.88s-.32-.66-.83-.66a.87.87,0,0,0-.77.35,1.18,1.18,0,0,0-.18.55l-.86-.1a1.81,1.81,0,0,1,.41-1,1.75,1.75,0,0,1,1.38-.53c1,0,1.7.5,1.7,1.32a1.22,1.22,0,0,1-.43,1,7.29,7.29,0,0,1-1,.74,4.53,4.53,0,0,0-.71.6,1.41,1.41,0,0,0-.34.54h1.68a6.31,6.31,0,0,0,.88,0v.79c-.29,0-.53,0-.91,0Z" transform="translate(0 -0.21)"/><path class="cls-3" d="M111.32,143.71a1.67,1.67,0,0,1-.39-.61,4,4,0,0,1-.24-1.38,3.59,3.59,0,0,1,.37-1.67,1.69,1.69,0,0,1,1.53-.83,1.74,1.74,0,0,1,1.27.48,1.7,1.7,0,0,1,.4.61,4.18,4.18,0,0,1,.23,1.39,3.18,3.18,0,0,1-.44,1.78,1.71,1.71,0,0,1-1.46.71A1.74,1.74,0,0,1,111.32,143.71Zm1.92-.47a3,3,0,0,0,0-3.08.86.86,0,0,0-.65-.25.82.82,0,0,0-.68.3,2.29,2.29,0,0,0-.39,1.46,2.76,2.76,0,0,0,.3,1.44.9.9,0,0,0,.77.39A.84.84,0,0,0,113.24,143.24Z" transform="translate(0 -0.21)"/><path class="cls-3" d="M116.49,144.1a4.58,4.58,0,0,0,.05-.78V140h-.29c-.22,0-.4,0-.62,0v-.76a3.46,3.46,0,0,0,.6,0h.56a3.64,3.64,0,0,0,.61,0,8.21,8.21,0,0,0-.05,1v3a4.65,4.65,0,0,0,.05.78Z" transform="translate(0 -0.21)"/><path class="cls-3" d="M122,140.48a.75.75,0,0,0-.8-.6,1,1,0,0,0-.95.62,2.64,2.64,0,0,0-.24,1.07,1.39,1.39,0,0,1,1.28-.61,1.58,1.58,0,0,1,1.4.72,1.76,1.76,0,0,1,.21.9,1.62,1.62,0,0,1-1.74,1.63,1.9,1.9,0,0,1-1.22-.4,2.67,2.67,0,0,1-.7-2,3.25,3.25,0,0,1,.5-1.85,1.7,1.7,0,0,1,1.46-.72,1.59,1.59,0,0,1,1.61,1.07Zm-1.87,2.1a1,1,0,0,0,1.84.53,1,1,0,0,0,.13-.55.87.87,0,0,0-1-.94A1,1,0,0,0,120.17,142.58Z" transform="translate(0 -0.21)"/><path class="cls-3" d="M162,144.1a4.78,4.78,0,0,0-.78,0,3.11,3.11,0,0,1,.16-.77,2.91,2.91,0,0,1,.82-1.18,7.16,7.16,0,0,1,1-.73c.55-.38.72-.58.72-.88s-.32-.66-.83-.66a.87.87,0,0,0-.77.35,1.18,1.18,0,0,0-.18.55l-.86-.1a1.81,1.81,0,0,1,.41-1,1.75,1.75,0,0,1,1.38-.53c1.05,0,1.7.5,1.7,1.32a1.22,1.22,0,0,1-.43,1,7.29,7.29,0,0,1-1,.74,4.53,4.53,0,0,0-.71.6,1.41,1.41,0,0,0-.34.54h1.68a6.31,6.31,0,0,0,.88,0v.79c-.28,0-.53,0-.91,0Z" transform="translate(0 -0.21)"/><path class="cls-3" d="M166,143.71a1.67,1.67,0,0,1-.39-.61,4,4,0,0,1-.24-1.38,3.59,3.59,0,0,1,.37-1.67,1.7,1.7,0,0,1,1.53-.83,1.74,1.74,0,0,1,1.27.48,1.7,1.7,0,0,1,.4.61,4.18,4.18,0,0,1,.23,1.39,3.18,3.18,0,0,1-.44,1.78,1.71,1.71,0,0,1-1.46.71A1.74,1.74,0,0,1,166,143.71Zm1.92-.47a3,3,0,0,0,0-3.08.86.86,0,0,0-.65-.25.82.82,0,0,0-.68.3,2.29,2.29,0,0,0-.39,1.46,2.76,2.76,0,0,0,.3,1.44.9.9,0,0,0,.77.39A.84.84,0,0,0,167.9,143.24Z" transform="translate(0 -0.21)"/><path class="cls-3" d="M171.15,144.1a4.58,4.58,0,0,0,0-.78V140h-.29c-.22,0-.4,0-.62,0v-.76a3.46,3.46,0,0,0,.6,0h.56a3.64,3.64,0,0,0,.61,0,8.21,8.21,0,0,0-.05,1v3a4.65,4.65,0,0,0,.05.78Z" transform="translate(0 -0.21)"/><path class="cls-3" d="M177.53,140a4,4,0,0,0-.63.86,7.87,7.87,0,0,0-1.12,3.26h-.95a9,9,0,0,1,.73-2.33,10.44,10.44,0,0,1,1.05-1.75h-1.86a5.66,5.66,0,0,0-.78,0v-.79a6.61,6.61,0,0,0,.82,0h1.91a5.76,5.76,0,0,0,.83,0Z" transform="translate(0 -0.21)"/><path class="cls-3" d="M216.62,144.1a4.78,4.78,0,0,0-.78,0,3.11,3.11,0,0,1,.16-.77,2.91,2.91,0,0,1,.82-1.18,7.88,7.88,0,0,1,1-.73c.55-.38.72-.58.72-.88s-.32-.66-.83-.66a.87.87,0,0,0-.77.35,1.18,1.18,0,0,0-.18.55l-.86-.1a1.81,1.81,0,0,1,.41-1,1.75,1.75,0,0,1,1.38-.53c1.05,0,1.7.5,1.7,1.32a1.22,1.22,0,0,1-.43,1,7.29,7.29,0,0,1-1,.74,4.53,4.53,0,0,0-.71.6,1.41,1.41,0,0,0-.34.54h1.68a6.31,6.31,0,0,0,.88,0v.79c-.29,0-.53,0-.91,0Z" transform="translate(0 -0.21)"/><path class="cls-3" d="M220.64,143.71a1.67,1.67,0,0,1-.39-.61,4,4,0,0,1-.24-1.38,3.59,3.59,0,0,1,.37-1.67,1.7,1.7,0,0,1,1.53-.83,1.74,1.74,0,0,1,1.27.48,1.7,1.7,0,0,1,.4.61,4.18,4.18,0,0,1,.23,1.39,3.18,3.18,0,0,1-.44,1.78,1.71,1.71,0,0,1-1.46.71A1.74,1.74,0,0,1,220.64,143.71Zm1.92-.47a3,3,0,0,0,0-3.08.86.86,0,0,0-.65-.25.82.82,0,0,0-.68.3,2.29,2.29,0,0,0-.39,1.46,2.76,2.76,0,0,0,.3,1.44.9.9,0,0,0,.77.39A.84.84,0,0,0,222.56,143.24Z" transform="translate(0 -0.21)"/><path class="cls-3" d="M225.13,144.1a4.78,4.78,0,0,0-.78,0,3.11,3.11,0,0,1,.16-.77,2.91,2.91,0,0,1,.82-1.18,7.51,7.51,0,0,1,1-.73c.56-.38.72-.58.72-.88s-.31-.66-.83-.66a.86.86,0,0,0-.76.35,1.3,1.3,0,0,0-.19.55l-.86-.1a1.9,1.9,0,0,1,.42-1,1.75,1.75,0,0,1,1.38-.53c1.05,0,1.7.5,1.7,1.32a1.22,1.22,0,0,1-.43,1,9.26,9.26,0,0,1-1,.74,4.53,4.53,0,0,0-.71.6,1.44,1.44,0,0,0-.35.54h1.69a6.15,6.15,0,0,0,.87,0v.79c-.28,0-.52,0-.9,0Z" transform="translate(0 -0.21)"/><path class="cls-3" d="M229.15,143.71a1.7,1.7,0,0,1-.4-.61,4.21,4.21,0,0,1-.23-1.38,3.47,3.47,0,0,1,.37-1.67,1.69,1.69,0,0,1,1.53-.83,1.74,1.74,0,0,1,1.27.48,1.55,1.55,0,0,1,.39.61,3.94,3.94,0,0,1,.24,1.39,3.1,3.1,0,0,1-.45,1.78,1.69,1.69,0,0,1-1.46.71A1.72,1.72,0,0,1,229.15,143.71Zm1.92-.47a3,3,0,0,0,0-3.08.9.9,0,0,0-.66-.25.79.79,0,0,0-.67.3,2.29,2.29,0,0,0-.4,1.46,2.75,2.75,0,0,0,.31,1.44.9.9,0,0,0,.77.39A.86.86,0,0,0,231.07,143.24Z" transform="translate(0 -0.21)"/><path class="cls-3" d="M271.28,144.1a4.85,4.85,0,0,0-.78,0,3.11,3.11,0,0,1,.16-.77,2.91,2.91,0,0,1,.82-1.18,8.76,8.76,0,0,1,1-.73c.55-.38.72-.58.72-.88s-.32-.66-.83-.66a.84.84,0,0,0-.76.35,1.08,1.08,0,0,0-.19.55l-.86-.1a1.81,1.81,0,0,1,.41-1,1.75,1.75,0,0,1,1.38-.53c1,0,1.7.5,1.7,1.32a1.22,1.22,0,0,1-.43,1,7.29,7.29,0,0,1-1,.74,4.53,4.53,0,0,0-.71.6,1.41,1.41,0,0,0-.34.54h1.68a6.31,6.31,0,0,0,.88,0v.79c-.28,0-.53,0-.91,0Z" transform="translate(0 -0.21)"/><path class="cls-3" d="M275.3,143.71a1.67,1.67,0,0,1-.39-.61,4,4,0,0,1-.24-1.38,3.59,3.59,0,0,1,.37-1.67,1.7,1.7,0,0,1,1.53-.83,1.74,1.74,0,0,1,1.27.48,1.7,1.7,0,0,1,.4.61,4.18,4.18,0,0,1,.23,1.39,3.18,3.18,0,0,1-.44,1.78,1.71,1.71,0,0,1-1.46.71A1.74,1.74,0,0,1,275.3,143.71Zm1.92-.47a3,3,0,0,0,0-3.08.86.86,0,0,0-.65-.25.82.82,0,0,0-.68.3,2.29,2.29,0,0,0-.39,1.46,2.76,2.76,0,0,0,.3,1.44.9.9,0,0,0,.77.39A.84.84,0,0,0,277.22,143.24Z" transform="translate(0 -0.21)"/><path class="cls-3" d="M279.79,144.1a4.78,4.78,0,0,0-.78,0,3.11,3.11,0,0,1,.16-.77,2.91,2.91,0,0,1,.82-1.18,7.51,7.51,0,0,1,1-.73c.56-.38.72-.58.72-.88s-.31-.66-.83-.66a.86.86,0,0,0-.76.35,1.3,1.3,0,0,0-.19.55l-.85-.1a1.81,1.81,0,0,1,.41-1,1.75,1.75,0,0,1,1.38-.53c1.05,0,1.7.5,1.7,1.32a1.22,1.22,0,0,1-.43,1,9.26,9.26,0,0,1-1,.74,4.53,4.53,0,0,0-.71.6,1.44,1.44,0,0,0-.35.54h1.69a6,6,0,0,0,.87,0v.79c-.28,0-.52,0-.9,0Z" transform="translate(0 -0.21)"/><path class="cls-3" d="M284.12,142.85a.87.87,0,0,0,.18.35.9.9,0,0,0,.74.31.93.93,0,0,0,1-1,.9.9,0,0,0-.94-1,1.06,1.06,0,0,0-.75.27.71.71,0,0,0-.18.28l-.75-.08c.06-.42.06-.45.08-.62l.13-1.49c0-.11,0-.32,0-.62a5.47,5.47,0,0,0,.64,0h1.47a4,4,0,0,0,.84-.05V140a6.73,6.73,0,0,0-.83-.05h-1.41l-.1,1.06s0,.13,0,.25a1.47,1.47,0,0,1,1-.37,1.59,1.59,0,0,1,1.18.45,1.49,1.49,0,0,1,.42,1.13,1.64,1.64,0,0,1-1.81,1.72,1.75,1.75,0,0,1-1.37-.53,1.92,1.92,0,0,1-.38-.65Z" transform="translate(0 -0.21)"/><path class="cls-4" d="M47,111.47a8.13,8.13,0,0,0,.07-1.18v-5h-.44a7.11,7.11,0,0,0-.92.06v-1.15a4.54,4.54,0,0,0,.9,0h.83a6.14,6.14,0,0,0,.92,0,12.29,12.29,0,0,0-.07,1.49v4.56a7,7,0,0,0,.07,1.18Z" transform="translate(0 -0.21)"/><path class="cls-4" d="M54.38,106a1.13,1.13,0,0,0-1.2-.91,1.51,1.51,0,0,0-1.42.94,3.81,3.81,0,0,0-.37,1.6,2.09,2.09,0,0,1,1.93-.9,2.32,2.32,0,0,1,2.09,1.07,2.55,2.55,0,0,1,.33,1.35,2.43,2.43,0,0,1-2.62,2.44,2.83,2.83,0,0,1-1.83-.6,3.93,3.93,0,0,1-1-3,4.94,4.94,0,0,1,.74-2.79,2.59,2.59,0,0,1,2.21-1.07,2.44,2.44,0,0,1,1.84.69,2.51,2.51,0,0,1,.57.92Zm-2.81,3.15a1.53,1.53,0,0,0,2.76.8,1.51,1.51,0,0,0,.21-.82,1.3,1.3,0,0,0-1.43-1.42A1.45,1.45,0,0,0,51.57,109.19Z" transform="translate(0 -0.21)"/><path class="cls-4" d="M58,111.47a1.19,1.19,0,0,1-.93,1.35l-.33-.48c.55-.15.68-.31.69-.87h-.76v-1.32H58Z" transform="translate(0 -0.21)"/><path class="cls-4" d="M60.17,109.6a1.26,1.26,0,0,0,.27.52,1.35,1.35,0,0,0,1.11.46A1.4,1.4,0,0,0,63,109.09a1.35,1.35,0,0,0-1.42-1.45,1.58,1.58,0,0,0-1.11.42,1,1,0,0,0-.28.4l-1.12-.11a7.82,7.82,0,0,0,.11-.93l.21-2.24c0-.16,0-.47,0-.92.27,0,.48,0,.95,0h2.22a6.38,6.38,0,0,0,1.26-.07v1.14a9.39,9.39,0,0,0-1.25-.07H60.52l-.14,1.58c0,.07,0,.2-.06.38a2.24,2.24,0,0,1,1.55-.56,2.34,2.34,0,0,1,1.76.68,2.23,2.23,0,0,1,.64,1.7,2.45,2.45,0,0,1-2.72,2.57,2.63,2.63,0,0,1-2.06-.79,2.53,2.53,0,0,1-.56-1Z" transform="translate(0 -0.21)"/><path class="cls-4" d="M66.72,111.47a6.83,6.83,0,0,0,.08-1.18v-5h-.44a7.38,7.38,0,0,0-.93.06v-1.15a4.7,4.7,0,0,0,.91,0h.83a6.14,6.14,0,0,0,.92,0,12.29,12.29,0,0,0-.08,1.49v4.56a6.91,6.91,0,0,0,.08,1.18Z" transform="translate(0 -0.21)"/><path class="cls-4" d="M75.26,105.29a6.17,6.17,0,0,0-.94,1.3,11.58,11.58,0,0,0-1.67,4.88H71.22A13.54,13.54,0,0,1,72.31,108a15.3,15.3,0,0,1,1.58-2.63H71.1a9.59,9.59,0,0,0-1.18.06v-1.19a9.27,9.27,0,0,0,1.24.06H74a9.4,9.4,0,0,0,1.23,0Z" transform="translate(0 -0.21)"/><path class="cls-4" d="M102,101.24a8.08,8.08,0,0,0,.07-1.17v-5h-.43a7.14,7.14,0,0,0-.93.06V94a4.53,4.53,0,0,0,.9.06h.83a5.89,5.89,0,0,0,.92,0,14.72,14.72,0,0,0-.07,1.49v4.57a8.17,8.17,0,0,0,.07,1.17Z" transform="translate(0 -0.21)"/><path class="cls-4" d="M110.49,95.06a6.17,6.17,0,0,0-.94,1.3,11.46,11.46,0,0,0-1.68,4.88h-1.43a13.27,13.27,0,0,1,1.1-3.49,14.56,14.56,0,0,1,1.57-2.63h-2.78a9.66,9.66,0,0,0-1.19.06V94a9.13,9.13,0,0,0,1.24.07h2.87a9.09,9.09,0,0,0,1.24,0Z" transform="translate(0 -0.21)"/><path class="cls-4" d="M111.8,101.24a1.19,1.19,0,0,1-.93,1.35l-.33-.48c.55-.15.68-.31.69-.87h-.76V99.92h1.33Z" transform="translate(0 -0.21)"/><path class="cls-4" d="M117.6,95.06a6.17,6.17,0,0,0-.94,1.3,11.46,11.46,0,0,0-1.68,4.88h-1.43a13.27,13.27,0,0,1,1.1-3.49,14.56,14.56,0,0,1,1.57-2.63h-2.78a9.77,9.77,0,0,0-1.19.06V94a9.13,9.13,0,0,0,1.24.07h2.87a9.09,9.09,0,0,0,1.24,0Z" transform="translate(0 -0.21)"/><path class="cls-4" d="M123.4,99.63a8.51,8.51,0,0,0-.91-.06h-.32v.64a6.09,6.09,0,0,0,.07,1H121a5.36,5.36,0,0,0,.07-1v-.62h-2.5a10.71,10.71,0,0,0-1.12,0V98.5l.72-.84,2.14-2.61a10.76,10.76,0,0,0,.75-1h1.21a13.53,13.53,0,0,0-.06,1.52v3h.32a6.73,6.73,0,0,0,.91-.06ZM121,96.68a9.22,9.22,0,0,1,0-1.08c-.18.26-.29.4-.62.8l-1.73,2.15H121Z" transform="translate(0 -0.21)"/><path class="cls-4" d="M125.38,99.28a1.15,1.15,0,0,0,.42.74,1.74,1.74,0,0,0,1.09.35c.9,0,1.47-.46,1.47-1.17a1.06,1.06,0,0,0-.51-1,2.44,2.44,0,0,0-1-.22,6.79,6.79,0,0,0-1,0V97a5.51,5.51,0,0,0,.87.05c.9,0,1.44-.42,1.44-1.11s-.43-1-1.19-1a1.52,1.52,0,0,0-1,.28,1.35,1.35,0,0,0-.38.7l-1.29-.22a2.29,2.29,0,0,1,.86-1.29,3,3,0,0,1,1.77-.5c1.51,0,2.48.76,2.48,1.93a1.63,1.63,0,0,1-.62,1.33,2.21,2.21,0,0,1-.88.35,1.9,1.9,0,0,1,1.29.61,1.71,1.71,0,0,1,.44,1.24,1.89,1.89,0,0,1-.55,1.32,3.09,3.09,0,0,1-2.22.73,2.82,2.82,0,0,1-2.29-.86,2.36,2.36,0,0,1-.5-1Z" transform="translate(0 -0.21)"/><path class="cls-4" d="M155.64,87.6a8.23,8.23,0,0,0,.07-1.18v-5h-.44c-.33,0-.59,0-.92,0V80.36a5.46,5.46,0,0,0,.9,0h.83a7.86,7.86,0,0,0,.92,0,12.29,12.29,0,0,0-.07,1.49v4.56A7,7,0,0,0,157,87.6Z" transform="translate(0 -0.21)"/><path class="cls-4" d="M160.23,85.85a1.46,1.46,0,0,0,.28.5,1.37,1.37,0,0,0,1,.37,1.39,1.39,0,0,0,1-.37,3,3,0,0,0,.7-2.15,1.73,1.73,0,0,1-.48.52,2.42,2.42,0,0,1-1.46.41,2.25,2.25,0,0,1-2.45-2.37A2.37,2.37,0,0,1,160,80.64a3,3,0,0,1,1.58-.4A2.56,2.56,0,0,1,164.08,82a5.85,5.85,0,0,1,.26,1.87,4.58,4.58,0,0,1-1,3.13,2.5,2.5,0,0,1-1.92.68,2.63,2.63,0,0,1-1.75-.52,2.7,2.7,0,0,1-.74-1Zm2.83-3.16a1.49,1.49,0,0,0-3,0,1.35,1.35,0,0,0,1.43,1.45A1.48,1.48,0,0,0,163.06,82.69Z" transform="translate(0 -0.21)"/><path class="cls-4" d="M166.48,87.6a1.19,1.19,0,0,1-.93,1.35l-.33-.48c.55-.15.68-.32.69-.87h-.76V86.28h1.33Z" transform="translate(0 -0.21)"/><path class="cls-4" d="M168.73,85.85a1.65,1.65,0,0,0,.28.5,1.62,1.62,0,0,0,2.06,0,3,3,0,0,0,.71-2.15,2,2,0,0,1-.48.52,2.47,2.47,0,0,1-1.47.41,2.25,2.25,0,0,1-2.45-2.37,2.38,2.38,0,0,1,1.15-2.12,2.94,2.94,0,0,1,1.58-.4A2.57,2.57,0,0,1,172.59,82a5.85,5.85,0,0,1,.26,1.87,4.53,4.53,0,0,1-1,3.13,2.48,2.48,0,0,1-1.92.68,2.6,2.6,0,0,1-1.74-.52,2.5,2.5,0,0,1-.74-1Zm2.84-3.16a1.5,1.5,0,0,0-3,0A1.35,1.35,0,0,0,170,84.16,1.48,1.48,0,0,0,171.57,82.69Z" transform="translate(0 -0.21)"/><path class="cls-4" d="M174.84,85.64a1.22,1.22,0,0,0,.42.74,1.74,1.74,0,0,0,1.1.35c.89,0,1.46-.46,1.46-1.17a1,1,0,0,0-.51-1,2.27,2.27,0,0,0-1-.22,7,7,0,0,0-1,0V83.32a7.38,7.38,0,0,0,.87,0c.91,0,1.44-.41,1.44-1.11s-.42-1-1.19-1a1.54,1.54,0,0,0-1,.28,1.25,1.25,0,0,0-.37.69L173.78,82a2.2,2.2,0,0,1,.85-1.29,2.9,2.9,0,0,1,1.77-.5c1.51,0,2.48.76,2.48,1.93a1.65,1.65,0,0,1-.62,1.33,2.38,2.38,0,0,1-.88.35,1.87,1.87,0,0,1,1.29.6,1.75,1.75,0,0,1,.44,1.25,1.94,1.94,0,0,1-.54,1.32,3.17,3.17,0,0,1-2.22.73,2.79,2.79,0,0,1-2.29-.86,2.31,2.31,0,0,1-.51-1Z" transform="translate(0 -0.21)"/><path class="cls-4" d="M181,87.6a7.89,7.89,0,0,0-1.16,0,4.3,4.3,0,0,1,.23-1.15,4.37,4.37,0,0,1,1.24-1.77,11.65,11.65,0,0,1,1.49-1.1c.83-.56,1.08-.86,1.08-1.32s-.48-1-1.25-1a1.26,1.26,0,0,0-1.14.53,1.61,1.61,0,0,0-.28.83l-1.29-.15a2.7,2.7,0,0,1,.62-1.45,2.63,2.63,0,0,1,2.07-.8c1.58,0,2.55.76,2.55,2a1.85,1.85,0,0,1-.64,1.45A12,12,0,0,1,183,84.82a7.5,7.5,0,0,0-1.07.9,2.29,2.29,0,0,0-.52.81h2.53a10.5,10.5,0,0,0,1.32-.07v1.19c-.43,0-.79-.05-1.36-.05Z" transform="translate(0 -0.21)"/><path class="cls-4" d="M208.56,46.67a7.51,7.51,0,0,0-1.16,0,5.37,5.37,0,0,1,.23-1.16,4.54,4.54,0,0,1,1.24-1.77,13.86,13.86,0,0,1,1.49-1.09c.83-.57,1.08-.87,1.08-1.33s-.48-1-1.24-1a1.28,1.28,0,0,0-1.15.53,1.87,1.87,0,0,0-.28.83l-1.29-.15a2.78,2.78,0,0,1,.62-1.44,2.61,2.61,0,0,1,2.07-.81c1.58,0,2.55.76,2.55,2a1.8,1.8,0,0,1-.64,1.44,10.22,10.22,0,0,1-1.51,1.11,8.39,8.39,0,0,0-1.08.9,2.21,2.21,0,0,0-.51.82h2.53a8.46,8.46,0,0,0,1.31-.08v1.2a13,13,0,0,0-1.36-.06Z" transform="translate(0 -0.21)"/><path class="cls-4" d="M217.74,41.25a1.13,1.13,0,0,0-1.21-.91,1.5,1.5,0,0,0-1.42.94,4.09,4.09,0,0,0-.37,1.59,2.09,2.09,0,0,1,1.93-.9,2.36,2.36,0,0,1,2.1,1.07,2.68,2.68,0,0,1,.32,1.36,2.43,2.43,0,0,1-2.61,2.43,2.86,2.86,0,0,1-1.84-.59,4,4,0,0,1-1-3,4.91,4.91,0,0,1,.74-2.79,2.56,2.56,0,0,1,2.2-1.08,2.5,2.5,0,0,1,1.85.69A2.65,2.65,0,0,1,219,41Zm-2.82,3.15a1.53,1.53,0,0,0,2.77.79,1.58,1.58,0,0,0,.2-.82A1.3,1.3,0,0,0,216.47,43,1.46,1.46,0,0,0,214.92,44.4Z" transform="translate(0 -0.21)"/><path class="cls-4" d="M221.31,46.67a1.18,1.18,0,0,1-.93,1.35l-.32-.47c.55-.16.67-.32.68-.88H220V45.35h1.33Z" transform="translate(0 -0.21)"/><path class="cls-4" d="M223,46.08a2.53,2.53,0,0,1-.6-.91A6.12,6.12,0,0,1,222,43.1a5.35,5.35,0,0,1,.55-2.5,2.58,2.58,0,0,1,2.3-1.26,2.63,2.63,0,0,1,1.91.74,2.38,2.38,0,0,1,.59.91,5.92,5.92,0,0,1,.36,2.09,4.78,4.78,0,0,1-.67,2.67,2.79,2.79,0,0,1-4.09.33Zm2.88-.69a3.5,3.5,0,0,0,.63-2.32,3.52,3.52,0,0,0-.63-2.31,1.33,1.33,0,0,0-1-.38,1.24,1.24,0,0,0-1,.46,3.41,3.41,0,0,0-.59,2.19,4,4,0,0,0,.46,2.15,1.32,1.32,0,0,0,1.15.59A1.34,1.34,0,0,0,225.86,45.39Z" transform="translate(0 -0.21)"/><path class="cls-4" d="M229.5,46.08a2.53,2.53,0,0,1-.6-.91,6.12,6.12,0,0,1-.35-2.07,5.35,5.35,0,0,1,.55-2.5,2.58,2.58,0,0,1,2.3-1.26,2.63,2.63,0,0,1,1.91.74,2.38,2.38,0,0,1,.59.91,5.92,5.92,0,0,1,.36,2.09,4.78,4.78,0,0,1-.67,2.67,2.79,2.79,0,0,1-4.09.33Zm2.88-.69a3.5,3.5,0,0,0,.63-2.32,3.52,3.52,0,0,0-.63-2.31,1.33,1.33,0,0,0-1-.38,1.24,1.24,0,0,0-1,.46,3.41,3.41,0,0,0-.59,2.19,4,4,0,0,0,.46,2.15,1.32,1.32,0,0,0,1.15.59A1.34,1.34,0,0,0,232.38,45.39Z" transform="translate(0 -0.21)"/><path class="cls-4" d="M236,46.08a2.38,2.38,0,0,1-.59-.91,5.89,5.89,0,0,1-.36-2.07,5.35,5.35,0,0,1,.55-2.5,2.58,2.58,0,0,1,2.3-1.26,2.63,2.63,0,0,1,1.91.74,2.38,2.38,0,0,1,.59.91,5.92,5.92,0,0,1,.36,2.09,4.78,4.78,0,0,1-.67,2.67,2.79,2.79,0,0,1-4.09.33Zm2.88-.69a3.44,3.44,0,0,0,.63-2.32,3.47,3.47,0,0,0-.63-2.31,1.33,1.33,0,0,0-1-.38,1.22,1.22,0,0,0-1,.46,3.35,3.35,0,0,0-.6,2.19,4,4,0,0,0,.46,2.15,1.32,1.32,0,0,0,1.15.59A1.34,1.34,0,0,0,238.9,45.39Z" transform="translate(0 -0.21)"/><path class="cls-4" d="M263.19,12.31a1.19,1.19,0,0,0,.42.74,1.68,1.68,0,0,0,1.09.36c.9,0,1.47-.46,1.47-1.18a1,1,0,0,0-.51-.94,2.3,2.3,0,0,0-1-.22,9.09,9.09,0,0,0-1,0V10a7.38,7.38,0,0,0,.87,0c.91,0,1.44-.41,1.44-1.11s-.43-1-1.19-1a1.52,1.52,0,0,0-1,.28,1.32,1.32,0,0,0-.38.69l-1.29-.22A2.32,2.32,0,0,1,263,7.42a3,3,0,0,1,1.77-.49c1.51,0,2.48.76,2.48,1.93a1.65,1.65,0,0,1-.62,1.33,2.38,2.38,0,0,1-.88.35,1.89,1.89,0,0,1,1.29.6,1.74,1.74,0,0,1,.44,1.25,1.92,1.92,0,0,1-.54,1.31,3.12,3.12,0,0,1-2.22.73,2.86,2.86,0,0,1-2.3-.85,2.49,2.49,0,0,1-.5-1Z" transform="translate(0 -0.21)"/><path class="cls-4" d="M269.35,14.27a7.67,7.67,0,0,0-1.17.05,4.77,4.77,0,0,1,.24-1.16,4.44,4.44,0,0,1,1.24-1.77,12.4,12.4,0,0,1,1.48-1.09c.83-.57,1.09-.86,1.09-1.32,0-.62-.48-1-1.25-1a1.25,1.25,0,0,0-1.14.54,1.58,1.58,0,0,0-.28.83l-1.29-.16a2.63,2.63,0,0,1,.62-1.44A2.62,2.62,0,0,1,271,7c1.58,0,2.56.75,2.56,2a1.82,1.82,0,0,1-.64,1.44,11.49,11.49,0,0,1-1.52,1.11,7,7,0,0,0-1.07.91,2.2,2.2,0,0,0-.52.81h2.53a10.5,10.5,0,0,0,1.32-.07v1.19a13.39,13.39,0,0,0-1.37-.06Z" transform="translate(0 -0.21)"/><path class="cls-4" d="M276.12,14.27a1.19,1.19,0,0,1-.93,1.36l-.33-.48c.56-.16.68-.32.69-.88h-.76V13h1.33Z" transform="translate(0 -0.21)"/><path class="cls-4" d="M278.33,12.4a1.31,1.31,0,0,0,.27.53,1.51,1.51,0,0,0,2.59-1,1.34,1.34,0,0,0-1.41-1.45,1.58,1.58,0,0,0-1.12.41,1,1,0,0,0-.27.41l-1.13-.11c.09-.64.1-.69.12-.94l.2-2.24c0-.16,0-.47,0-.92.27,0,.48,0,1,0h2.22A7.19,7.19,0,0,0,282.05,7V8.15a9.33,9.33,0,0,0-1.24-.07h-2.12l-.15,1.58c0,.07,0,.2-.05.38A2.21,2.21,0,0,1,280,9.49a2.32,2.32,0,0,1,1.76.68,2.21,2.21,0,0,1,.64,1.69,2.45,2.45,0,0,1-2.72,2.57,2.51,2.51,0,0,1-2.62-1.76Z" transform="translate(0 -0.21)"/><path class="cls-4" d="M284.2,13.69a2.54,2.54,0,0,1-.59-.92,5.88,5.88,0,0,1-.35-2.07,5.23,5.23,0,0,1,.55-2.5A2.57,2.57,0,0,1,286.11,7a2.6,2.6,0,0,1,1.9.73,2.53,2.53,0,0,1,.6.91,6.15,6.15,0,0,1,.35,2.09,4.67,4.67,0,0,1-.67,2.67,2.54,2.54,0,0,1-2.19,1.07A2.64,2.64,0,0,1,284.2,13.69Zm2.88-.7a3.44,3.44,0,0,0,.63-2.32,3.49,3.49,0,0,0-.63-2.31,1.29,1.29,0,0,0-1-.38,1.23,1.23,0,0,0-1,.46,3.36,3.36,0,0,0-.6,2.2,4,4,0,0,0,.46,2.14,1.32,1.32,0,0,0,1.16.59A1.3,1.3,0,0,0,287.08,13Z" transform="translate(0 -0.21)"/><path class="cls-4" d="M290.73,13.69a2.57,2.57,0,0,1-.6-.92,6.12,6.12,0,0,1-.35-2.07,5.35,5.35,0,0,1,.55-2.5,2.78,2.78,0,0,1,4.2-.52,2.53,2.53,0,0,1,.6.91,6.15,6.15,0,0,1,.35,2.09,4.67,4.67,0,0,1-.67,2.67,2.54,2.54,0,0,1-2.19,1.07A2.6,2.6,0,0,1,290.73,13.69Zm2.87-.7a3.44,3.44,0,0,0,.64-2.32,3.48,3.48,0,0,0-.64-2.31,1.29,1.29,0,0,0-1-.38,1.23,1.23,0,0,0-1,.46,3.36,3.36,0,0,0-.59,2.2,4,4,0,0,0,.46,2.14,1.42,1.42,0,0,0,2.12.21Z" transform="translate(0 -0.21)"/><path class="cls-3" d="M.77,12.38a.65.65,0,0,0,.26.44,1,1,0,0,0,.65.22c.54,0,.88-.28.88-.71a.65.65,0,0,0-.3-.57,1.5,1.5,0,0,0-.62-.13,4.85,4.85,0,0,0-.58,0V11a3.84,3.84,0,0,0,.52,0c.54,0,.86-.25.86-.67s-.25-.59-.71-.59a.88.88,0,0,0-.59.17.76.76,0,0,0-.23.42l-.77-.13a1.37,1.37,0,0,1,.51-.78,1.77,1.77,0,0,1,1.06-.29c.91,0,1.49.45,1.49,1.16a1,1,0,0,1-.37.79,1.3,1.3,0,0,1-.53.21,1.11,1.11,0,0,1,.78.37,1.06,1.06,0,0,1,.26.74,1.14,1.14,0,0,1-.33.79,1.85,1.85,0,0,1-1.33.44A1.71,1.71,0,0,1,.3,13.14a1.5,1.5,0,0,1-.3-.61Z" transform="translate(0 -0.21)"/><path class="cls-3" d="M4.42,13.2a1.55,1.55,0,0,1-.36-.54,3.69,3.69,0,0,1-.21-1.25,3.2,3.2,0,0,1,.33-1.5,1.53,1.53,0,0,1,1.38-.75A1.54,1.54,0,0,1,6.7,9.6a1.42,1.42,0,0,1,.36.54,3.7,3.7,0,0,1,.21,1.26,2.78,2.78,0,0,1-.4,1.6,1.51,1.51,0,0,1-1.31.64A1.53,1.53,0,0,1,4.42,13.2Zm1.73-.41a2.14,2.14,0,0,0,.37-1.4A2.11,2.11,0,0,0,6.15,10a.78.78,0,0,0-.59-.23.74.74,0,0,0-.61.28,2,2,0,0,0-.36,1.31,2.37,2.37,0,0,0,.28,1.29.78.78,0,0,0,.69.35A.82.82,0,0,0,6.15,12.79Z" transform="translate(0 -0.21)"/><path class="cls-3" d="M8.61,13.55a.72.72,0,0,1-.55.82l-.2-.29c.33-.09.41-.19.41-.53H7.82v-.79h.79Z" transform="translate(0 -0.21)"/><path class="cls-3" d="M9.73,13.2a1.52,1.52,0,0,1-.35-.54,3.69,3.69,0,0,1-.21-1.25,3.2,3.2,0,0,1,.33-1.5,1.53,1.53,0,0,1,1.38-.75,1.55,1.55,0,0,1,1.5,1,3.7,3.7,0,0,1,.21,1.26,2.86,2.86,0,0,1-.4,1.6,1.54,1.54,0,0,1-1.32.64A1.56,1.56,0,0,1,9.73,13.2Zm1.73-.41a2.08,2.08,0,0,0,.38-1.4A2.05,2.05,0,0,0,11.46,10a.76.76,0,0,0-.59-.23.71.71,0,0,0-.6.28,2,2,0,0,0-.36,1.31,2.48,2.48,0,0,0,.27,1.29.8.8,0,0,0,.7.35A.78.78,0,0,0,11.46,12.79Z" transform="translate(0 -0.21)"/><path class="cls-3" d="M13.59,13.2a1.55,1.55,0,0,1-.36-.54A3.69,3.69,0,0,1,13,11.41a3.2,3.2,0,0,1,.33-1.5,1.53,1.53,0,0,1,1.38-.75,1.54,1.54,0,0,1,1.14.44,1.42,1.42,0,0,1,.36.54,3.7,3.7,0,0,1,.21,1.26A2.78,2.78,0,0,1,16,13a1.51,1.51,0,0,1-1.31.64A1.56,1.56,0,0,1,13.59,13.2Zm1.73-.41a2.13,2.13,0,0,0,.38-1.4A2.11,2.11,0,0,0,15.32,10a.78.78,0,0,0-.59-.23.74.74,0,0,0-.61.28,2,2,0,0,0-.36,1.31A2.47,2.47,0,0,0,14,12.66a.78.78,0,0,0,.69.35A.82.82,0,0,0,15.32,12.79Z" transform="translate(0 -0.21)"/><path class="cls-3" d="M17.44,13.2a1.52,1.52,0,0,1-.35-.54,3.69,3.69,0,0,1-.21-1.25,3.2,3.2,0,0,1,.33-1.5,1.53,1.53,0,0,1,1.38-.75,1.55,1.55,0,0,1,1.5,1,3.7,3.7,0,0,1,.21,1.26,2.86,2.86,0,0,1-.4,1.6,1.54,1.54,0,0,1-1.32.64A1.56,1.56,0,0,1,17.44,13.2Zm1.73-.41a2.08,2.08,0,0,0,.38-1.4A2.05,2.05,0,0,0,19.17,10a.78.78,0,0,0-.59-.23.74.74,0,0,0-.61.28,2.05,2.05,0,0,0-.35,1.31,2.48,2.48,0,0,0,.27,1.29.87.87,0,0,0,1.28.13Z" transform="translate(0 -0.21)"/><path class="cls-3" d="M.77,73.11a3.87,3.87,0,0,0-.7,0,2.77,2.77,0,0,1,.14-.7A2.77,2.77,0,0,1,1,71.38a7.51,7.51,0,0,1,.9-.65c.5-.35.65-.52.65-.8s-.29-.6-.75-.6a.78.78,0,0,0-.69.32,1.08,1.08,0,0,0-.17.5l-.77-.09a1.7,1.7,0,0,1,.37-.87,1.59,1.59,0,0,1,1.24-.48c1,0,1.54.46,1.54,1.2a1.06,1.06,0,0,1-.39.86,6,6,0,0,1-.91.67,4.84,4.84,0,0,0-.64.54,1.23,1.23,0,0,0-.31.49H2.53a7,7,0,0,0,.79,0v.71c-.25,0-.47,0-.81,0Z" transform="translate(0 -0.21)"/><path class="cls-3" d="M4.42,72.76a1.68,1.68,0,0,1-.36-.55A3.69,3.69,0,0,1,3.85,71a3.2,3.2,0,0,1,.33-1.5,1.55,1.55,0,0,1,1.38-.75,1.54,1.54,0,0,1,1.14.44,1.38,1.38,0,0,1,.36.55A3.64,3.64,0,0,1,7.27,71a2.83,2.83,0,0,1-.4,1.61,1.53,1.53,0,0,1-1.31.63A1.56,1.56,0,0,1,4.42,72.76Zm1.73-.42a2.8,2.8,0,0,0,0-2.78.78.78,0,0,0-.59-.23.74.74,0,0,0-.61.28,2,2,0,0,0-.36,1.32,2.33,2.33,0,0,0,.28,1.28.79.79,0,0,0,.69.36A.79.79,0,0,0,6.15,72.34Z" transform="translate(0 -0.21)"/><path class="cls-3" d="M8.61,73.11a.71.71,0,0,1-.55.81l-.2-.29c.33-.09.41-.19.41-.52H7.82v-.79h.79Z" transform="translate(0 -0.21)"/><path class="cls-3" d="M9.73,72.76a1.65,1.65,0,0,1-.35-.55A3.69,3.69,0,0,1,9.17,71a3.2,3.2,0,0,1,.33-1.5A1.67,1.67,0,0,1,12,69.15a1.5,1.5,0,0,1,.36.55A3.64,3.64,0,0,1,12.59,71a2.92,2.92,0,0,1-.4,1.61,1.56,1.56,0,0,1-1.32.63A1.6,1.6,0,0,1,9.73,72.76Zm1.73-.42a2.73,2.73,0,0,0,0-2.78.76.76,0,0,0-.59-.23.71.71,0,0,0-.6.28,2,2,0,0,0-.36,1.32,2.44,2.44,0,0,0,.27,1.28.81.81,0,0,0,.7.36A.75.75,0,0,0,11.46,72.34Z" transform="translate(0 -0.21)"/><path class="cls-3" d="M13.59,72.76a1.68,1.68,0,0,1-.36-.55A3.69,3.69,0,0,1,13,71a3.2,3.2,0,0,1,.33-1.5,1.67,1.67,0,0,1,2.52-.31,1.38,1.38,0,0,1,.36.55A3.64,3.64,0,0,1,16.44,71a2.83,2.83,0,0,1-.4,1.61,1.53,1.53,0,0,1-1.31.63A1.6,1.6,0,0,1,13.59,72.76Zm1.73-.42a2.73,2.73,0,0,0,0-2.78.78.78,0,0,0-.59-.23.74.74,0,0,0-.61.28,2,2,0,0,0-.36,1.32A2.43,2.43,0,0,0,14,72.21a.85.85,0,0,0,1.28.13Z" transform="translate(0 -0.21)"/><path class="cls-3" d="M17.44,72.76a1.65,1.65,0,0,1-.35-.55A3.69,3.69,0,0,1,16.88,71a3.2,3.2,0,0,1,.33-1.5,1.67,1.67,0,0,1,2.52-.31,1.5,1.5,0,0,1,.36.55A3.64,3.64,0,0,1,20.3,71a2.92,2.92,0,0,1-.4,1.61,1.56,1.56,0,0,1-1.32.63A1.6,1.6,0,0,1,17.44,72.76Zm1.73-.42a2.73,2.73,0,0,0,0-2.78.78.78,0,0,0-.59-.23.74.74,0,0,0-.61.28,2.08,2.08,0,0,0-.35,1.32,2.44,2.44,0,0,0,.27,1.28.81.81,0,0,0,.7.36A.77.77,0,0,0,19.17,72.34Z" transform="translate(0 -0.21)"/><path class="cls-3" d="M1.39,132.66a4.81,4.81,0,0,0,0-.7v-3H1.17a3.52,3.52,0,0,0-.56,0v-.69a2.81,2.81,0,0,0,.54,0h.5a2.87,2.87,0,0,0,.55,0,8.9,8.9,0,0,0,0,.9V132a4.9,4.9,0,0,0,0,.7Z" transform="translate(0 -0.21)"/><path class="cls-3" d="M4.42,132.31a1.5,1.5,0,0,1-.36-.55,3.59,3.59,0,0,1-.21-1.24,3.17,3.17,0,0,1,.33-1.5,1.54,1.54,0,0,1,1.38-.76,1.59,1.59,0,0,1,1.14.44,1.46,1.46,0,0,1,.36.55,3.66,3.66,0,0,1,.21,1.26,2.8,2.8,0,0,1-.4,1.6,1.53,1.53,0,0,1-1.31.64A1.53,1.53,0,0,1,4.42,132.31Zm1.73-.42a2.1,2.1,0,0,0,.37-1.39,2.14,2.14,0,0,0-.37-1.39.81.81,0,0,0-.59-.22.73.73,0,0,0-.61.27,2,2,0,0,0-.36,1.32,2.37,2.37,0,0,0,.28,1.29.78.78,0,0,0,.69.35A.79.79,0,0,0,6.15,131.89Z" transform="translate(0 -0.21)"/><path class="cls-3" d="M8.61,132.66a.7.7,0,0,1-.55.81l-.2-.28c.33-.1.41-.19.41-.53H7.82v-.79h.79Z" transform="translate(0 -0.21)"/><path class="cls-3" d="M9.73,132.31a1.47,1.47,0,0,1-.35-.55,3.59,3.59,0,0,1-.21-1.24A3.17,3.17,0,0,1,9.5,129a1.54,1.54,0,0,1,1.38-.76,1.6,1.6,0,0,1,1.14.44,1.59,1.59,0,0,1,.36.55,3.66,3.66,0,0,1,.21,1.26,2.88,2.88,0,0,1-.4,1.6,1.56,1.56,0,0,1-1.32.64A1.56,1.56,0,0,1,9.73,132.31Zm1.73-.42a2,2,0,0,0,.38-1.39,2.08,2.08,0,0,0-.38-1.39.79.79,0,0,0-.59-.22.7.7,0,0,0-.6.27,2,2,0,0,0-.36,1.32,2.48,2.48,0,0,0,.27,1.29.8.8,0,0,0,.7.35A.75.75,0,0,0,11.46,131.89Z" transform="translate(0 -0.21)"/><path class="cls-3" d="M13.59,132.31a1.5,1.5,0,0,1-.36-.55,3.59,3.59,0,0,1-.21-1.24,3.17,3.17,0,0,1,.33-1.5,1.54,1.54,0,0,1,1.38-.76,1.59,1.59,0,0,1,1.14.44,1.46,1.46,0,0,1,.36.55,3.66,3.66,0,0,1,.21,1.26,2.8,2.8,0,0,1-.4,1.6,1.53,1.53,0,0,1-1.31.64A1.56,1.56,0,0,1,13.59,132.31Zm1.73-.42a2.1,2.1,0,0,0,.38-1.39,2.14,2.14,0,0,0-.38-1.39.81.81,0,0,0-.59-.22.73.73,0,0,0-.61.27,2,2,0,0,0-.36,1.32,2.47,2.47,0,0,0,.28,1.29.78.78,0,0,0,.69.35A.79.79,0,0,0,15.32,131.89Z" transform="translate(0 -0.21)"/><path class="cls-3" d="M17.44,132.31a1.47,1.47,0,0,1-.35-.55,3.59,3.59,0,0,1-.21-1.24,3.17,3.17,0,0,1,.33-1.5,1.54,1.54,0,0,1,1.38-.76,1.6,1.6,0,0,1,1.14.44,1.59,1.59,0,0,1,.36.55,3.66,3.66,0,0,1,.21,1.26,2.88,2.88,0,0,1-.4,1.6,1.69,1.69,0,0,1-2.46.2Zm1.73-.42a2,2,0,0,0,.38-1.39,2.08,2.08,0,0,0-.38-1.39.81.81,0,0,0-.59-.22.73.73,0,0,0-.61.27,2.08,2.08,0,0,0-.35,1.32,2.48,2.48,0,0,0,.27,1.29.8.8,0,0,0,.7.35A.77.77,0,0,0,19.17,131.89Z" transform="translate(0 -0.21)"/><rect class="cls-5" x="51.72" y="4.24" width="136.41" height="30.69" rx="15.35"/><path class="cls-2" d="M72.83,13.69a6.18,6.18,0,0,0-.65,0H70.4a5.28,5.28,0,0,0-.61,0v-.54a8.55,8.55,0,0,1-1.25.68,2.41,2.41,0,0,0-.39-.67,6.5,6.5,0,0,0,1.71-1,4.28,4.28,0,0,0,1-1.09h.82a4.77,4.77,0,0,0,1.14,1.15,5.68,5.68,0,0,0,1.67.88,2.33,2.33,0,0,0-.39.74,9.65,9.65,0,0,1-1.27-.7Zm1,1.05a3.4,3.4,0,0,0-.29.33l-1.28,1.62c-.16.22-.28.38-.42.59l-.76-.42a4.6,4.6,0,0,0,.51-.55L72.71,15h-3a7.63,7.63,0,0,0-.82,0v-.75a7.21,7.21,0,0,0,.83,0h3a3.62,3.62,0,0,0,.69,0ZM72.23,13h.39a5.2,5.2,0,0,1-1.33-1.27A6,6,0,0,1,70,13h2.25Z" transform="translate(0 -0.21)"/><path class="cls-2" d="M76.9,14.41a3.21,3.21,0,0,1-.49.48,3.1,3.1,0,0,0-.31-.7,4.81,4.81,0,0,0,1.09-1.07,2.6,2.6,0,0,0,.4-.65l.6.39a3.16,3.16,0,0,0-.18.27s0,0-.08.11-.29.39-.34.47v2.68a7.59,7.59,0,0,0,0,.78h-.77a4.35,4.35,0,0,0,0-.72v-2Zm1.23-3c-.25.31-.25.32-.42.51a5.23,5.23,0,0,1-1.15,1,2.21,2.21,0,0,0-.37-.61A3.27,3.27,0,0,0,77.54,11Zm2.11-.09a1.91,1.91,0,0,0-.17.23,9.65,9.65,0,0,1-.71.84,3.71,3.71,0,0,1,.4.37,6.71,6.71,0,0,0,1-1.26l.68.36c-.05.05-.09.11-.24.29a14.78,14.78,0,0,1-1.3,1.35c.52,0,.52,0,1.26-.08-.1-.14-.16-.22-.35-.45l.55-.34a12.65,12.65,0,0,1,1,1.46l-.6.38c-.15-.28-.19-.36-.29-.52l-1.54.15a2.3,2.3,0,0,1-.2.35h1a3.75,3.75,0,0,0,.54,0l.41.38L81.6,15a6.27,6.27,0,0,1-1,1,6,6,0,0,0,1.77.47,3.1,3.1,0,0,0-.32.72A6,6,0,0,1,80,16.42a5.52,5.52,0,0,1-2,.78,2.13,2.13,0,0,0-.33-.64A5.07,5.07,0,0,0,79.42,16a3.52,3.52,0,0,1-.55-.55,4.42,4.42,0,0,1-.78.53,2.45,2.45,0,0,0-.44-.58,3.14,3.14,0,0,0,1.5-1.22,7.38,7.38,0,0,0-1.19.1l-.08-.72.4,0H79l.32-.29a8.87,8.87,0,0,0-1.22-1l.47-.51.34.25a3.79,3.79,0,0,0,.7-1ZM79.38,15a2.73,2.73,0,0,0,.63.59,3.79,3.79,0,0,0,.65-.59Z" transform="translate(0 -0.21)"/><path class="cls-2" d="M89.12,16.72a4.5,4.5,0,0,0-1.22-.9l-.36-.17v.07a1,1,0,0,1-.37.9,1.77,1.77,0,0,1-1.09.28c-1,0-1.53-.37-1.53-1s.66-1.14,1.77-1.14a3.31,3.31,0,0,1,.44,0v-.3c0-.1,0-.1,0-.36h-.66c-.4,0-.65,0-1.2,0h-.25l0-.71a9.13,9.13,0,0,0,1.54.11l.54,0s0-.28,0-.66h-.41c-.33,0-1.18,0-1.62-.07h-.26V12a8.43,8.43,0,0,0,1.78.14h.5a4.42,4.42,0,0,0,0-.84h.84a4.1,4.1,0,0,0,0,.81,8.46,8.46,0,0,0,1.9-.25l0,.73-.53.06c-.58.08-.84.1-1.42.14,0,.16,0,.24,0,.65l.94-.08a5.73,5.73,0,0,0,.83-.15l0,.73a4,4,0,0,0-.44,0l-.89.1-.45,0c0,.65,0,.65,0,.8a5.94,5.94,0,0,1,1.81.94l.24.15Zm-2.89-1.34c-.54,0-.86.17-.86.46s.28.39.75.39A.71.71,0,0,0,86.7,16a.83.83,0,0,0,.08-.42v-.16A2.15,2.15,0,0,0,86.23,15.38Z" transform="translate(0 -0.21)"/><path class="cls-2" d="M95.36,13.7s0,.08,0,.16a2.05,2.05,0,0,1,.21.93,2.13,2.13,0,0,1-1,1.79,4.63,4.63,0,0,1-1.2.54,2.1,2.1,0,0,0-.47-.75A3.09,3.09,0,0,0,94.05,16a1.43,1.43,0,0,0,.77-1,1.1,1.1,0,0,1-1,.47,1.17,1.17,0,0,1-.76-.24,1,1,0,0,1-.46-.89,1.22,1.22,0,0,1,1.32-1.2,1.06,1.06,0,0,1,.68.2v-.08s0-.39,0-.57l-1.86.07a11.62,11.62,0,0,0-1.18.1l0-.79h.32l1.13,0,1,0h.56a4.32,4.32,0,0,0,0-.81h.83a7.61,7.61,0,0,0,0,.79c1.15,0,1.67,0,1.91,0v.76c-.25,0-.56,0-1.11,0h-.8v1ZM94,13.77a.58.58,0,0,0-.62.53.52.52,0,0,0,.57.52.6.6,0,0,0,.64-.6C94.6,13.94,94.37,13.77,94,13.77Z" transform="translate(0 -0.21)"/><path class="cls-2" d="M104.05,16.72a4.35,4.35,0,0,0-1.22-.9l-.36-.17v.07a1,1,0,0,1-.37.9,1.77,1.77,0,0,1-1.09.28c-1,0-1.52-.37-1.52-1s.65-1.14,1.76-1.14a3.46,3.46,0,0,1,.45,0,.86.86,0,0,0,0-.16v-.14c0-.1,0-.1,0-.36H101c-.41,0-.65,0-1.2,0h-.25v-.71a9.22,9.22,0,0,0,1.54.11l.55,0s0-.28,0-.66h-.42c-.32,0-1.18,0-1.62-.07h-.25V12a8.3,8.3,0,0,0,1.78.14h.49a4,4,0,0,0,0-.84h.84a4.65,4.65,0,0,0,0,.81,8.57,8.57,0,0,0,1.91-.25l0,.73-.52.06c-.58.08-.84.1-1.42.14,0,.16,0,.24,0,.65l.94-.08a5.56,5.56,0,0,0,.82-.15l0,.73a3.82,3.82,0,0,0-.43,0l-.89.1-.45,0c0,.65,0,.65,0,.8a6.09,6.09,0,0,1,1.82.94l.23.15Zm-2.89-1.34c-.53,0-.86.17-.86.46s.29.39.76.39a.69.69,0,0,0,.57-.21.74.74,0,0,0,.08-.42v-.16A2.15,2.15,0,0,0,101.16,15.38Z" transform="translate(0 -0.21)"/><path class="cls-2" d="M110.29,13.7s0,.08,0,.16a1.93,1.93,0,0,1,.21.93,2.12,2.12,0,0,1-1,1.79,4.8,4.8,0,0,1-1.2.54,2.25,2.25,0,0,0-.47-.75A3.1,3.1,0,0,0,109,16a1.4,1.4,0,0,0,.77-1,1.08,1.08,0,0,1-1,.47,1.2,1.2,0,0,1-.77-.24,1,1,0,0,1-.46-.89,1.22,1.22,0,0,1,1.32-1.2,1.07,1.07,0,0,1,.69.2.22.22,0,0,1,0-.08v-.57l-1.86.07a11.62,11.62,0,0,0-1.18.1l0-.79h.33l1.12,0,1,0h.56a2.94,2.94,0,0,0,0-.81h.84a4.74,4.74,0,0,0,0,.79c1.15,0,1.67,0,1.92,0v.76c-.24,0-.56,0-1.11,0h-.8v1Zm-1.35.07a.57.57,0,0,0-.61.53.52.52,0,0,0,.56.52.6.6,0,0,0,.65-.6C109.54,13.94,109.31,13.77,108.94,13.77Z" transform="translate(0 -0.21)"/><path class="cls-2" d="M117.44,13.4a4.84,4.84,0,0,0,1,1.73,4.74,4.74,0,0,0,1.83,1.26,2.41,2.41,0,0,0-.48.76,5.47,5.47,0,0,1-1.64-1.21,5.09,5.09,0,0,1-1-1.61A4,4,0,0,1,116,16.11a5,5,0,0,1-1.58,1,2.64,2.64,0,0,0-.46-.7,4.84,4.84,0,0,0,1.07-.56,3.36,3.36,0,0,0,1.49-2.49H115a5.64,5.64,0,0,0-.83,0V12.6a5.52,5.52,0,0,0,.83.05h1.63c0-.33,0-.44,0-.78a4.08,4.08,0,0,0,0-.67h.87a4.88,4.88,0,0,0,0,.78c0,.27,0,.42,0,.67h1.76a5.82,5.82,0,0,0,.83-.05v.84a6.47,6.47,0,0,0-.83,0Z" transform="translate(0 -0.21)"/><path class="cls-2" d="M122.34,12.14a5.64,5.64,0,0,0,.63,0,12.39,12.39,0,0,0,1.36-.07l-.07-.17c-.16-.38-.26-.59-.26-.6l.82-.12a4.26,4.26,0,0,0,.28.81,12,12,0,0,0,1.78-.4l.07.7-.23,0c-.44.1-1.17.25-1.38.27.11.25.15.33.26.55l.91-.2a2.68,2.68,0,0,0,.63-.19l.07.72-.42.09-.65.15-.24.05a6.57,6.57,0,0,0,.88,1.21l-.58.42a3.53,3.53,0,0,0-1.52-.27,2.54,2.54,0,0,0-1.11.18.49.49,0,0,0-.29.4.43.43,0,0,0,.29.39,2.62,2.62,0,0,0,.94.14,5,5,0,0,0,2-.43l.12.82-.43.1a6.43,6.43,0,0,1-1.69.22,3.1,3.1,0,0,1-1.62-.32,1.07,1.07,0,0,1-.51-.91,1.1,1.1,0,0,1,.56-.92,2.91,2.91,0,0,1,1.54-.33,4.62,4.62,0,0,1,1.14.14,4.33,4.33,0,0,1-.5-.74,21,21,0,0,1-2.57.18,1.27,1.27,0,0,0-.27,0l0-.72a5.13,5.13,0,0,0,.68,0,14,14,0,0,0,1.87-.12,2,2,0,0,1-.12-.25c-.06-.14-.08-.18-.14-.3a16.36,16.36,0,0,1-1.77.1h-.45Z" transform="translate(0 -0.21)"/><path class="cls-2" d="M133.28,11.74a9.41,9.41,0,0,0-.81.73c-.34.31-.8.68-1.58,1.27-.2.15-.25.2-.25.28s0,.11.6.55a22.41,22.41,0,0,1,2.08,1.72l.19.17-.68.69a6.31,6.31,0,0,0-.86-.91,21.6,21.6,0,0,0-1.71-1.41c-.43-.34-.55-.52-.55-.82a.76.76,0,0,1,.22-.54,4.24,4.24,0,0,1,.58-.47A15.84,15.84,0,0,0,132,11.71a3.29,3.29,0,0,0,.48-.55Z" transform="translate(0 -0.21)"/><path class="cls-2" d="M138.36,11.25a4.29,4.29,0,0,0-.11.44c0,.16-.07.3-.14.59a5.87,5.87,0,0,0,1.06-.19l0,.76-.21,0c-.24,0-.64.08-1,.11a12.66,12.66,0,0,1-.73,1.92,9.05,9.05,0,0,1-.47.91l-.12.24-.76-.42a7,7,0,0,0,.64-1.06,9.67,9.67,0,0,0,.62-1.57h-1v-.76a4.31,4.31,0,0,0,.89.06h.34a6.7,6.7,0,0,0,.2-1.16Zm3,5.36a4.05,4.05,0,0,0-1-.82.78.78,0,0,1,0,.13,1,1,0,0,1-.28.7A1.52,1.52,0,0,1,139,17c-.87,0-1.44-.44-1.44-1.12s.59-1.13,1.43-1.13a3.63,3.63,0,0,1,.61.05c0-.3,0-.56,0-.76a3.41,3.41,0,0,1,.05-.66l.77,0a2.46,2.46,0,0,0-.08.67,8.42,8.42,0,0,0,.06.91,4,4,0,0,1,1,.61l.23.18.1.09ZM139,15.4c-.43,0-.7.18-.7.46s.23.43.65.43.66-.19.66-.56c0-.06,0-.22,0-.22A1.66,1.66,0,0,0,139,15.4Zm2.39-1.83a8.08,8.08,0,0,0-1.91-.93l.4-.64a10.09,10.09,0,0,1,1.86.89Z" transform="translate(0 -0.21)"/><path class="cls-2" d="M143.88,13.64a2.86,2.86,0,0,0,.69-.13,9.84,9.84,0,0,1,2-.27,1.71,1.71,0,0,1,1.57.67,1.54,1.54,0,0,1,.24.86,2.08,2.08,0,0,1-1.67,1.92,6.37,6.37,0,0,1-1.44.25,2.27,2.27,0,0,0-.28-.75h.1a5.92,5.92,0,0,0,.94-.1,2.37,2.37,0,0,0,1.1-.45,1.06,1.06,0,0,0,.47-.89c0-.52-.38-.8-1.09-.8a7.27,7.27,0,0,0-1.74.26,4.39,4.39,0,0,0-.76.22Z" transform="translate(0 -0.21)"/><path class="cls-2" d="M150.31,12.05h.25l1.09-.07,3.3-.16a4.06,4.06,0,0,0,.76-.07l0,.85h-.14a2.88,2.88,0,0,0-1.31.36A2.16,2.16,0,0,0,153,14.73a1.11,1.11,0,0,0,.88,1.07,4.09,4.09,0,0,0,1,.18H155l-.12.9a1.09,1.09,0,0,0-.22,0,3.83,3.83,0,0,1-1.55-.44,1.76,1.76,0,0,1-1-1.59,2.35,2.35,0,0,1,.63-1.56,2.81,2.81,0,0,1,.92-.67c-.53.08-.79.1-2.23.21a9.84,9.84,0,0,0-1.1.13Z" transform="translate(0 -0.21)"/><path class="cls-2" d="M158.85,11.79a8.31,8.31,0,0,0,0,1,13,13,0,0,0,.12,1.78c.11.68.33,1.11.54,1.11s.19-.1.27-.29a4.6,4.6,0,0,0,.35-1.19,3.53,3.53,0,0,0,.66.6c-.34,1.29-.73,1.82-1.29,1.82s-.8-.32-1.06-1a9.91,9.91,0,0,1-.42-3.46,3.52,3.52,0,0,0,0-.42Zm3.13.29a6.63,6.63,0,0,1,1.49,3.57l-.82.31a6.5,6.5,0,0,0-.43-1.92,5.58,5.58,0,0,0-.94-1.62Z" transform="translate(0 -0.21)"/><path class="cls-2" d="M169.28,11.74a10.34,10.34,0,0,0-.82.73c-.33.31-.8.68-1.57,1.27-.21.15-.25.2-.25.28s0,.11.59.55a21.34,21.34,0,0,1,2.09,1.72,1.08,1.08,0,0,0,.19.17l-.68.69a6.31,6.31,0,0,0-.86-.91,21.6,21.6,0,0,0-1.71-1.41c-.44-.34-.56-.52-.56-.82a.81.81,0,0,1,.22-.54,6.43,6.43,0,0,1,.59-.47A14.44,14.44,0,0,0,168,11.71a4.16,4.16,0,0,0,.49-.55Z" transform="translate(0 -0.21)"/><path class="cls-2" d="M87.87,20.08a5.44,5.44,0,0,0,0,.81v2.49a5.36,5.36,0,0,0,0,.8H86.64c0-.21,0-.49,0-.82V20.88a7.47,7.47,0,0,0,0-.81Zm4.1,0a3.81,3.81,0,0,0,0,.84v1.22a10.89,10.89,0,0,1-.23,2.73A3.44,3.44,0,0,1,89.91,27a8,8,0,0,1-1.76.7,3.08,3.08,0,0,0-.63-1.08,4.88,4.88,0,0,0,2-.72,2.53,2.53,0,0,0,1.24-2.3,14.44,14.44,0,0,0,.05-1.51V21a4.34,4.34,0,0,0-.05-.86Z" transform="translate(0 -0.21)"/><path class="cls-2" d="M101.54,21.26a2.55,2.55,0,0,0-.19.75c-.21,1.6-.31,2.24-.55,3.59h1.07a6.84,6.84,0,0,0,1.17-.06v1.14a8,8,0,0,0-1.15-.05H96.44a8.27,8.27,0,0,0-1.17.05V25.54a6.9,6.9,0,0,0,1.18.06H99.6a34.35,34.35,0,0,0,.57-3.7H97.36a5.42,5.42,0,0,0-1,.06V20.81a4.56,4.56,0,0,0,1,.07H100a3.17,3.17,0,0,0,1-.09Z" transform="translate(0 -0.21)"/><path class="cls-2" d="M105.81,23.1a8,8,0,0,0,1.46.07h4.81a7.89,7.89,0,0,0,1.46-.07v1.26a8.93,8.93,0,0,0-1.47-.05h-4.79a8.93,8.93,0,0,0-1.47.05Z" transform="translate(0 -0.21)"/><path class="cls-2" d="M122.35,27.49a17.6,17.6,0,0,0-2.77-2.68,10.75,10.75,0,0,1-3.44,2.61,3.62,3.62,0,0,0-.73-1,7.35,7.35,0,0,0,1.81-1,8.68,8.68,0,0,0,3-3.67l.1-.24-3,.06a8.14,8.14,0,0,0-1,.07l0-1.15a4.35,4.35,0,0,0,.79.05h.22l3.18,0a2,2,0,0,0,.8-.1l.6.61a1.58,1.58,0,0,0-.29.49A12.35,12.35,0,0,1,120.23,24a12.83,12.83,0,0,1,1.67,1.31c.22.19.22.19,1.32,1.25Z" transform="translate(0 -0.21)"/><path class="cls-2" d="M129.24,20.27a3.75,3.75,0,0,0-.06-.67h1.14a2.75,2.75,0,0,0-.06.66v.45h2.55a8.9,8.9,0,0,0,1.14-.06v1a6.33,6.33,0,0,0-1.11-.06h-6a9.41,9.41,0,0,0-1.11.06v-1a9.58,9.58,0,0,0,1.14.06h2.36Zm0,2.22a4.5,4.5,0,0,0,0-.66h1.08a4.56,4.56,0,0,0,0,.66v.11h2.09a7,7,0,0,0,.88,0c0,.25,0,.45,0,.78V26c0,.81-.26,1-1.32,1-.21,0-.38,0-.75,0a3.15,3.15,0,0,0-.24-1,6.59,6.59,0,0,0,.88.09c.37,0,.45-.05.45-.28V23.48h-2v3.35a7.58,7.58,0,0,0,.06,1.11h-1.14a7.73,7.73,0,0,0,.07-1.1V23.48h-1.79v2.59a7.62,7.62,0,0,0,0,1.07h-1.11a8.55,8.55,0,0,0,.06-1.06V23.34a6.57,6.57,0,0,0,0-.78,8.38,8.38,0,0,0,.93,0h1.9Z" transform="translate(0 -0.21)"/><path class="cls-2" d="M140.16,25.15a5.52,5.52,0,0,1-1.11.77,2.14,2.14,0,0,0-.34-.48,16.35,16.35,0,0,1-1.8.95l-.11.07-.09,0-.23-1.05a7.2,7.2,0,0,0,1-.36V22.7h-.26a5.43,5.43,0,0,0-.71,0v-1a4.92,4.92,0,0,0,.72,0h.25V20.7a8.31,8.31,0,0,0-.05-1h1a6.78,6.78,0,0,0-.05,1v1.11h.16a5,5,0,0,0,.64,0v.94a6.19,6.19,0,0,0-.63,0h-.17v1.94l.6-.34v.63a3.48,3.48,0,0,0,1.08-.92h-.2a5.87,5.87,0,0,0-.84,0v-.9a6,6,0,0,0,.85,0h3.94a7.11,7.11,0,0,0,.94-.05v.9a7.93,7.93,0,0,0-.93,0h-2.76a2.41,2.41,0,0,1-.25.37h2.87c.45,0,.62,0,.88,0a4.61,4.61,0,0,0,0,.53,7.6,7.6,0,0,1-.37,2.45c-.18.42-.47.54-1.26.54l-.76,0A2.17,2.17,0,0,0,142,27a6.55,6.55,0,0,1-1.49,1,2.33,2.33,0,0,0-.65-.68,5.63,5.63,0,0,0,1.64-1,3.89,3.89,0,0,0,.94-1.2h-.54a5.49,5.49,0,0,1-2.5,2,2.16,2.16,0,0,0-.58-.69,4.73,4.73,0,0,0,2.1-1.29Zm.27-2.33a5.9,5.9,0,0,0-.83,0,7.34,7.34,0,0,0,0-.88V20.67a6.3,6.3,0,0,0,0-.82,7.56,7.56,0,0,0,.91,0h2.63a8.25,8.25,0,0,0,1,0,6.52,6.52,0,0,0,0,.89V22a6.37,6.37,0,0,0,0,.87c-.19,0-.46,0-.83,0Zm.14-1.76h2.55v-.38h-2.55Zm0,1h2.55v-.37h-2.55Zm2.75,3.06a4.94,4.94,0,0,1-1.26,1.77A6.81,6.81,0,0,0,143,27c.33,0,.43-.09.51-.48a10.56,10.56,0,0,0,.15-1.36Z" transform="translate(0 -0.21)"/><path class="cls-2" d="M149.37,25.38c0-.19,0-.28,0-.39s0-.1,0-.64l-.13-3.07c0-.4,0-.85-.08-1.1h1.48c0,.24-.06.71-.08,1.1l-.13,3.07c0,.52,0,.52,0,.65a2.91,2.91,0,0,0,0,.38Zm-.13,2V26.12h1.31v1.23Z" transform="translate(0 -0.21)"/><line class="cls-2" x1="170.57" y1="33.09" x2="176.42" y2="43.23"/><line class="cls-6" x1="170.57" y1="33.09" x2="176.42" y2="43.23"/><line class="cls-7" x1="170.57" y1="33.09" x2="176.42" y2="43.23"/></svg>