<svg id="icon_point04" xmlns="http://www.w3.org/2000/svg" width="200" height="200" viewBox="0 0 200 200">
  <g id="icon_point04-2" data-name="icon_point04">
    <rect id="長方形_84" data-name="長方形 84" width="200" height="200" fill="none"/>
    <path id="パス_120" data-name="パス 120" d="M84,115.11a4.13,4.13,0,0,0-1.25-1.41L53,92.83A4.09,4.09,0,0,0,47.65,99l12.6,13.07a4.08,4.08,0,0,1,.4,5.19l-3.51,5a4.09,4.09,0,0,1-5.7,1l-8.11-5.69a4.05,4.05,0,0,1-1.22-1.35L24,83.78a4.08,4.08,0,0,0-4.16-2l-.79.12a4.09,4.09,0,0,0-3.39,5l9.74,40.92a4.07,4.07,0,0,0,1.63,2.4l41,28.73h0V171.5H94.32V135.32a4.15,4.15,0,0,0-.49-1.95Z" fill="#ffab40"/>
    <path id="パス_121" data-name="パス 121" d="M181,81.85l-.79-.12a4.08,4.08,0,0,0-4.16,2l-18.16,32.46a4.05,4.05,0,0,1-1.22,1.35l-8.11,5.69a4.09,4.09,0,0,1-5.7-1l-3.51-5a4.08,4.08,0,0,1,.4-5.19L152.35,99a4.09,4.09,0,0,0-5.3-6.19L117.3,113.7a4.13,4.13,0,0,0-1.25,1.41l-9.88,18.26a4.15,4.15,0,0,0-.49,1.95V171.5H132V158.86h0l41-28.73a4.07,4.07,0,0,0,1.63-2.4l9.74-40.92A4.09,4.09,0,0,0,181,81.85Z" fill="#ffab40"/>
    <path id="パス_122" data-name="パス 122" d="M129.29,76.07c6-6.75,9.58-13.14,10.61-19h0a34,34,0,0,0,.51-5.79,24.29,24.29,0,0,0-5.2-15.75c-3.55-4.36-8.53-6.72-14.79-7-8.9-.45-15.75,2.92-20.41,10-4.62-7.11-11.49-10.47-20.43-10-6.28.27-11.26,2.63-14.81,7a24.29,24.29,0,0,0-5.2,15.75,33.33,33.33,0,0,0,.52,5.83c1.12,5.83,4.68,12.2,10.6,19A123.229,123.229,0,0,0,87.21,91.23C91,94,94.81,96.79,98.54,99.58h2.9c3.83-2.79,7.61-5.58,11.41-8.41a123.919,123.919,0,0,0,16.44-15.1Z" fill="#ffab40"/>
  </g>
</svg>
