<svg id="icon_point03" xmlns="http://www.w3.org/2000/svg" width="200" height="200" viewBox="0 0 200 200">
  <g id="icon_point03-2" data-name="icon_point03">
    <rect id="長方形_83" data-name="長方形 83" width="200" height="200" fill="none"/>
    <path id="パス_119" data-name="パス 119" d="M139.935,89.621c29.057,57.625,8.085,67.543-45.314,68.5v.087c-1.746,0-3.379,0-5.073-.044s-3.318.044-5.073.044v-.087c-53.4-.96-74.371-10.9-45.314-68.5,10.233-18.9,22.561-28,50.387-28S132.042,72.116,139.935,89.621Zm12.3-22.779c-5.658-8.242-14.563-14.7-25.364-19.208a89.7,89.7,0,0,0-17.968-5.3A12.284,12.284,0,1,0,89.548,27.247,12.267,12.267,0,1,0,70.192,42.3,82.657,82.657,0,0,0,42.1,52.776,50.177,50.177,0,0,0,26.86,66.842a32.7,32.7,0,0,0-5.99,18.545,6.182,6.182,0,1,0,12.363,0,20.361,20.361,0,0,1,3.833-11.577C40.9,68.16,47.84,62.817,56.99,58.967a85.311,85.311,0,0,1,32.558-6.112c16.222,0,30.829,4.13,40.94,10.407a38.12,38.12,0,0,1,11.542,10.53,20.361,20.361,0,0,1,3.807,11.595,6.182,6.182,0,0,0,12.363,0,32.7,32.7,0,0,0-5.963-18.545ZM98.69,109.484,111.149,90H99.284l-9.709,15.192L79.8,90H67.974l12.092,19.488H68.28v8.321H84.2v3.824H68.28v8.321H84.2v7.491H94.8V129.95h16.021v-8.321H94.8v-3.824h16.021v-8.321Z" transform="translate(9.48 9.894)" fill="#ffab40"/>
  </g>
</svg>
