<svg id="icon_point01" xmlns="http://www.w3.org/2000/svg" width="200" height="200" viewBox="0 0 200 200">
  <g id="icon_point01-2" data-name="icon_point01">
    <rect id="長方形_81" data-name="長方形 81" width="200" height="200" fill="none"/>
    <path id="パス_114" data-name="パス 114" d="M112.3,46.17a1.72,1.72,0,0,0,1.7-1.71V40.72a1.72,1.72,0,1,0-3.43,0v3.74a1.72,1.72,0,0,0,1.73,1.71ZM98.13,47.91a1.72,1.72,0,1,0,2.66-2.18L97.74,42a1.723,1.723,0,1,0-2.67,2.18Zm28.33,0,3.06-3.74A1.72,1.72,0,1,0,126.86,42l-3,3.74a1.72,1.72,0,1,0,2.65,2.18Zm46.09,61.26c.76-9.91-18.31-10.68-18.31-10.68H115.16s-1.15-6.29.57-9.72,11.44-13.92,4.77-26.51c-6.2-11.7-15.45-6.67-16.6,3.06S89.71,89.2,89.6,93.92c-.18,8.58-2.28,8.58-5.72,16s-13.73,6.29-13.73,6.29H49V171.7s36-1.71,49.19,0,40,3,53.78-1.71a11.25,11.25,0,0,0,7.62-12c-.53-4.13,4.58-2.67,6.1-9.16,1.27-5.37-1.14-6.25-1.14-8.77,0-1.72,3.43-3.81,4-8.39s-.57-7.43-2.28-10.87S172,116.58,172.55,109.17ZM28,174H44.4V113.94H28Z" transform="translate(-0.5)" fill="#ffab40"/>
  </g>
</svg>
