<svg height="200" viewBox="0 0 200 200" width="200" xmlns="http://www.w3.org/2000/svg"><g fill="#ffab40" transform="translate(-.5)"><path d="m103.48 37.63a8.05 8.05 0 0 0 -5.48 1.86 6.44 6.44 0 0 0 -2.11 5.08 7 7 0 0 0 1 3.78 6.23 6.23 0 0 0 2.7 2.37 9.17 9.17 0 0 0 4 .81 10.12 10.12 0 0 0 3-.45 6.7 6.7 0 0 0 2.4-1.33 6.31 6.31 0 0 0 1.58-2.19 7.38 7.38 0 0 0 .57-3 6.43 6.43 0 0 0 -2.1-5.09 8 8 0 0 0 -5.56-1.84z"/><path d="m105.45 74.54a12.769 12.769 0 0 0 .28 3.08 2.43 2.43 0 0 0 1 1.56 3.9 3.9 0 0 0 2.16.49 3.3 3.3 0 0 0 2.9-1.13 7.52 7.52 0 0 0 .78-4v-1.74h-7.15z"/><path d="m135.27 14v-2.4h-11.66v-5.41h-5.41v5.41h-28.63v-5.41h-5.42v5.41h-15.45v-6.6h-4.21v6.6h-5v2.4h5v13.6h-3.78v5.4h3.78v31.5h-3.78v5.41h3.78v35.24h-3.78v5.41h3.78v37.29h-3.78v5.41h3.78v41.74h4.21v-41.72h4.43v4.44a2.61 2.61 0 0 0 2.61 2.61h56.52a2.61 2.61 0 0 0 2.61-2.61v-136.49a2.61 2.61 0 0 0 -2.61-2.61h-8.65v-4.62zm-66.57 0h15.45v4.61h-8.41a2.61 2.61 0 0 0 -2.61 2.61v6.38h-4.43zm49.6 124.84v8h-29.68v-7.17l16.53-13.86h-16.53v-8h29.68v7.19l-16.45 13.82zm-6-26.69v-11.74h-5.4v11.21h-6v-11.21h-6.31v12.08h-6v-20.14h29.71v19.81zm5.1-29.52a8.21 8.21 0 0 1 -2.23 3.08 8.7 8.7 0 0 1 -3 1.64 10.55 10.55 0 0 1 -3.28.51 10.09 10.09 0 0 1 -3.22-.51 8.76 8.76 0 0 1 -2.94-1.64 8.26 8.26 0 0 1 -2.2-3.08 11.2 11.2 0 0 1 -.85-4.55v-5.28h-11.06v-8.06h29.68v13.35a11.19 11.19 0 0 1 -.86 4.55zm0-31.47a13 13 0 0 1 -3.3 4.77 14.17 14.17 0 0 1 -4.87 2.83 17.4 17.4 0 0 1 -5.83 1 17 17 0 0 1 -7.57-1.76 13.23 13.23 0 0 1 -5.54-5.13 15.76 15.76 0 0 1 -2.06-8.31 15.63 15.63 0 0 1 2.14-8.39 13.47 13.47 0 0 1 5.63-5.09 17.3 17.3 0 0 1 7.48-1.66 17.09 17.09 0 0 1 7.52 1.66 13.11 13.11 0 0 1 5.61 5.1 15.63 15.63 0 0 1 2.13 8.39 16.78 16.78 0 0 1 -1.26 6.6zm-48.7-18.16h4.43v31.5h-4.43zm0 36.91h4.43v35.24h-4.43zm0 77.94v-37.27h4.43v37.29zm49.5-129.23h-28.63v-4.62h28.63z"/></g><path d="m0 0h200v200h-200z" fill="none"/></svg>