<svg height="200" viewBox="0 0 200 200" width="200" xmlns="http://www.w3.org/2000/svg"><g fill="#ffab40" transform="translate(-.5)"><path d="m24 4.76v100.84h40.11v7.18h-27.43v14.08h125.88v-14.08h-27.43v-7.18h40.12v-100.84zm139.62 89.24h-128v-77.6h128zm-10.42 52.32h-51.2v-5.59h52.18v-5.59h-57.82v11.18h-50.36a2.68 2.68 0 0 0 -2.77 2.07l-7 44.15a2.14 2.14 0 0 0 .67 1.89 3 3 0 0 0 2.1.81h121.18a3 3 0 0 0 2.11-.81 2.19 2.19 0 0 0 .67-1.89l-7-44.15a2.69 2.69 0 0 0 -2.76-2.07zm-33.7 29.43h-9.69l-.14-5.5h9.55zm-.5-9.65h-9.44l-.14-5.23h9.31zm-.72-14.16.25 5h-9.21l-.13-5zm-23.21 0h9.09l.06 5h-9.22zm-.07 8.93h9.31l.07 5.23h-9.48zm-.12 9.38h9.55l.07 5.5h-9.73zm-13.88-18.31h9.09l-.13 5h-9.26zm-.46 8.93h9.31l-.13 5.23h-9.49zm-.54 9.38h9.55l-.15 5.5h-9.67zm-21.72 15.66h-10l.76-5.79h9.79zm1.06-10.16h-9.69l.71-5.5h9.55zm1-9.65h-9.44l.68-5.23h9.31zm1-9.18h-9.25l.64-5h9.09zm12.42 29h-9.99l.53-5.79h9.79zm.66-10.16h-9.73l.5-5.5h9.55zm.58-9.66h-9.44l.48-5.23h9.31zm.6-9.18h-9.21l.46-5h9.09zm3.6 29 .3-5.79h40.22l.29 5.79zm44.09-34h9.09l.45 5h-9.22zm.58 8.93h9.32l.47 5.23h-9.45zm.62 9.38h9.55l.5 5.5h-9.69zm1 15.66-.38-5.79h9.8l.52 5.79zm11.89-34h9.09l.64 5h-9.21zm.93 8.93h9.32l.68 5.23h-9.45zm1 9.38h9.55l.71 5.5h-9.67zm1.69 15.71-.6-5.79h9.8l.75 5.79z"/><path d="m99.62 23.16a16.57 16.57 0 1 1 -16.57 16.58 16.57 16.57 0 0 1 16.57-16.58z"/><path d="m112.92 60.17-9.84 21.46-1.2-14.22 2.62-3-.79-5.74c-1.36-.12-2.21-.16-2.21-.16h-3.76a20.791 20.791 0 0 0 -2.19.16l-.78 5.74 2.6 3-1.06 14.22-10-21.46c-6.31 1.46-12.88 4.23-12.88 9.42v22.27h52.38v-22.27c0-5.19-6.58-7.95-12.89-9.42z"/><path d="m99.62 56.3a16.57 16.57 0 1 0 -16.57-16.56 16.57 16.57 0 0 0 16.57 16.56z"/></g><path d="m0 0h200v200h-200z" fill="none"/></svg>