<svg id="icon_step03" xmlns="http://www.w3.org/2000/svg" width="200" height="200" viewBox="0 0 200 200">
  <g id="icon_step03-2" data-name="icon_step03">
    <rect id="長方形_101" data-name="長方形 101" width="200" height="200" fill="none"/>
    <path id="パス_153" data-name="パス 153" d="M194.35,117.15,158.53,38.6l-15.41,7,1.95,4.28-.94.52-8.62,3.92-18.19-8.57a5.08,5.08,0,0,0-5,.38l-20.83,14-5.34-3.07a5.22,5.22,0,0,0-1.37-.54c-2.12-.49-11-2-24.23-4.15l-6.29-1,2.62-5.74-15.41-7L5.65,117.15l15.41,7,4.88-10.71c4.94,5.26,10.49,11,13.73,14.3a9.42,9.42,0,0,0-.54,4.59,10.64,10.64,0,0,0,4.46,7c4.74,3.94,26.24,21.33,37.22,22h.81a9.87,9.87,0,0,0,5.71-1.77,17.8,17.8,0,0,0,6.93,1.77h.3a5,5,0,0,0,1.34-.22c.36-.11,9-2.82,24.89-11.82,9.46-5.35,14.06-11.78,16.32-16.75,5.37-1.59,18.56-5.88,28.89-12.19a89,89,0,0,0,8.56-5.85l4.38,9.6ZM49.9,131.4a3.1,3.1,0,0,0-.46-.35l-.1-.08c.07-.09.16-.22.29-.38,2.33-2,6.57-4.84,8.6-4.84,8,0,14,3.16,18.18,9.68,3.22,5,5.5,13.12,5,15.8C75.57,150.81,59.49,139.4,49.9,131.4Zm69,7.11L108,125.38a2.54,2.54,0,1,0-3.9,3.24l10.42,12.57c-2.65,1.48-5.09,2.79-7.27,3.9l-8.92-10.74a2.54,2.54,0,1,0-3.9,3.24l8.13,9.8c-4.48,2.11-7.5,3.3-8.85,3.79a13.93,13.93,0,0,1-2.22-.81c0-8.09-4.91-17.86-6.57-20.43-6-9.39-15.28-14.36-26.76-14.36-4.19,0-8.62,2.45-11.72,4.61-3.75-3.84-10.11-10.41-15.2-15.9a4.61,4.61,0,0,0-.84-.69L49.9,60.93l9,1.49c8.84,1.46,19.66,3.25,22.88,3.88l.31.18L76,70.57a5,5,0,0,0-1.88,2.32c-11.8,29.38-5,32.25-2.11,33.47,7.61,3.21,20.68-1.91,28.91-11.24l1.94-1.19,18,11.19,8.13,20a16.33,16.33,0,0,1-1.33,3.75L117.1,116.13a2.54,2.54,0,0,0-3.91,3.24l11.54,13.92a29.32,29.32,0,0,1-5.8,5.22Zm41.77-26.76c-7.17,4.39-16.22,7.78-22.2,9.76l-8.84-21.74a5.15,5.15,0,0,0-2-2.4L105.57,83.64a5,5,0,0,0-5.35,0L94.94,86.9a5.1,5.1,0,0,0-1.22,1c-5.34,6.38-12.53,9.1-16.09,9.29.25-3.63,2.45-11.52,5.37-19.07l32.6-21.93,17.7,8.35a5.13,5.13,0,0,0,4.27,0l11-5,.39-.2.37-.22L170.19,105a63.191,63.191,0,0,1-9.49,6.75Z" transform="translate(-0.5)" fill="#ffab40"/>
  </g>
</svg>
