<svg id="icon_group03" xmlns="http://www.w3.org/2000/svg" width="164" height="164" viewBox="0 0 164 164">
  <rect id="長方形_137" data-name="長方形 137" width="164" height="164" fill="none"/>
  <path id="パス_214" data-name="パス 214" d="M47.373,115.73H22.665A3.375,3.375,0,0,0,19.29,119.1v41.557a3.391,3.391,0,0,0,3.375,3.375H47.373a3.375,3.375,0,0,0,3.367-3.375V119.1A3.367,3.367,0,0,0,47.373,115.73Z" transform="translate(-3.861 -20.701)"/>
  <path id="パス_215" data-name="パス 215" d="M97,150.61H70.885a3.391,3.391,0,0,0-3.375,3.375V166.9a3.375,3.375,0,0,0,3.375,3.367H97a3.367,3.367,0,0,0,3.367-3.367V153.985A3.375,3.375,0,0,0,97,150.61Z" transform="translate(-12.486 -26.94)"/>
  <path id="パス_216" data-name="パス 216" d="M157.026,81.53H115.477A3.367,3.367,0,0,0,112.11,84.9v24.708H70.537a3.364,3.364,0,0,0-3.367,3.367v15.166a3.375,3.375,0,0,0,3.367,3.375h36.507v22.992a3.375,3.375,0,0,0,3.367,3.375h46.615a3.391,3.391,0,0,0,3.375-3.375V84.9a3.375,3.375,0,0,0-3.375-3.375Z" transform="translate(-12.425 -14.583)"/>
  <path id="パス_217" data-name="パス 217" d="M169.2,26.435a3.4,3.4,0,0,0-2.381-.985H125.267a3.367,3.367,0,0,0-3.367,3.367V60.266a3.367,3.367,0,0,0,3.367,3.408h41.549A3.375,3.375,0,0,0,170.19,60.3V28.817A3.383,3.383,0,0,0,169.2,26.435Z" transform="translate(-22.215 -4.552)" stroke="#707070" stroke-width="1"/>
</svg>
