<svg id="icon_step01" xmlns="http://www.w3.org/2000/svg" width="200" height="200" viewBox="0 0 200 200">
  <g id="icon_step01-2" data-name="icon_step01">
    <rect id="長方形_88" data-name="長方形 88" width="200" height="200" fill="none"/>
    <path id="パス_136" data-name="パス 136" d="M136.61,97a38.33,38.33,0,1,0,22.9,69l26.2,26.18a5.48,5.48,0,0,0,7.74-7.75l-26.19-26.17A38.26,38.26,0,0,0,136.61,97Zm-27.37,38.33a27.38,27.38,0,1,1,27.373,27.37,27.38,27.38,0,0,1-27.373-27.37Z" transform="translate(-0.5)" fill="#ffab40"/>
    <path id="パス_137" data-name="パス 137" d="M101.59,66.75H67.47a9,9,0,1,1-16.47,0H16.87A12.72,12.72,0,0,1,10,64.68V92.41a9.41,9.41,0,0,0,9.39,9.4H99.1a9.41,9.41,0,0,0,9.4-9.4V64.68a12.76,12.76,0,0,1-6.91,2.07Z" transform="translate(-0.5)" fill="#ffab40"/>
    <path id="パス_138" data-name="パス 138" d="M11.71,59.24a7.41,7.41,0,0,0,5.16,2.14H58.54c.24,0,.46-.07.69-.07a2.315,2.315,0,0,1,.69.07h41.67a7.18,7.18,0,0,0,6.91-5.07V40.41A9.39,9.39,0,0,0,99.1,31H89.73a31,31,0,0,0-61,0H19.36A9.39,9.39,0,0,0,10,40.41v15.9a7.22,7.22,0,0,0,1.71,2.93ZM43,20.14A22.92,22.92,0,0,1,81.52,31H37a22.94,22.94,0,0,1,6-10.86Z" transform="translate(-0.5)" fill="#ffab40"/>
    <path id="パス_139" data-name="パス 139" d="M160.96,44.96H150.19l8.15,11.18Z" transform="translate(-0.5)" fill="#ffab40"/>
    <path id="パス_140" data-name="パス 140" d="M160.33,58.14h15.15l-12.1-12.76-2.93,12.5A1.57,1.57,0,0,1,160.33,58.14Z" transform="translate(-0.5)" fill="#ffab40"/>
    <path id="パス_141" data-name="パス 141" d="M159.74,60.59,150.04,87l26.41-26.41Z" transform="translate(-0.5)" fill="#ffab40"/>
    <path id="パス_142" data-name="パス 142" d="M132.39,46.13,121,58.14h14.45Z" transform="translate(-0.5)" fill="#ffab40"/>
    <path id="パス_143" data-name="パス 143" d="M156.77,58.14l-8.8-12.07-8.8,12.07Z" transform="translate(-0.5)" fill="#ffab40"/>
    <path id="パス_144" data-name="パス 144" d="M157.13,60.59H138.81l9.16,24.95Z" transform="translate(-0.5)" fill="#ffab40"/>
    <path id="パス_145" data-name="パス 145" d="M145.75,44.96H134.62l2.88,11.31Z" transform="translate(-0.5)" fill="#ffab40"/>
    <path id="パス_146" data-name="パス 146" d="M120.02,60.59l25.7,25.94L136.2,60.59Z" transform="translate(-0.5)" fill="#ffab40"/>
    <path id="パス_147" data-name="パス 147" d="M173.52,37s-.69,5.09-4.37,5.8c0,0,3.8,2.29,4.31,6.23.42-4,4.39-6.23,4.39-6.23C173.41,42,173.52,37,173.52,37Z" transform="translate(-0.5)" fill="#ffab40"/>
    <path id="パス_148" data-name="パス 148" d="M181.21,33.84c-2.66-.53-2.6-3.49-2.6-3.49s-.42,3.06-2.63,3.49a5.79,5.79,0,0,1,2.59,3.75,5.5,5.5,0,0,1,2.64-3.75Z" transform="translate(-0.5)" fill="#ffab40"/>
    <path id="パス_149" data-name="パス 149" d="M119.5,45.05a5.79,5.79,0,0,1,2.59,3.75,5.5,5.5,0,0,1,2.64-3.75c-2.67-.52-2.6-3.48-2.6-3.48S121.71,44.63,119.5,45.05Z" transform="translate(-0.5)" fill="#ffab40"/>
    <path id="パス_150" data-name="パス 150" d="M60.39,154l-3-1.94-.06,1.31,1.93,1.23Zm-5.27.5-1.1-.7-.16,3.6,1.16-.61Zm-1.21,3,3,1.93.06-1.31-1.93-1.23Zm1.31-3-.1,2.28L57.05,158l2-1.05.1-2.29-1.93-1.23Zm2-1.14.06-1.31-3.19,1.66,1.1.7Zm27.45-17.14-4.43-10.05-.18-.41c-2.64-5-18.15-2.09-34.63,6.57s-27.7,19.76-25.06,24.79l4.44,10.06h0l.17.38c2.64,5,18.15,2.09,34.63-6.57s27.68-19.77,25.04-24.81ZM51.23,160.13a1.13,1.13,0,1,1,1.024-1.125,1.13,1.13,0,0,1-1.024,1.125Zm9.4-6.2-.17,3.81v.06L57,159.61h0l-3.22-2.05h-.05v-.05l.16-3.82h0l3.49-1.82h0l3.23,2.05h0Zm2.11-.23a1.13,1.13,0,1,1,1.13-1.13,1.13,1.13,0,0,1-1.13,1.13ZM55,150.51c-10.59,5.56-20.77,8.77-27.4,9,4.15-5.19,12.3-11.44,22.44-16.77,10.59-5.56,20.78-8.77,27.4-9C73.27,138.93,65.12,145.19,55,150.51Zm4.19,6.41,1.11.7.15-3.59-1.16.61Zm-2.08,1.14L57,159.37l3.19-1.66L59.12,157Z" transform="translate(-0.5)" fill="#ffab40"/>
  </g>
</svg>
