<?xml version="1.0" encoding="utf-8"?>
<!-- Generator: Adobe Illustrator 26.3.1, SVG Export Plug-In . SVG Version: 6.00 Build 0)  -->
<svg version="1.1" id="レイヤー_1" xmlns="http://www.w3.org/2000/svg" xmlns:xlink="http://www.w3.org/1999/xlink" x="0px"
	 y="0px" viewBox="0 0 300 220" style="enable-background:new 0 0 300 220;" xml:space="preserve">
<g>
	<g>
		<path d="M210.3,179.5L210.3,179.5h-0.4c0,0-1.7-5.7-2.2-7.7c2.2,0,3,2.5,4.7,4.5c1.1,1.4,2.8,2.5,4.4,2.5c3.8,0,4.9-3.2,4.9-5.7
			c-0.1-2.6-2.2-4-6.3-7.2c-3.3-2.6-7-5.2-7-9.4c0-4.1,3.9-7.3,8.8-7.3c2.9,0,3.2,0.6,4.6,0.6c1,0,1.4-0.4,1.4-0.4
			c0,0.1,0.3,0,0.3,0s0.6,3.4,1,4.1c-0.7,0.1-1.8,0.6-3.2-1.3c-1.2-1.6-2-2.3-4-2.3c-3.3,0-5,3.6-4.5,6.1c0.5,2.5,2.3,4.1,4.8,6.2
			c3.2,2.7,8.3,4.8,8.3,9.4c0,4.9-3.7,8-9.2,8c-2.4,0-3.8-1.2-5.2-1.2C210.1,178.5,210.3,179.5,210.3,179.5"/>
		<path d="M164.7,152.9c0-2.6,0.8-3,1.5-3v-0.3h-7.6v0.3c0.7,0,1.5,0.5,1.5,3v22.9c0,2.8-0.6,3.6-1.5,3.6v0.3h16.7
			c2.6,0,3.3-3.3,3.3-3.3h-0.3c0,0-0.7,1.3-4.4,1.3h-9.2V152.9z"/>
		<path d="M152.4,176.3c0,0-0.7,1.3-4.4,1.3h-9.2v-12.7h4.3c1.6,0,4.3,0.7,4.3,1.7h0.3v-5.6h-0.3c0,1-2.6,1.7-4.3,1.7h-4.3v-10.1
			c0-1.6,0.7-1.9,1.5-1.9h6.4c3.3,0,3.4-1.1,3.4-1.1h-17.4v0.3c0.7,0,1.5,0.5,1.5,3v22.9c0,2.8-0.6,3.6-1.5,3.6v0.3h16.7
			c2.6,0,3.3-3.3,3.3-3.3H152.4z"/>
		<path d="M232.3,179.5L232.3,179.5h-0.4c0,0-1.7-5.7-2.2-7.7c2.2,0,3,2.5,4.7,4.5c1.2,1.4,2.8,2.5,4.4,2.5c3.8,0,4.9-3.2,4.9-5.7
			c-0.1-2.6-2.2-4-6.3-7.2c-3.3-2.6-7-5.2-7-9.4c0-4.1,3.9-7.3,8.8-7.3c2.9,0,3.2,0.6,4.7,0.6c1,0,1.4-0.4,1.4-0.4
			c0,0.1,0.3,0,0.3,0s0.6,3.4,1,4.1c-0.7,0.1-1.8,0.6-3.2-1.3c-1.2-1.6-2-2.3-4-2.3c-3.3,0-5,3.6-4.5,6.1c0.5,2.5,2.3,4.1,4.8,6.2
			c3.2,2.7,8.3,4.8,8.3,9.4c0,4.9-3.7,8-9.2,8c-2.4,0-3.8-1.2-5.2-1.2C232.2,178.5,232.3,179.5,232.3,179.5"/>
		<path d="M125.3,149.9v-0.3c-4,0-5.5,0.6-7.4,3.2c-1.9,2.7-5.8,7.5-7,9.1c0,0.1,0,0.1,0,0c-1.2-1.6-5-6.4-6.9-9.1
			c-1.8-2.5-3.4-3.2-7.3-3.2v0.3c1.3,0,1.5,1.5,1.5,3.1v23.4c0,2.3-0.4,3-1.4,3c0,0,0,0.2,0,0.2h0h6.8v-0.2c-0.8,0-1.6-0.5-1.6-3
			V155l8.8,11.1h0.4L120,155v21.4c0,2.5-1,3-1.6,3v0.2h7v-0.2c-0.9,0-1.6-1-1.6-3V153C123.8,151.4,124,149.9,125.3,149.9"/>
		<path d="M203.3,176.3c0,0-0.7,1.3-4.4,1.3h-9.2v-12.7h4.3c1.6,0,4.3,0.7,4.3,1.7h0.3v-5.6h-0.3c0,1-2.6,1.7-4.3,1.7h-4.3v-10.1
			c0-1.6,0.7-1.9,1.5-1.9h6.4c3.3,0,3.4-1.1,3.4-1.1h-17.4v0.3c0.7,0,1.5,0.5,1.5,3v22.9c0,2.8-0.6,3.6-1.5,3.6v0.3h16.7
			c2.6,0,3.3-3.3,3.3-3.3H203.3z"/>
		<path d="M87.3,152.9c0-2.6,0.8-3,1.5-3v-0.3h-7.3v0.3c0.7,0,1.4,0.5,1.4,3v23.4c0,2.6-0.7,3-1.4,3v0.3h7.3v-0.3
			c-0.7,0-1.5-0.5-1.5-3V152.9z"/>
		<path d="M51.9,149.7v5.6h0.3c1-4,8.1-4.3,9.2-4.3v25.5c0,2.6-0.7,3-1.4,3v0.3h7.3v-0.3c-0.7,0-1.5-0.5-1.5-3v-25.5
			c1.5,0,8.2,0.4,9.2,4.3h0.3v-5.6H51.9z"/>
		<path d="M124.4,198.9c-0.6,1.2-1.3,2.3-2,3.4c0.6,0.5,1,1.1,1.2,1.7c0.1,0.1,0.1,0.3,0.1,0.4c0,0.4-0.3,0.8-0.7,0.8
			c-0.3,0-0.5-0.2-0.7-0.6c-0.1-0.4-0.4-0.8-0.7-1.3c-1.8,2.3-4.3,4-8.1,5.2c-0.1,0-0.1,0-0.2,0c-0.2,0-0.1-0.1,0.1-0.3
			c3.3-1.6,5.7-3.5,7.5-5.8c-0.7-0.7-1.4-1.3-2.2-1.8c-0.2-0.1-0.3-0.2-0.3-0.2c0,0,0,0,0.1,0c0.1,0,0.2,0,0.3,0
			c0.9,0.3,1.8,0.8,2.6,1.3c0.8-1.2,1.5-2.4,1.9-3.7c0-0.1,0.1-0.1,0.1-0.2c0-0.1,0-0.1-0.2-0.1c0,0-0.1,0-0.2,0
			c-0.7,0.1-1.6,0.2-2.2,0.2c-0.1,0-0.2,0-0.3,0c-0.4-0.1-0.6-0.3-0.7-0.5c-1.1,2-2.5,4.1-5.2,5.8c-0.1,0.1-0.2,0.1-0.3,0.1
			c0,0,0,0,0,0c0-0.1,0.1-0.1,0.2-0.3c2.2-2,3.9-4.8,4.4-6.4c0.1-0.3,0.1-0.5,0.1-0.7c0-0.4-0.2-0.6-0.6-0.9
			c-0.1-0.1-0.2-0.1-0.2-0.2c0-0.1,0.1-0.1,0.2-0.1h0.1c1,0,2.1,0.7,2.1,1.2v0.1c-0.1,0.4-0.2,0.2-0.5,0.7c-0.1,0.1-0.2,0.4-0.3,0.6
			c0.1,0,0.2,0,0.4,0c0.7,0,1.7-0.2,2.5-0.3c0.6-0.1,0.6-0.3,0.9-0.3c0.5,0,1.5,0.9,1.5,1.3C125.3,198.4,124.6,198.3,124.4,198.9"/>
		<path d="M138.5,197.3c-0.6,0.7-1.4,1.4-2.7,2.5c0.6,0.2,1.2,0.5,1.2,0.9v0.1c0,0.2-0.2,0.4-0.2,0.8c-0.1,0.9-0.1,1.6-0.1,2.2
			c0,1.9,0.2,3,0.2,3.8c0,0.1,0,0.2,0,0.3c0,0.5-0.4,0.9-0.7,0.9c-0.3,0-0.7-0.4-0.8-1.4v-0.1c0-0.6,0.3-1,0.3-3.9
			c0-0.6,0-1.3,0-2.1c0-0.6-0.1-0.8-0.3-1.2c-1.7,1.5-4,3.1-6.3,4.1c0,0,0,0-0.1,0c-0.1,0-0.1,0-0.2,0c0,0-0.1,0-0.1,0
			c0,0,0.1-0.1,0.2-0.2c3.4-2.4,7.1-5.5,8.3-7.3c0.3-0.4,0.4-0.7,0.4-1.1c0-0.2-0.1-0.5-0.2-0.8c0-0.1,0-0.2,0-0.2
			c0-0.1,0-0.1,0.1-0.1c0.1,0,0.1,0,0.2,0c0.9,0.3,1.7,1.5,1.7,1.9v0.1C139.3,196.9,139,196.7,138.5,197.3"/>
		<path d="M156.2,206.1c0,0.6-0.4,0.9-0.7,0.9c-0.3,0-0.6-0.2-0.7-0.7c-0.1-0.4-0.3-1.1-0.6-1.7c-2.8,0.8-6,1.6-8.7,2.3
			c-0.4,0.1-0.6,0.4-0.9,0.4h0c-0.5,0-1.2-1.2-1.2-2.2v0c0-0.2,0.1-0.2,0.1-0.2c0.1,0,0.2,0.1,0.3,0.2c0.3,0.5,0.6,0.7,1.2,0.7
			c0.3,0,0.7-0.1,1.2-0.1c1.2-2.8,2.3-6,2.9-8.2c0.1-0.3,0.1-0.5,0.1-0.7c0-0.4-0.1-0.8-0.5-1.1c-0.1-0.1-0.1-0.2-0.1-0.2
			c0,0,0-0.1,0.1-0.1c0,0,0.1,0,0.1,0c0.8,0.1,2.3,1,2.3,1.6v0.1c-0.1,0.4-0.5,0.3-0.7,0.9c-1.1,2.6-2.1,4.8-3.7,7.7
			c1.9-0.3,5-0.7,7.6-1.2c-0.5-1-1.2-1.9-2.3-2.8c-0.1-0.1-0.2-0.2-0.2-0.3c0,0,0-0.1,0.1-0.1c0.1,0,0.1,0,0.3,0.1
			c2.2,1.2,3.7,3,4.1,4.2C156.1,205.7,156.2,205.9,156.2,206.1"/>
		<path d="M163.4,206.3c-0.4,0.2-0.5,0.8-0.9,0.9h0c-0.6,0-1.2-1.1-1.2-1.5c0-0.4,0.3-0.3,0.3-1.2c0-0.9,0.1-2.1,0.1-3.5
			c0-0.7,0-1.5,0-2.3c0-0.9-0.5-1.3-0.9-1.6c-0.2-0.1-0.2-0.2-0.2-0.2c0-0.1,0.1-0.1,0.3-0.1h0.1c1.1,0,2.3,0.8,2.3,1.3
			c0,0.5-0.3,0.3-0.4,1c-0.2,2.4-0.2,3.8-0.3,5.7c0,0.1,0,0.1,0,0.1c0,0.2,0.1,0.2,0.2,0.2c0.1,0,0.1,0,0.2,0c3.3-1,7.2-3.6,9.2-6.5
			c0.1-0.2,0.2-0.3,0.3-0.3c0,0,0.1,0,0.1,0.1c0,0.1,0,0.2-0.1,0.3C170.4,202.2,167.2,204.5,163.4,206.3"/>
		<path d="M186.8,206.3c0,0.4-0.3,0.7-0.6,0.7c-0.3,0-0.6-0.2-0.9-0.6c-0.8-1.4-2.4-3-4.3-4c-1.7,2-4,3.8-6.9,4.9
			c-0.1,0-0.2,0-0.2,0c-0.1,0-0.1,0-0.1-0.1c0,0,0.1-0.1,0.3-0.2c4.1-2,7.5-6.2,8.6-9.4c0-0.1,0.1-0.1,0.1-0.2
			c0-0.1-0.1-0.1-0.1-0.1c-0.1,0-0.1,0-0.2,0c-0.7,0.1-2.1,0.4-3.4,0.6c-0.5,0.1-1,0.4-1.3,0.4h0c-0.4,0-1.2-0.8-1.3-1.7v-0.1
			c0-0.1,0-0.1,0.1-0.1c0,0,0.1,0,0.2,0.1c0.5,0.4,1.2,0.6,1.9,0.6c0.1,0,0.3,0,0.5,0c1-0.1,2.3-0.2,3.6-0.5
			c0.6-0.1,0.6-0.3,0.9-0.3c0.4,0,1.4,0.6,1.4,1.1c0,0,0,0.1,0,0.1c-0.1,0.4-0.6,0.2-0.8,0.6c-0.6,1.3-1.5,2.8-2.7,4.2
			c2.4,0.8,5,2.5,5.5,3.6C186.8,206,186.8,206.2,186.8,206.3"/>
	</g>
	<g>
		<g>
			<path d="M68.3,123.4c-0.8,0.2-1,0.3-1.7,0.5c-0.1,0.5-0.2,0.8-0.4,0.8c-0.2,0-0.4-0.5-0.8-3.1c0.5,0,0.8,0,1,0c0.1,0,0.3,0,0.5,0
				c0.2,0,0.2,0,0.8,0c1-1.4,1.5-2.2,1.9-3c1.9-3.5,1.9-3.5,2.2-4.4c2.9,1.3,3,1.3,3,1.5c0,0.2-0.3,0.3-1,0.3
				c-2,2.4-3.4,3.9-5.2,5.4c1.3,0,1.6,0,3.6-0.2c-0.2-0.9-0.4-1.2-0.9-2.1l0.2-0.1c2.2,1.5,2.9,2.3,2.9,3.2c0,0.9-0.7,1.8-1.4,1.8
				c-0.3,0-0.4-0.2-0.4-0.7c-0.1-0.6-0.1-1-0.2-1.4c-0.2,0-0.2,0-0.5,0.1c0,0-0.3,0.1-0.7,0.2v5.4c0,3.9,0,3.9,0.1,5.5
				c0,0,0,0.1,0,0.1c0,0.5-0.3,0.6-1.7,0.6c-0.6,0-0.7-0.1-0.7-0.5c0.1-3.3,0.1-3.4,0.1-5.3v-1.9c-0.2,0-0.2,0-0.4,0.1
				c-1.1,3.6-1.6,4.6-3.1,6.7l-0.3-0.1c0.8-2.6,1.2-5.6,1.3-8c1.5,0.4,1.9,0.5,2.5,0.7v-2.5L68.3,123.4z M65.6,114.7
				c1,0.5,1.4,0.6,1.8,0.9c0.8-1.5,1.2-2.8,1.5-4.3c3.4,1,3.5,1.1,3.5,1.4c0,0.3-0.3,0.4-1.1,0.4c-1.4,1.5-1.9,1.9-3.3,3
				c1,0.7,1.3,1,1.3,1.6c0,1-0.7,1.9-1.4,1.9c-0.3,0-0.4-0.1-0.5-0.5c-0.6-2-1-2.8-1.9-4.1L65.6,114.7z M71.6,124.2
				c1.7,1.2,2.5,2.2,2.5,3.1c0,0.9-0.7,1.9-1.3,1.9c-0.3,0-0.4-0.3-0.5-1c0-1.7-0.3-2.7-0.8-3.9L71.6,124.2z M75.4,126.4
				c0.2,1.1,0.3,1.5,0.3,2.4c0,2-1,3.7-2.2,3.7c-0.6,0-1.1-0.7-1.1-1.7c0-0.4,0.1-0.7,0.4-1c0.1-0.1,0.1-0.1,0.6-0.4
				c0.9-0.6,1.3-1.4,1.5-3L75.4,126.4z M73.3,119.7c1.9-2.8,3-5.3,3.5-8c0.7,0.2,1.3,0.4,1.6,0.6c1.3,0.4,1.7,0.6,1.7,0.8
				c0,0.2-0.3,0.3-1,0.4c-1.8,3.1-2.9,4.3-5.6,6.4L73.3,119.7z M82,118.4c3.4,1.8,4.3,2.6,4.3,3.8c0,1-0.7,2.1-1.5,2.1
				c-0.3,0-0.5-0.2-0.6-0.6c-0.2-0.8-0.4-1.3-0.6-1.9c-1.2,0.4-4.1,1.1-7.3,1.8c-0.2,0.6-0.4,0.8-0.6,0.8c-0.3,0-0.3,0-1-3.2
				c0.9,0.1,1.3,0.1,1.9,0.1c0,0,0.1,0,0.5,0c0.8-1.7,1.6-4.1,1.9-5.9c3.3,0.8,3.4,0.8,3.4,1.1c0,0.2-0.3,0.4-1.1,0.4
				c-1.2,1.9-2.1,3.2-3.2,4.3c0.9,0,3.9-0.1,5.1-0.2c-0.5-0.9-0.7-1.4-1.5-2.5L82,118.4z M76.7,127.7c0-0.8,0-1.3-0.1-2.3
				c0.7,0.1,1.3,0.2,1.6,0.2c1.3,0.1,1.7,0.2,1.7,0.5c0,0.2-0.3,0.4-0.9,0.5v4.1c0,0.3,0,0.4,0.1,0.4c0.1,0.1,0.2,0.1,1.7,0.1
				c1.2,0,1.3,0,1.6-0.4c0.3-0.4,0.7-1.4,1.3-3.1l0.3,0l-0.1,2.5c0,0.1,0,0.1,0,0.2c0,0.4,0,0.4,0.4,0.6c0.5,0.2,0.8,0.5,0.8,1
				c0,0.6-0.4,1.1-1.1,1.3c-0.6,0.2-1.6,0.2-3.9,0.2c-1.9,0-2.4,0-2.8-0.2c-0.5-0.2-0.6-0.6-0.7-1.4c0-1.6,0-1.6,0-2.6V127.7z
				 M78.5,123.7c3.3,0.9,4.2,1.5,4.2,2.6c0,0.9-0.7,1.8-1.3,1.8c-0.2,0-0.4-0.2-0.6-0.6c-0.7-1.7-1.2-2.3-2.5-3.6L78.5,123.7z
				 M82.3,111.5c0,0.2,0,0.2,0,0.3c0,0.7,0.7,1.8,1.7,2.8c1.2,1.1,2.6,1.8,4.6,2.3v0.3c-0.5,0.3-0.7,0.5-1,1.1
				c-0.2,0.4-0.4,0.9-0.4,1.2c0,0.2-0.1,0.3-0.2,0.3c-0.3,0-0.9-0.4-1.7-1.2c-1.4-1.3-2.2-2.8-3.2-5.7c-0.2-0.6-0.3-0.7-0.5-1
				L82.3,111.5z M84.3,126c2.7,1.6,3.9,2.8,3.9,4c0,1.1-0.9,2.4-1.6,2.4c-0.2,0-0.3-0.1-0.4-0.3c-0.1-0.1-0.1-0.2-0.2-0.8
				c-0.3-2.1-0.9-3.4-1.9-5.1L84.3,126z"/>
			<path d="M90.3,123.1c2.6-2,4.4-3.7,6.3-6.2c1.6-2.1,2.6-3.9,3.1-5.6c4.1,0.9,4.2,0.9,4.2,1.2c0,0.2-0.3,0.4-1.1,0.5
				c1.3,1.9,2.8,3.2,5,4.4c1.9,1,4.1,1.8,6.1,2.1l0,0.3c-1,0.3-1.6,1-2.2,2.7c0,0.2-0.2,0.2-0.3,0.2c-0.2,0-1-0.4-2-1.1
				c-3.2-2.1-5-4.2-7-8.4c-1.8,2.9-3.3,4.5-5.8,6.4c-2,1.5-3.6,2.4-6.3,3.5L90.3,123.1z M97.1,133.1c0,0.4-0.1,0.5-0.4,0.7
				c-0.2,0.1-1,0.2-1.6,0.2c-0.7,0-0.9-0.1-0.9-0.6c0,0,0-0.1,0-0.2c0.1-1.8,0.1-3.7,0.1-6c0-2.3,0-3.2-0.1-4.3
				c1.5,0.6,1.9,0.8,3.2,1.6h8.8l1.5-1.6c1,0.7,1.3,0.9,2.2,1.6c0.2,0.2,0.3,0.3,0.3,0.4c0,0.2-0.2,0.4-0.9,0.7c0,3.2,0,4.3,0.1,7.4
				c0,0.1,0,0.1,0,0.1c0,0.3-0.1,0.4-0.3,0.5c-0.2,0.1-1.2,0.2-1.8,0.2c-0.6,0-0.8-0.1-0.8-0.5c0,0,0,0,0-0.1v-1h-9.4V133.1z
				 M96.4,120.4c0.7,0.1,1.2,0.2,1.6,0.2h4.7l1.7-2c1.2,0.9,1.5,1.2,2.7,2.1c0.1,0.1,0.1,0.2,0.1,0.2c0,0.1-0.1,0.1-0.3,0.1h-9
				c-0.5,0-0.8,0-1.4,0.1L96.4,120.4z M97.1,131.8h9.4v-6.8h-9.4V131.8z"/>
			<path d="M115.8,134c2.2-0.9,3.6-1.6,5.2-2.7c1.1-0.8,1.6-1.2,2.1-1.8c3,1,3.5,1.3,3.5,1.5c0,0.3-0.2,0.3-1.2,0.4
				c-3.4,1.8-5.2,2.3-9.6,2.9L115.8,134z M120.3,118.4c0.8,0.3,1.2,0.5,2.3,1.1h9.5c0.5-0.5,0.7-0.7,1.2-1.2c1,0.6,1.3,0.8,2.2,1.4
				c0.2,0.1,0.3,0.3,0.3,0.4c0,0.2-0.2,0.4-0.8,0.7v1.6c0,2.5,0,4.9,0.1,6.8c0,0.2,0,0.3-0.1,0.4c-0.1,0.2-0.7,0.3-1.7,0.3
				c-0.9,0-1,0-1-0.4v-0.4h-10v0.5c0,0.2-0.1,0.3-0.2,0.4c-0.3,0.1-0.8,0.2-1.6,0.2c-0.9,0-1-0.1-1-0.6c0.1-2.7,0.1-4.3,0.1-6.8
				c0-1.9,0-3-0.1-3.9c-0.4,0-0.7,0-1,0c-0.7,0-0.9-0.1-0.9-0.5c0.1-1.7,0.1-2.4,0.1-4.1c0-0.9,0-1.5-0.1-2.7c1.3,0.5,1.7,0.7,3,1.4
				H134c0.6-0.6,0.8-0.8,1.4-1.4c0.9,0.6,1.2,0.8,2,1.5c0.2,0.2,0.3,0.3,0.3,0.4c0,0.2-0.2,0.4-0.9,0.7c0,0.5,0,0.8,0,1.1
				c0,0.8,0,1.7,0.1,2.9c0,0.2,0,0.4-0.2,0.5c-0.2,0.1-0.9,0.2-1.7,0.2c-0.8,0-0.9,0-0.9-0.5v-0.6h-13.9v0.6L120.3,118.4z
				 M120.4,113.4v3.8h2.8v-3.8H120.4z M132.3,122.3V120h-10v2.3H132.3z M122.3,122.9v2.4h10v-2.4H122.3z M122.3,125.8v2.6h10v-2.6
				H122.3z M125.8,117.2h2.9v-3.8h-2.9V117.2z M128.9,129.8c4.4,0.4,5.8,0.6,7.1,1.2c0.9,0.4,1.4,1,1.4,2c0,0.8-0.4,1.4-0.9,1.4
				c-0.3,0-0.5-0.1-1.1-0.5c-2-1.7-4-2.8-6.6-3.7L128.9,129.8z M131.2,117.2h3v-3.8h-3V117.2z"/>
			<path d="M152.4,126.3c0,0.3,0,2.6,0.1,7.1c0,0.5-0.4,0.6-1.9,0.6c-0.7,0-0.8-0.1-0.9-0.5c0-3.1,0.1-5.1,0.1-5.9v-0.1
				c-2.1,1.1-4,2-6.4,2.9c-0.1,0.9-0.2,1.1-0.4,1.1c-0.3,0-0.4-0.3-1.3-3.6c1-0.1,1.3-0.1,2.2-0.2v-14.1h-0.5c-0.7,0-1,0-1.6,0.1
				l-0.1-0.9c0.6,0.2,1.1,0.2,1.8,0.2h8.1c0.8-0.8,1-1.1,1.7-1.9c1.1,0.8,1.5,1.1,2.6,2c0.1,0.1,0.2,0.2,0.2,0.2
				c0,0.1-0.1,0.1-0.2,0.1h-3.4V126.3z M146.5,113.6v4.1h3.3v-4.1H146.5z M146.5,118.2v4h3.3v-4H146.5z M146.5,122.7v4.6
				c1.4-0.2,1.4-0.2,3.3-0.6v-3.9H146.5z M165.1,130.6c-1.1,0.4-1.4,0.8-2.1,2.4c-0.1,0.1-0.1,0.2-0.3,0.2c-0.1,0-0.5-0.2-1-0.5
				c-1.4-1-2.5-2.2-3.6-3.7c-1.4,1.8-3,3.2-5.3,4.6l-0.2-0.2c1.7-1.8,3-3.7,4.3-6.3c-1-1.9-1.6-3.8-2.1-6c-0.4-1.7-0.4-2.3-0.7-5.1
				h-0.4c-0.4,0-0.6,0-1,0.1l-0.1-0.8c0.5,0.1,0.8,0.2,1.1,0.2h6.1c0.6-0.8,0.8-1,1.5-1.8c1,0.8,1.3,1.1,2.3,1.8
				c0.2,0.2,0.4,0.3,0.4,0.5c0,0.2-0.3,0.4-1.1,0.7c-0.8,4.4-1.8,7.4-3.5,10.3c1.7,1.6,3.1,2.5,5.6,3.3L165.1,130.6z M154.8,115.9
				c0.2,2,0.5,3,1,4.7c0.6,1.8,1.3,3.2,2.1,4.4c0.7-1.7,1-2.6,1.4-4.3c0.4-1.9,0.7-3.2,0.9-4.9H154.8z"/>
			<path d="M174.6,133.4c2.1-1.3,3.8-3.1,4.7-5.2c0.9-2,1.2-4.3,1.3-8c-1.5,0-2.9,0.2-5,0.6c0,0.1,0,0.2,0,0.3v1.1
				c0,0.8,0,2.7,0,3.5c0,0.1,0,0.1,0,0.1c0,1.3-0.3,1.9-1,1.9c-0.4,0-0.8-0.3-1.3-0.9c-0.3-0.5-0.5-1.1-0.5-1.5c0-0.2,0-0.3,0.2-0.7
				c0.3-0.7,0.4-1.6,0.4-3.3c-1.1,0.2-1.7,0.5-2.6,0.9c-0.3,0.2-0.7,0.3-1,0.3c-0.6,0-1.5-0.8-2.2-1.9c-0.3-0.5-0.4-1-0.4-1.3
				c0-0.1,0-0.2,0-0.3c0.7,0.9,1.4,1.3,2.4,1.3c0.6,0,2.1-0.2,3.8-0.5c0-1.5-0.1-2.9-0.3-3.5c-0.2-0.8-0.7-1.2-1.7-1.7
				c0.3-0.2,0.5-0.2,0.8-0.2c0.8,0,2.1,0.5,3,1.1c0.6,0.4,0.9,0.7,0.9,1.2c0,0.2,0,0.3-0.2,0.8c-0.1,0.4-0.3,1.3-0.3,2.1
				c0.9-0.1,1.5-0.2,2.5-0.4c0.3,0,0.3,0,1.7-0.2c0.3,0,0.3,0,0.7-0.1c0-0.4,0-1,0-1.9c0-1.7-0.1-2.5-0.5-2.9
				c-0.4-0.5-0.9-0.7-1.8-1c0.4-0.3,0.6-0.3,1.2-0.3c1,0,2.1,0.3,3.1,0.7c0.7,0.3,1.1,0.7,1.1,1.2c0,0.2,0,0.3-0.1,0.6
				c-0.3,0.8-0.4,1.4-0.5,3.3c1.4-0.1,2-0.2,2.7-0.5c0.3-0.1,0.4-0.2,0.7-0.2c0.4,0,1.1,0.2,1.7,0.6c0.6,0.4,0.9,0.8,0.9,1.2
				c0,0.4-0.3,0.7-0.8,0.7c-0.1,0-0.2,0-0.4,0c-1.2-0.1-2.6-0.2-4.1-0.2c-0.1,0-0.4,0-0.8,0c-0.1,2.9-0.1,3.9-0.3,5.1
				c-0.5,3-1.7,5-4.3,6.7c-1.2,0.8-2.1,1.3-3.5,1.7L174.6,133.4z"/>
			<path d="M193.1,115.8c0.7,0,2.1,0.5,3.5,1.3c0.5,0,4.3-0.5,7.8-0.9c2-0.2,2.2-0.3,2.8-0.6c0.2-0.1,0.4-0.2,0.6-0.2
				c0.4,0,1.1,0.4,1.8,1c0.8,0.7,1.2,1.3,1.2,1.7c0,0.2,0,0.3-0.5,1c-0.3,0.4-0.3,0.6-0.9,2.8c-1.1,4.1-1.2,4.5-1.3,5.1
				c0.9,0.5,1.4,1,1.4,1.6c0,0.4-0.3,0.7-0.8,0.7c-0.3,0-0.4,0-1.1-0.1c-1-0.1-2.2-0.2-3.6-0.2c-2.1,0-4.2,0.1-6.2,0.4
				c0,0.2,0,0.3,0,0.4c0,1.2-0.2,1.6-0.9,1.6c-0.5,0-1.1-0.5-1.5-1.4c-0.3-0.6-0.5-1.1-0.5-1.5c0-0.1,0-0.1,0.1-0.6
				c0.1-0.6,0.2-1.1,0.2-1.9c0-2.8-0.4-6.8-0.8-7.9c-0.3-0.9-1-1.6-2-2.1C192.6,115.9,192.7,115.8,193.1,115.8z M197.6,127.7
				c1.1,0,6.8-0.5,8.1-0.7c0.8-4.5,1.1-6.5,1.4-9.4c-1.8,0-7.4,0.5-10.1,0.9C197.2,122.5,197.5,127,197.6,127.7z"/>
			<path d="M216.2,115.1c2.8,0.4,4.2,0.9,5.4,1.6c0.8,0.5,1.2,1.2,1.2,2.1c0,1.2-0.6,2-1.3,2c-0.4,0-0.7-0.2-1-0.8
				c-1.2-2.1-2.4-3.5-4.4-4.6L216.2,115.1z M234.9,116.5c-1.4,2.8-3,5.2-5.5,7.6c-2.2,2.2-4,3.6-7.1,5.6c-0.6,0.4-1.1,0.8-1.3,1.1
				c-0.3,0.4-0.7,0.6-1,0.6c-0.6,0-1.5-0.7-2.4-1.8c-0.8-1-1.2-1.9-1.2-2.7c0-0.2,0-0.3,0.1-0.7c0.7,1.1,1.5,1.8,2.1,1.8
				c1,0,4.3-1.7,7.2-3.8c3.7-2.6,6.8-5.4,8.9-7.9L234.9,116.5z"/>
		</g>
	</g>
	<g>
		<g>
			<path d="M127.5,56.5L127.5,56.5v0.1c0,0-2.1,0.6-2.8,0.8c0-0.8,0.9-1.1,1.6-1.7c0.5-0.4,0.9-1.1,0.9-1.6c0-1.4-1.2-1.8-2.1-1.8
				c-1,0-1.5,0.8-2.6,2.3c-0.9,1.2-1.9,2.6-3.4,2.6c-1.5,0-2.6-1.4-2.6-3.3c0-1.1,0.2-1.2,0.2-1.7c0-0.4-0.2-0.5-0.2-0.5
				c0,0,0-0.1,0-0.1s1.2-0.2,1.5-0.4c0,0.3,0.2,0.7-0.5,1.2c-0.6,0.4-0.8,0.8-0.8,1.5c0,1.2,1.3,1.8,2.2,1.6
				c0.9-0.2,1.5-0.8,2.3-1.8c1-1.2,1.7-3.1,3.4-3.1c1.8,0,2.9,1.4,2.9,3.4c0,0.9-0.4,1.4-0.4,1.9C127.2,56.6,127.5,56.5,127.5,56.5"
				/>
			<path d="M151.3,87.7c0,0.9-0.3,1-0.5,1v0.1h2.6v-0.1c-0.2,0-0.5-0.2-0.5-1v-7.9c0-1,0.2-1.2,0.5-1.2v-0.1h-5.7
				c-0.9,0-1.1,1.1-1.1,1.1h0.1c0,0,0.2-0.5,1.5-0.5h3.2V87.7z"/>
			<path d="M165.7,73.3c0,0-0.2-0.5,0.7-1.4c0.7-0.7,1.8-1.8,2.2-2.3c0,0,1.5,1.6,3.1,3.1c-0.2,0.2-0.4,0.4-1,1
				c-0.4,0.4-1.2,0.9-1.4,0.6c-0.1,0.1-0.1,0.1-0.1,0.1l1.3,1.4c0,0,0,0,0.1-0.1c-0.2-0.3,0.2-1.1,0.6-1.5c0.7-0.7,0.8-0.8,1-1
				c1.2,1.2,2.2,2.3,2.4,2.5c0.4,0.4,0.3,0.6,0.1,0.8c-0.5,0.5-1,1.1-1.6,1.6c-0.8,0.8-0.6,1.1-0.6,1.1l4.2-4.3l-0.1-0.1
				c-0.2,0.2-0.5,0.2-1.1-0.4l-5.5-5.6c-0.7-0.7-0.7-1-0.5-1.2l-0.1-0.1c0,0-3.5,3.6-4.1,4.1C165,72.4,165.7,73.4,165.7,73.3
				L165.7,73.3z"/>
			<path d="M132.3,39.4L132.3,39.4l-0.1,0.1c0,0-1.8-1.2-2.4-1.7c0.6-0.5,1.4,0,2.4,0.2c0.6,0.1,1.4,0,1.8-0.3
				c1.1-0.9,0.6-2.1,0-2.8c-0.6-0.7-1.5-0.6-3.4-0.5c-1.5,0.1-3.2,0.2-4.2-1c-1-1.1-0.6-3,0.8-4.1c0.8-0.7,1-0.6,1.4-0.9
				c0.3-0.2,0.3-0.4,0.3-0.4c0,0,0.1-0.1,0.1-0.1s0.9,0.8,1.2,0.9c-0.2,0.2-0.4,0.6-1.2,0.4c-0.7-0.2-1.1-0.2-1.7,0.3
				c-0.9,0.8-0.6,2.2,0.2,2.8c0.7,0.6,1.6,0.6,2.8,0.6c1.5,0,3.4-0.6,4.5,0.7c1.1,1.4,0.8,3.1-0.7,4.4c-0.7,0.6-1.4,0.6-1.7,0.9
				C132,39.1,132.3,39.4,132.3,39.4"/>
			<path d="M182.7,59L182.7,59c0.1-1.4-0.1-1.9-1-2.5c-0.9-0.7-2.5-2-3.1-2.4c0,0,0,0,0,0c0.5-0.4,2.2-1.7,3.1-2.4
				c0.9-0.6,1.1-1.2,1.1-2.6h-0.1c0,0.4-0.5,0.5-1,0.5h-8c-0.8,0-1-0.1-1-0.5l-0.1,0v0v2.4h0.1c0-0.3,0.2-0.5,1-0.5h7.3l-3.8,3.1
				v0.1l3.8,3.1h-7.3c-0.9,0-1-0.4-1-0.6h-0.1v2.4h0.1c0-0.3,0.3-0.5,1-0.5h8C182.2,58.5,182.7,58.6,182.7,59"/>
			<path d="M130.3,68.1c0,0,0.5-0.1,1.3,0.9c0.6,0.8,1.7,2,2.1,2.4c0,0-1.7,1.4-3.3,2.8c-0.2-0.2-0.3-0.4-0.9-1.1
				c-0.4-0.4-0.8-1.3-0.5-1.5c0-0.1-0.1-0.1-0.1-0.1l-1.4,1.2c0,0,0,0,0.1,0.1c0.3-0.2,1,0.3,1.4,0.7c0.6,0.7,0.8,0.9,1,1.1
				c-1.3,1.1-2.4,2.1-2.6,2.3c-0.4,0.4-0.6,0.2-0.8,0c-0.5-0.6-0.9-1.1-1.4-1.7c-0.7-0.9-1-0.6-1-0.6l3.9,4.6l0.1-0.1
				c-0.2-0.2-0.2-0.5,0.5-1.1l5.9-5.1c0.7-0.6,1.1-0.6,1.3-0.4l0.1-0.1c0,0-3.3-3.8-3.7-4.4C131.3,67.5,130.2,68.1,130.3,68.1
				L130.3,68.1z"/>
			<path d="M173.6,31.9c0.6-0.6,0.9-0.6,1.1-0.4l0.1-0.1l-1.8-1.8l-0.1,0.1c0.2,0.2,0.2,0.5-0.4,1.1l-5.6,5.7
				c-0.6,0.6-0.9,0.6-1.1,0.4l-0.1,0.1l1.8,1.8l0.1-0.1c-0.2-0.2-0.2-0.5,0.4-1.1L173.6,31.9z"/>
			<path d="M146,20.7v1.9h0.1c0.3-1.4,2.8-1.5,3.2-1.5v8.8c0,0.9-0.3,1-0.5,1V31h2.5v-0.1c-0.2,0-0.5-0.2-0.5-1v-8.8
				c0.5,0,2.8,0.1,3.2,1.5h0.1v-1.9H146z"/>
			<path d="M150,94c-21.8,0-39.5-17.9-39.5-39.9s17.7-39.9,39.5-39.9c21.8,0,39.5,17.9,39.5,39.9S171.8,94,150,94 M150,15.8
				c-20.9,0-37.9,17.2-37.9,38.3s17,38.3,37.9,38.3c20.9,0,37.9-17.2,37.9-38.3S170.9,15.8,150,15.8"/>
		</g>
	</g>
</g>
</svg>
