<svg viewBox="0 0 110.16 36.05" xmlns="http://www.w3.org/2000/svg"><g transform="translate(-.06 -.28)"><path d="m4.08 5.06h-4l.92-4.58h13.1l-1 4.58h-4.1l-2.54 12h-5z"/><path d="m20.71.48-3.53 16.61h-4.94l3.52-16.61z"/><path d="m26.15 16.86-.68-7.09-1.7 7.32h-4.77l4.42-16.61h5.65l.87 8.11 4.33-8.11h5.65l-2.65 16.61h-4.75l1.4-7.34-3.71 7.11z"/><path d="m51.62 11h-6.49l-.33 1.55h7.05l-1 4.52h-12l3.55-16.59h11.7l-.96 4.52h-6.74l-.33 1.51h6.5z"/><path d="m61 .48-2.55 12.09h7l-1 4.52h-12l3.6-16.61z"/><path d="m78.94 11h-6.5l-.33 1.55h7l-1 4.52h-12l3.6-16.59h11.7l-.96 4.52h-6.73l-.33 1.51h6.49z"/><path d="m81.16 11.35a6.48 6.48 0 0 0 1 .48c.42.15.87.28 1.34.4s.92.21 1.37.29a7.83 7.83 0 0 0 1.17.11 3.86 3.86 0 0 0 1.2-.14.63.63 0 0 0 .46-.47.42.42 0 0 0 -.06-.35.92.92 0 0 0 -.33-.27 6.17 6.17 0 0 0 -.59-.25l-.82-.29a13.54 13.54 0 0 1 -1.75-.86 4.76 4.76 0 0 1 -1.32-1 3.21 3.21 0 0 1 -.74-1.37 4.33 4.33 0 0 1 0-1.84 7.23 7.23 0 0 1 .75-2.3 5.58 5.58 0 0 1 1.42-1.74 6 6 0 0 1 2.04-1.09 8.85 8.85 0 0 1 2.7-.38 10.73 10.73 0 0 1 2.85.33 11.69 11.69 0 0 1 2.15.81l-1 4.58a5.2 5.2 0 0 0 -.84-.35c-.37-.12-.76-.24-1.19-.35s-.87-.2-1.32-.28a8.11 8.11 0 0 0 -1.23-.11 2.28 2.28 0 0 0 -1 .14.55.55 0 0 0 -.31.38.4.4 0 0 0 .19.45 3 3 0 0 0 .71.34q.31.13.72.27c.27.09.55.2.83.32a9.76 9.76 0 0 1 1.82 1 3.72 3.72 0 0 1 1 1.09 3.06 3.06 0 0 1 .42 1.33 6.14 6.14 0 0 1 -.1 1.67 6.77 6.77 0 0 1 -.7 2.1 5.56 5.56 0 0 1 -1.51 1.74 7.33 7.33 0 0 1 -2.29 1.14 10.22 10.22 0 0 1 -3.07.42 8.27 8.27 0 0 1 -1.4-.12 10 10 0 0 1 -1.36-.3 11.76 11.76 0 0 1 -1.23-.43 7.58 7.58 0 0 1 -1-.5z"/><path d="m94.65 11.35a6.91 6.91 0 0 0 1 .48c.43.15.87.28 1.34.4s.92.21 1.37.29a7.84 7.84 0 0 0 1.18.11 3.91 3.91 0 0 0 1.2-.14.66.66 0 0 0 .46-.47.46.46 0 0 0 -.07-.35.92.92 0 0 0 -.33-.27 5.23 5.23 0 0 0 -.59-.25l-.82-.29a13.39 13.39 0 0 1 -1.74-.86 4.67 4.67 0 0 1 -1.33-1 3.32 3.32 0 0 1 -.74-1.37 4.33 4.33 0 0 1 0-1.84 7.49 7.49 0 0 1 .75-2.3 5.72 5.72 0 0 1 1.42-1.74 6.12 6.12 0 0 1 2.04-1.09 8.9 8.9 0 0 1 2.68-.38 10.86 10.86 0 0 1 2.86.33 12.29 12.29 0 0 1 2.13.81l-1 4.58a5.2 5.2 0 0 0 -.84-.35c-.36-.12-.76-.24-1.19-.35s-.87-.2-1.32-.28a8.11 8.11 0 0 0 -1.23-.11 2.28 2.28 0 0 0 -1 .14.55.55 0 0 0 -.31.38.42.42 0 0 0 .19.45 3 3 0 0 0 .71.34q.31.13.72.27c.27.09.55.2.83.32a9.76 9.76 0 0 1 1.82 1 3.72 3.72 0 0 1 1 1.09 3.21 3.21 0 0 1 .43 1.33 6.57 6.57 0 0 1 -.1 1.67 7 7 0 0 1 -.76 2.19 5.65 5.65 0 0 1 -1.5 1.74 7.55 7.55 0 0 1 -2.29 1.14 10.33 10.33 0 0 1 -3.08.42 8.27 8.27 0 0 1 -1.4-.12 10 10 0 0 1 -1.36-.3 12.42 12.42 0 0 1 -1.22-.43 7.15 7.15 0 0 1 -1-.5z"/><path d="m20.75 30h-6.5l-.33 1.55h7l-1 4.52h-11.92l3.52-16.61h11.71l-1 4.53h-6.7l-.33 1.51h6.49z"/><path d="m21.12 36.09 7.12-8.45-3.43-8.16h5.82l1.49 3.58 3-3.58h5.88l-6.9 8.16 3.56 8.45h-5.83l-1.65-3.87-3.28 3.87z"/><path d="m48.73 19.48a12.29 12.29 0 0 1 2.67.28 4.56 4.56 0 0 1 2 1 3.44 3.44 0 0 1 1.08 1.85 6.76 6.76 0 0 1 -.1 3 9.21 9.21 0 0 1 -1 2.67 6 6 0 0 1 -1.62 1.88 6.68 6.68 0 0 1 -2.36 1.1 12.3 12.3 0 0 1 -3.13.36h-1.43l-1 4.54h-5l3.53-16.61zm-2.29 4.52-.64 3h.88a9.29 9.29 0 0 0 1.13 0 2.5 2.5 0 0 0 .81-.23 1.51 1.51 0 0 0 .54-.46 2.16 2.16 0 0 0 .29-.74 1.47 1.47 0 0 0 0-.84.81.81 0 0 0 -.39-.46 1.85 1.85 0 0 0 -.73-.2c-.3 0-.63 0-1 0z"/><path d="m63.63 19.48a12.13 12.13 0 0 1 2.66.28 4.6 4.6 0 0 1 2 1 3.44 3.44 0 0 1 1.08 1.85 6.76 6.76 0 0 1 -.1 3 9 9 0 0 1 -1.2 3.07 5.56 5.56 0 0 1 -2.07 1.88l1.83 5.53h-5.92l-1.27-4.54h-.91l-1 4.54h-5l3.52-16.61zm-2.29 4.52-.65 3h.89a9 9 0 0 0 1.12 0 2.49 2.49 0 0 0 .82-.23 1.4 1.4 0 0 0 .53-.46 2 2 0 0 0 .3-.74 1.67 1.67 0 0 0 0-.84.86.86 0 0 0 -.4-.46 1.81 1.81 0 0 0 -.73-.2c-.29 0-.63 0-1 0z"/><path d="m81.7 30h-6.5l-.33 1.55h7l-1 4.52h-12l3.53-16.61h11.7l-1 4.53h-6.62l-.34 1.51h6.5z"/><path d="m83.91 30.35a6.63 6.63 0 0 0 1 .48c.42.15.87.28 1.33.4s.93.21 1.38.29a7.83 7.83 0 0 0 1.17.11 3.91 3.91 0 0 0 1.2-.14.64.64 0 0 0 .51-.49.46.46 0 0 0 -.06-.35.92.92 0 0 0 -.33-.27 5.5 5.5 0 0 0 -.6-.25l-.82-.29a14 14 0 0 1 -1.78-.84 4.82 4.82 0 0 1 -1.33-1 3.44 3.44 0 0 1 -.74-1.37 4.18 4.18 0 0 1 0-1.84 7.23 7.23 0 0 1 .74-2.3 5.75 5.75 0 0 1 1.42-1.73 6.08 6.08 0 0 1 2.06-1.1 9 9 0 0 1 2.69-.38 10.73 10.73 0 0 1 2.85.33 12 12 0 0 1 2.13.81l-1 4.58a4.52 4.52 0 0 0 -.84-.35c-.36-.12-.76-.24-1.19-.35s-.87-.2-1.32-.28a7.88 7.88 0 0 0 -1.22-.11 2.28 2.28 0 0 0 -1 .14.57.57 0 0 0 -.32.38.42.42 0 0 0 .2.45 2.77 2.77 0 0 0 .71.34q.32.13.72.27c.27.09.55.2.83.32a10.1 10.1 0 0 1 1.82 1 3.72 3.72 0 0 1 1 1.09 3.06 3.06 0 0 1 .42 1.33 6.14 6.14 0 0 1 -.1 1.67 6.78 6.78 0 0 1 -.66 2.1 5.52 5.52 0 0 1 -1.5 1.74 7.44 7.44 0 0 1 -2.28 1.18 10.27 10.27 0 0 1 -3.07.42 8.18 8.18 0 0 1 -1.4-.12 10 10 0 0 1 -1.36-.3 11.76 11.76 0 0 1 -1.23-.43 8.46 8.46 0 0 1 -1-.5z"/><path d="m97.41 30.35a6.48 6.48 0 0 0 1 .48c.42.15.87.28 1.34.4s.92.21 1.37.29a7.83 7.83 0 0 0 1.17.11 3.91 3.91 0 0 0 1.2-.14.64.64 0 0 0 .51-.49.42.42 0 0 0 -.06-.35.92.92 0 0 0 -.33-.27 6.17 6.17 0 0 0 -.59-.25l-.83-.29a14 14 0 0 1 -1.79-.84 4.76 4.76 0 0 1 -1.32-1 3.21 3.21 0 0 1 -.74-1.37 4.33 4.33 0 0 1 0-1.84 7 7 0 0 1 .75-2.3 5.58 5.58 0 0 1 1.42-1.74 6 6 0 0 1 2.07-1.1 8.85 8.85 0 0 1 2.68-.38 10.73 10.73 0 0 1 2.85.33 11.69 11.69 0 0 1 2.13.81l-1 4.58a5.2 5.2 0 0 0 -.84-.35c-.37-.12-.76-.24-1.19-.35s-.88-.2-1.32-.28a8.11 8.11 0 0 0 -1.23-.11 2.28 2.28 0 0 0 -1 .14.6.6 0 0 0 -.32.38.42.42 0 0 0 .2.45 3 3 0 0 0 .71.34q.31.13.72.27c.27.09.55.2.83.32a9.76 9.76 0 0 1 1.82 1 3.72 3.72 0 0 1 1 1.09 3.06 3.06 0 0 1 .42 1.33 6.14 6.14 0 0 1 -.1 1.67 7 7 0 0 1 -.75 2.19 5.56 5.56 0 0 1 -1.51 1.74 7.44 7.44 0 0 1 -2.29 1.14 10.22 10.22 0 0 1 -3.07.42 8.18 8.18 0 0 1 -1.4-.12 10 10 0 0 1 -1.36-.3 11.76 11.76 0 0 1 -1.23-.43 7.58 7.58 0 0 1 -1-.5z"/></g></svg>