<svg id="logo-s-bg" xmlns="http://www.w3.org/2000/svg" width="90.074" height="118.951" viewBox="0 0 90.074 118.951">
  <g id="グループ_2251" data-name="グループ 2251" transform="translate(0 107.266)">
    <path id="パス_8818" data-name="パス 8818" d="M97.885,532.153a3.593,3.593,0,0,1-.022.432,1.174,1.174,0,0,1-.065.288.383.383,0,0,1-.109.161.222.222,0,0,1-.143.052H94.719v9.1a.243.243,0,0,1-.056.157.4.4,0,0,1-.188.114,1.87,1.87,0,0,1-.353.07,5.91,5.91,0,0,1-1.108,0,1.863,1.863,0,0,1-.353-.07.4.4,0,0,1-.187-.114.241.241,0,0,1-.057-.157v-9.1H89.591a.217.217,0,0,1-.148-.052.4.4,0,0,1-.1-.161,1.171,1.171,0,0,1-.066-.288,3.715,3.715,0,0,1-.022-.432,3.93,3.93,0,0,1,.022-.445,1.183,1.183,0,0,1,.066-.292.362.362,0,0,1,.1-.157.233.233,0,0,1,.148-.048h7.954a.238.238,0,0,1,.143.048.348.348,0,0,1,.109.157,1.186,1.186,0,0,1,.065.292A3.8,3.8,0,0,1,97.885,532.153Z" transform="translate(-89.251 -531.011)" fill="#fff"/>
    <path id="パス_8819" data-name="パス 8819" d="M114.11,542.142a.241.241,0,0,1-.057.157.4.4,0,0,1-.187.114,1.849,1.849,0,0,1-.349.07,5.952,5.952,0,0,1-1.112,0,1.869,1.869,0,0,1-.353-.07.4.4,0,0,1-.187-.114.241.241,0,0,1-.057-.157V531.485a.241.241,0,0,1,.057-.157.4.4,0,0,1,.192-.114,1.96,1.96,0,0,1,.353-.07,4.729,4.729,0,0,1,.55-.026,4.811,4.811,0,0,1,.558.026,1.84,1.84,0,0,1,.349.07.4.4,0,0,1,.187.114.241.241,0,0,1,.057.157Z" transform="translate(-99.035 -530.971)" fill="#fff"/>
    <path id="パス_8820" data-name="パス 8820" d="M138.319,542.182a.271.271,0,0,1-.048.157.341.341,0,0,1-.174.114,1.752,1.752,0,0,1-.336.07,4.537,4.537,0,0,1-.532.026,4.444,4.444,0,0,1-.523-.026,1.642,1.642,0,0,1-.331-.07.365.365,0,0,1-.174-.114.256.256,0,0,1-.052-.157V533h-.018l-3.27,9.174a.426.426,0,0,1-.114.187.554.554,0,0,1-.213.117,1.432,1.432,0,0,1-.345.057c-.139.009-.308.013-.506.013a4.922,4.922,0,0,1-.506-.022,1.488,1.488,0,0,1-.345-.07.633.633,0,0,1-.213-.118.333.333,0,0,1-.1-.165L127.357,533h-.018v9.183a.271.271,0,0,1-.048.157.342.342,0,0,1-.179.114,1.852,1.852,0,0,1-.336.07,5.323,5.323,0,0,1-1.051,0,1.742,1.742,0,0,1-.336-.07.338.338,0,0,1-.174-.114.271.271,0,0,1-.048-.157V532.127a.921.921,0,0,1,.235-.68.849.849,0,0,1,.628-.236h1.5a3.115,3.115,0,0,1,.689.066,1.333,1.333,0,0,1,.5.218,1.248,1.248,0,0,1,.349.4,2.888,2.888,0,0,1,.244.615l2.442,6.724h.035l2.529-6.706a3.576,3.576,0,0,1,.249-.619,1.444,1.444,0,0,1,.314-.41,1.039,1.039,0,0,1,.423-.222,2.173,2.173,0,0,1,.567-.066h1.544a1.2,1.2,0,0,1,.405.061.693.693,0,0,1,.279.179.782.782,0,0,1,.166.288,1.24,1.24,0,0,1,.056.388Z" transform="translate(-104.831 -531.011)" fill="#fff"/>
    <path id="パス_8821" data-name="パス 8821" d="M164.378,541.6a3.62,3.62,0,0,1-.022.423,1.113,1.113,0,0,1-.066.275.347.347,0,0,1-.109.152.239.239,0,0,1-.144.048h-5.669a.715.715,0,0,1-.484-.17.7.7,0,0,1-.2-.553v-9.838a.7.7,0,0,1,.2-.554.717.717,0,0,1,.484-.17H164a.235.235,0,0,1,.14.044.342.342,0,0,1,.1.153,1.149,1.149,0,0,1,.065.279,3.455,3.455,0,0,1,.022.432,3.3,3.3,0,0,1-.022.414,1.076,1.076,0,0,1-.065.274.37.37,0,0,1-.1.153.219.219,0,0,1-.14.048h-4.029v2.756h3.41a.235.235,0,0,1,.144.048.348.348,0,0,1,.109.148,1.017,1.017,0,0,1,.066.271,3.4,3.4,0,0,1,.022.414,3.359,3.359,0,0,1-.022.418,1,1,0,0,1-.066.266.315.315,0,0,1-.109.144.251.251,0,0,1-.144.044h-3.41V540.7h4.064a.238.238,0,0,1,.144.048.352.352,0,0,1,.109.153,1.108,1.108,0,0,1,.066.275A3.626,3.626,0,0,1,164.378,541.6Z" transform="translate(-118.937 -531.011)" fill="#fff"/>
    <path id="パス_8822" data-name="パス 8822" d="M184.227,541.5a3.811,3.811,0,0,1-.022.44,1.354,1.354,0,0,1-.066.3.384.384,0,0,1-.109.17.237.237,0,0,1-.152.053h-5.171a.714.714,0,0,1-.484-.17.7.7,0,0,1-.2-.553V531.485a.241.241,0,0,1,.057-.157.4.4,0,0,1,.187-.114,1.852,1.852,0,0,1,.353-.07,5.945,5.945,0,0,1,1.112,0,1.839,1.839,0,0,1,.349.07.4.4,0,0,1,.187.114.241.241,0,0,1,.057.157v9.079h3.55a.25.25,0,0,1,.152.048.351.351,0,0,1,.109.157,1.2,1.2,0,0,1,.066.288A3.808,3.808,0,0,1,184.227,541.5Z" transform="translate(-127.759 -530.971)" fill="#fff"/>
    <path id="パス_8823" data-name="パス 8823" d="M203,541.6a3.5,3.5,0,0,1-.022.423,1.142,1.142,0,0,1-.066.275.352.352,0,0,1-.109.152.238.238,0,0,1-.144.048H197a.713.713,0,0,1-.484-.17.7.7,0,0,1-.2-.553v-9.838a.7.7,0,0,1,.2-.554.715.715,0,0,1,.484-.17h5.633a.235.235,0,0,1,.139.044.337.337,0,0,1,.1.153,1.148,1.148,0,0,1,.065.279,3.455,3.455,0,0,1,.022.432,3.3,3.3,0,0,1-.022.414,1.076,1.076,0,0,1-.065.274.365.365,0,0,1-.1.153.218.218,0,0,1-.139.048H198.6v2.756h3.41a.235.235,0,0,1,.144.048.354.354,0,0,1,.109.148,1.042,1.042,0,0,1,.065.271,3.284,3.284,0,0,1,.022.414,3.247,3.247,0,0,1-.022.418,1.024,1.024,0,0,1-.065.266.32.32,0,0,1-.109.144.251.251,0,0,1-.144.044H198.6V540.7h4.064a.237.237,0,0,1,.144.048.358.358,0,0,1,.109.153,1.137,1.137,0,0,1,.066.275A3.5,3.5,0,0,1,203,541.6Z" transform="translate(-135.692 -531.011)" fill="#fff"/>
    <path id="パス_8824" data-name="パス 8824" d="M222.821,538.959a3.5,3.5,0,0,1-.331,1.561,3.248,3.248,0,0,1-.9,1.121,3.912,3.912,0,0,1-1.326.676,5.636,5.636,0,0,1-1.622.227,5.781,5.781,0,0,1-1.085-.1,6.209,6.209,0,0,1-.886-.231,3.891,3.891,0,0,1-.64-.283,1.824,1.824,0,0,1-.371-.262.65.65,0,0,1-.161-.327,3.01,3.01,0,0,1-.048-.615c0-.18.005-.331.017-.454a1.336,1.336,0,0,1,.057-.3.328.328,0,0,1,.1-.161.254.254,0,0,1,.153-.048.727.727,0,0,1,.344.144,6.2,6.2,0,0,0,.571.319,5.2,5.2,0,0,0,.833.318,3.948,3.948,0,0,0,1.12.144,2.57,2.57,0,0,0,.75-.1,1.67,1.67,0,0,0,.563-.283,1.214,1.214,0,0,0,.353-.453,1.447,1.447,0,0,0,.122-.6,1.052,1.052,0,0,0-.21-.658,2.073,2.073,0,0,0-.545-.489,5.693,5.693,0,0,0-.763-.4q-.427-.188-.881-.4a8.021,8.021,0,0,1-.881-.475,3.571,3.571,0,0,1-.763-.637,3,3,0,0,1-.545-.876,3.159,3.159,0,0,1-.21-1.212,3.2,3.2,0,0,1,.3-1.426,2.928,2.928,0,0,1,.811-1.02,3.475,3.475,0,0,1,1.2-.606,5.414,5.414,0,0,1,2.272-.139,5.406,5.406,0,0,1,.75.166,4.2,4.2,0,0,1,.619.235,1.479,1.479,0,0,1,.357.218.627.627,0,0,1,.118.148.684.684,0,0,1,.052.161,1.629,1.629,0,0,1,.031.253c.006.1.008.229.008.38,0,.169,0,.311-.012.427a1.62,1.62,0,0,1-.044.288.339.339,0,0,1-.087.165.214.214,0,0,1-.152.053.726.726,0,0,1-.305-.122q-.21-.122-.515-.266a4.931,4.931,0,0,0-.707-.262,3.111,3.111,0,0,0-.88-.118,2.1,2.1,0,0,0-.654.092,1.362,1.362,0,0,0-.467.253,1,1,0,0,0-.279.388,1.269,1.269,0,0,0-.092.48,1.055,1.055,0,0,0,.2.649,1.971,1.971,0,0,0,.55.489,5.857,5.857,0,0,0,.78.4q.437.188.89.4a8.8,8.8,0,0,1,.89.475,3.607,3.607,0,0,1,.776.637,2.984,2.984,0,0,1,.549.872A3.06,3.06,0,0,1,222.821,538.959Z" transform="translate(-143.993 -530.857)" fill="#fff"/>
    <path id="パス_8825" data-name="パス 8825" d="M242.682,538.959a3.489,3.489,0,0,1-.331,1.561,3.235,3.235,0,0,1-.9,1.121,3.909,3.909,0,0,1-1.325.676,5.639,5.639,0,0,1-1.622.227,5.776,5.776,0,0,1-1.085-.1,6.19,6.19,0,0,1-.886-.231,3.87,3.87,0,0,1-.64-.283,1.825,1.825,0,0,1-.371-.262.646.646,0,0,1-.161-.327,3,3,0,0,1-.048-.615c0-.18.006-.331.018-.454a1.3,1.3,0,0,1,.057-.3.325.325,0,0,1,.1-.161.254.254,0,0,1,.153-.048.727.727,0,0,1,.344.144,6.179,6.179,0,0,0,.571.319,5.24,5.24,0,0,0,.833.318,3.953,3.953,0,0,0,1.121.144,2.57,2.57,0,0,0,.75-.1,1.662,1.662,0,0,0,.562-.283,1.209,1.209,0,0,0,.353-.453,1.447,1.447,0,0,0,.122-.6,1.055,1.055,0,0,0-.209-.658,2.082,2.082,0,0,0-.545-.489,5.728,5.728,0,0,0-.763-.4q-.427-.188-.88-.4a7.967,7.967,0,0,1-.881-.475,3.557,3.557,0,0,1-.763-.637,3,3,0,0,1-.545-.876,3.159,3.159,0,0,1-.21-1.212,3.212,3.212,0,0,1,.3-1.426,2.929,2.929,0,0,1,.811-1.02,3.47,3.47,0,0,1,1.2-.606,5.414,5.414,0,0,1,2.272-.139,5.443,5.443,0,0,1,.75.166,4.187,4.187,0,0,1,.619.235,1.455,1.455,0,0,1,.357.218.627.627,0,0,1,.118.148.708.708,0,0,1,.053.161,1.781,1.781,0,0,1,.031.253c.005.1.008.229.008.38,0,.169,0,.311-.013.427a1.627,1.627,0,0,1-.044.288.34.34,0,0,1-.087.165.216.216,0,0,1-.152.053.724.724,0,0,1-.305-.122q-.21-.122-.515-.266a4.983,4.983,0,0,0-.707-.262,3.111,3.111,0,0,0-.881-.118,2.1,2.1,0,0,0-.655.092,1.372,1.372,0,0,0-.467.253,1,1,0,0,0-.279.388,1.269,1.269,0,0,0-.092.48,1.055,1.055,0,0,0,.2.649,1.968,1.968,0,0,0,.549.489,5.866,5.866,0,0,0,.781.4q.436.188.89.4a8.926,8.926,0,0,1,.89.475,3.59,3.59,0,0,1,.776.637,2.974,2.974,0,0,1,.55.872A3.061,3.061,0,0,1,242.682,538.959Z" transform="translate(-152.608 -530.857)" fill="#fff"/>
  </g>
  <g id="グループ_2254" data-name="グループ 2254" transform="translate(0.234)">
    <g id="グループ_2252" data-name="グループ 2252" transform="translate(44.793)">
      <path id="パス_8826" data-name="パス 8826" d="M211.391,379.324c3.789,3.789,2.505,6.889-2.853,6.889H178.518a9.771,9.771,0,0,1-9.743-9.742V346.45c0-5.358,3.1-6.643,6.889-2.854Z" transform="translate(-168.775 -341.419)" fill="#fff"/>
    </g>
    <g id="グループ_2253" data-name="グループ 2253" transform="translate(0 44.794)">
      <path id="パス_8827" data-name="パス 8827" d="M91.845,427.416c-3.789-3.789-2.505-6.889,2.853-6.889h30.021a9.771,9.771,0,0,1,9.742,9.742V460.29c0,5.358-3.1,6.643-6.888,2.854Z" transform="translate(-89.667 -420.527)" fill="#fff"/>
    </g>
  </g>
</svg>
