<svg xmlns="http://www.w3.org/2000/svg" viewBox="0 0 75.27 14.78">
  <defs>
    <style>
      .cls-1{fill:#ffffff;}
    </style>
  </defs>
  <g id="Layer_2" data-name="Layer 2">
    <g id="Layer_1-2" data-name="Layer 1">
      <path class="cls-1" d="M23.75,4.42a2.1,2.1,0,0,1,0,.27.6.6,0,0,1,0,.18.3.3,0,0,1-.07.11.16.16,0,0,1-.09,0H21.75v5.75a.13.13,0,0,1,0,.1.23.23,0,0,1-.11.07,1,1,0,0,1-.23.05h-.7a.9.9,0,0,1-.22-.05.22.22,0,0,1-.12-.07.18.18,0,0,1,0-.1V5H18.51a.17.17,0,0,1-.1,0,.29.29,0,0,1-.06-.11.56.56,0,0,1-.05-.18c0-.07,0-.16,0-.27s0-.21,0-.28A.74.74,0,0,1,18.35,4a.24.24,0,0,1,.06-.1.17.17,0,0,1,.1,0h5a.16.16,0,0,1,.09,0,.26.26,0,0,1,.07.1.78.78,0,0,1,0,.19A2.27,2.27,0,0,1,23.75,4.42Z"/>
      <path class="cls-1" d="M27.83,10.76a.18.18,0,0,1,0,.1.22.22,0,0,1-.12.07.9.9,0,0,1-.22.05h-.7a1,1,0,0,1-.23-.05.23.23,0,0,1-.11-.07.13.13,0,0,1,0-.1V4a.13.13,0,0,1,0-.1.22.22,0,0,1,.12-.07,1,1,0,0,1,.22,0l.35,0,.35,0a1,1,0,0,1,.22,0,.22.22,0,0,1,.12.07.18.18,0,0,1,0,.1Z"/>
      <path class="cls-1" d="M39.47,10.76a.17.17,0,0,1,0,.1.19.19,0,0,1-.11.07.81.81,0,0,1-.21.05h-.67l-.21-.05a.3.3,0,0,1-.11-.07.17.17,0,0,1,0-.1V5h0L36,10.76a.37.37,0,0,1-.07.12.37.37,0,0,1-.14.07,1,1,0,0,1-.21,0H35a1,1,0,0,1-.22,0,.47.47,0,0,1-.14-.08.21.21,0,0,1-.06-.1L32.54,5h0v5.81a.17.17,0,0,1,0,.1.23.23,0,0,1-.11.07,1,1,0,0,1-.22.05h-.66a.81.81,0,0,1-.21-.05.19.19,0,0,1-.11-.07.17.17,0,0,1,0-.1V4.4A.57.57,0,0,1,31.3,4a.55.55,0,0,1,.4-.15h.95a2.76,2.76,0,0,1,.44,0A1,1,0,0,1,33.4,4a.8.8,0,0,1,.22.26,2,2,0,0,1,.16.38L35.32,8.9h0l1.6-4.24a2.21,2.21,0,0,1,.16-.4A1.06,1.06,0,0,1,37.3,4a.69.69,0,0,1,.27-.14,1.78,1.78,0,0,1,.35,0h1a1,1,0,0,1,.26,0,.42.42,0,0,1,.17.11.5.5,0,0,1,.11.19.88.88,0,0,1,0,.24Z"/>
      <path class="cls-1" d="M47,10.39a2.1,2.1,0,0,1,0,.27.61.61,0,0,1,0,.17.2.2,0,0,1-.07.1.16.16,0,0,1-.09,0H43.23a.44.44,0,0,1-.3-.11.42.42,0,0,1-.13-.35V4.28a.42.42,0,0,1,.13-.35.44.44,0,0,1,.3-.11H46.8a.16.16,0,0,1,.09,0A.29.29,0,0,1,47,4a.61.61,0,0,1,0,.17,2.16,2.16,0,0,1,0,.28,1.84,1.84,0,0,1,0,.26.61.61,0,0,1,0,.17.29.29,0,0,1-.06.1.16.16,0,0,1-.09,0H44.25V6.7h2.16a.16.16,0,0,1,.09,0,.29.29,0,0,1,.07.1,1.46,1.46,0,0,1,0,.17,2,2,0,0,1,0,.26,1.93,1.93,0,0,1,0,.26,1.46,1.46,0,0,1,0,.17.35.35,0,0,1-.07.09l-.09,0H44.25v2h2.57a.16.16,0,0,1,.09,0A.26.26,0,0,1,47,10a.71.71,0,0,1,0,.17A2.26,2.26,0,0,1,47,10.39Z"/>
      <path class="cls-1" d="M54,10.35c0,.11,0,.21,0,.28a.74.74,0,0,1,0,.19.23.23,0,0,1-.06.11.17.17,0,0,1-.1,0H50.52a.47.47,0,0,1-.31-.11.45.45,0,0,1-.12-.35V4a.17.17,0,0,1,0-.1.35.35,0,0,1,.12-.07l.23,0,.35,0,.35,0,.22,0a.35.35,0,0,1,.12.07.17.17,0,0,1,0,.1V9.76h2.25a.17.17,0,0,1,.1,0,.24.24,0,0,1,.06.1.74.74,0,0,1,0,.19C54,10.15,54,10.24,54,10.35Z"/>
      <path class="cls-1" d="M60.87,10.39c0,.11,0,.2,0,.27a.58.58,0,0,1,0,.17.15.15,0,0,1-.07.1.12.12,0,0,1-.09,0H57.07a.47.47,0,0,1-.31-.11.45.45,0,0,1-.12-.35V4.28a.45.45,0,0,1,.12-.35.47.47,0,0,1,.31-.11h3.56l.09,0a.2.2,0,0,1,.07.1,1.46,1.46,0,0,1,0,.17,2.35,2.35,0,0,1,0,.28,2,2,0,0,1,0,.26,1.46,1.46,0,0,1,0,.17.2.2,0,0,1-.07.1l-.09,0H58.08V6.7h2.16a.16.16,0,0,1,.09,0,.2.2,0,0,1,.07.1.61.61,0,0,1,0,.17,1.84,1.84,0,0,1,0,.26,1.72,1.72,0,0,1,0,.26.61.61,0,0,1,0,.17.22.22,0,0,1-.07.09.16.16,0,0,1-.09,0H58.08v2h2.57a.12.12,0,0,1,.09,0,.18.18,0,0,1,.07.1.69.69,0,0,1,0,.17C60.86,10.2,60.87,10.29,60.87,10.39Z"/>
      <path class="cls-1" d="M68.15,8.82a2.22,2.22,0,0,1-.21,1,2.18,2.18,0,0,1-.56.71,2.37,2.37,0,0,1-.84.42,3.42,3.42,0,0,1-1,.15,3.64,3.64,0,0,1-1.25-.21,3.11,3.11,0,0,1-.4-.18,1.63,1.63,0,0,1-.24-.16.51.51,0,0,1-.1-.21,1.92,1.92,0,0,1,0-.39c0-.11,0-.21,0-.29a.69.69,0,0,1,0-.18.23.23,0,0,1,.07-.11.12.12,0,0,1,.09,0,.46.46,0,0,1,.22.09,2.66,2.66,0,0,0,.36.21,3.49,3.49,0,0,0,.53.2,2.5,2.5,0,0,0,.71.09A1.41,1.41,0,0,0,66,9.85a1.2,1.2,0,0,0,.36-.17.89.89,0,0,0,.22-.29A1,1,0,0,0,66.65,9a.68.68,0,0,0-.14-.42,1.29,1.29,0,0,0-.34-.31A3.57,3.57,0,0,0,65.69,8l-.56-.25a6,6,0,0,1-.56-.3,2.09,2.09,0,0,1-.48-.41,1.7,1.7,0,0,1-.34-.55,2,2,0,0,1-.14-.77,2.13,2.13,0,0,1,.19-.9,1.81,1.81,0,0,1,.52-.64,2.28,2.28,0,0,1,.76-.39A3.48,3.48,0,0,1,66,3.7a4.07,4.07,0,0,1,.5,0l.48.11a1.76,1.76,0,0,1,.39.15.84.84,0,0,1,.23.14.28.28,0,0,1,.07.09.29.29,0,0,1,0,.1.7.7,0,0,1,0,.16,1.77,1.77,0,0,1,0,.24,2.1,2.1,0,0,1,0,.27.42.42,0,0,1,0,.18.23.23,0,0,1,0,.11.17.17,0,0,1-.1,0,.38.38,0,0,1-.19-.08L67,5.07a3.12,3.12,0,0,0-.44-.17A2,2,0,0,0,66,4.83a1.58,1.58,0,0,0-.41,0,1.06,1.06,0,0,0-.3.16.64.64,0,0,0-.18.25,1,1,0,0,0,0,.3.63.63,0,0,0,.13.41,1.14,1.14,0,0,0,.34.31,3.87,3.87,0,0,0,.5.26l.56.25a6,6,0,0,1,.56.3,2.14,2.14,0,0,1,.49.4,1.84,1.84,0,0,1,.35.55A1.9,1.9,0,0,1,68.15,8.82Z"/>
      <path class="cls-1" d="M75.27,8.82a2.22,2.22,0,0,1-.21,1,2.08,2.08,0,0,1-.57.71,2.37,2.37,0,0,1-.84.42,3.42,3.42,0,0,1-1,.15,3.66,3.66,0,0,1-.68-.06,3.47,3.47,0,0,1-.56-.15A3.31,3.31,0,0,1,71,10.7a1.43,1.43,0,0,1-.23-.16.41.41,0,0,1-.1-.21,1.92,1.92,0,0,1,0-.39,2.53,2.53,0,0,1,0-.29.74.74,0,0,1,0-.18.23.23,0,0,1,.07-.11.17.17,0,0,1,.1,0,.43.43,0,0,1,.21.09c.1.07.22.13.36.21a4,4,0,0,0,.53.2,2.55,2.55,0,0,0,.71.09,1.37,1.37,0,0,0,.47-.07,1.2,1.2,0,0,0,.36-.17.77.77,0,0,0,.22-.29A1,1,0,0,0,73.76,9a.68.68,0,0,0-.13-.42,1.34,1.34,0,0,0-.35-.31A3.57,3.57,0,0,0,72.8,8l-.56-.25a5.86,5.86,0,0,1-.55-.3,2.37,2.37,0,0,1-.49-.41,1.89,1.89,0,0,1-.34-.55,2,2,0,0,1-.13-.77,2,2,0,0,1,.19-.9,1.79,1.79,0,0,1,.51-.64,2.38,2.38,0,0,1,.76-.39,3.48,3.48,0,0,1,.93-.12,4.36,4.36,0,0,1,.51,0l.47.11a1.76,1.76,0,0,1,.39.15.71.71,0,0,1,.23.14.32.32,0,0,1,.08.09l0,.1s0,.1,0,.16v.24a2.1,2.1,0,0,1,0,.27.74.74,0,0,1,0,.18s0,.09-.06.11a.12.12,0,0,1-.09,0,.37.37,0,0,1-.2-.08l-.32-.16a3.28,3.28,0,0,0-.45-.17,2,2,0,0,0-.56-.07,1.64,1.64,0,0,0-.41,0,1.06,1.06,0,0,0-.3.16.74.74,0,0,0-.17.25.8.8,0,0,0-.06.3.63.63,0,0,0,.13.41,1.18,1.18,0,0,0,.35.31,3.72,3.72,0,0,0,.49.26l.56.25q.28.13.57.3a2.68,2.68,0,0,1,.49.4,1.82,1.82,0,0,1,.34.55A1.89,1.89,0,0,1,75.27,8.82Z"/>
      <path class="cls-1" d="M14.42,6.25,8.53.36C7.9-.27,7.39,0,7.39.83v5A1.62,1.62,0,0,0,9,7.39H14C14.84,7.39,15.05,6.88,14.42,6.25Z"/>
      <path class="cls-1" d="M5.78,7.39H.83C0,7.39-.27,7.9.36,8.53l5.89,5.89c.63.63,1.14.42,1.14-.47V9A1.62,1.62,0,0,0,5.78,7.39Z"/>
    </g>
  </g>
</svg>